SplineFontDB: 3.2
FontName: Bescii-Mono
FullName: Bescii Mono
FamilyName: Bescii Mono
Weight: Book
Copyright: Copyright (c) 2024 by Damian Vila.
Version: 2.000;hotconv 1.0.109;makeotfexe 2.5.65596
ItalicAngle: 0
UnderlinePosition: -100
UnderlineWidth: 50
Ascent: 896
Descent: 128
InvalidEm: 0
sfntRevision: 0x00020000
LayerCount: 2
Layer: 0 1 "Atr+AOEA-s" 1
Layer: 1 1 "Fore" 0
XUID: [1021 999 1154514124 649435]
StyleMap: 0x0040
FSType: 8
OS2Version: 4
OS2_WeightWidthSlopeOnly: 0
OS2_UseTypoMetrics: 1
CreationTime: 1717879574
ModificationTime: 1717872421
PfmFamily: 81
TTFWeight: 400
TTFWidth: 5
LineGap: 0
VLineGap: 0
Panose: 0 0 0 9 0 0 0 0 0 0
OS2TypoAscent: 896
OS2TypoAOffset: 0
OS2TypoDescent: -128
OS2TypoDOffset: 0
OS2TypoLinegap: 0
OS2WinAscent: 1101
OS2WinAOffset: 0
OS2WinDescent: 128
OS2WinDOffset: 0
HheadAscent: 896
HheadAOffset: 0
HheadDescent: -128
HheadDOffset: 0
OS2SubXSize: 665
OS2SubYSize: 614
OS2SubXOff: 0
OS2SubYOff: 76
OS2SupXSize: 665
OS2SupYSize: 614
OS2SupXOff: 0
OS2SupYOff: 358
OS2StrikeYSize: 50
OS2StrikeYPos: 384
OS2CapHeight: 896
OS2XHeight: 640
OS2Vendor: 'UKWN'
OS2CodePages: 6002002d.00000000
OS2UnicodeRanges: 00000083.02061800.01000000.00000000
Lookup: 4 0 0 "'frac' Fracciones b+APoA-squeda 0" { "'frac' Fracciones b+APoA-squeda 0 subtabla"  } ['frac' ('DFLT' <'dflt' > 'cyrl' <'dflt' > 'grek' <'dflt' > 'hebr' <'dflt' > 'latn' <'dflt' > ) ]
Lookup: 4 0 1 "'liga' Ligaduras est+AOEA-ndar b+APoA-squeda 1" { "'liga' Ligaduras est+AOEA-ndar b+APoA-squeda 1 subtabla"  } ['liga' ('DFLT' <'dflt' > 'cyrl' <'dflt' > 'grek' <'dflt' > 'hebr' <'dflt' > 'latn' <'dflt' > ) ]
MarkAttachClasses: 1
DEI: 91125
ShortTable: maxp 16
  1
  0
  916
  128
  32
  0
  0
  2
  0
  1
  1
  0
  64
  0
  0
  0
EndShort

StartChar: .notdef
Encoding: 1114112 -1 0
Width: 1024
GlyphClass: 1
Flags: W
LayerCount: 2
Fore
SplineSet
896 896 m 1,0,-1
 896 768 l 1,1,-1
 1024 768 l 1,2,-1
 1024 0 l 1,3,-1
 896 0 l 1,4,-1
 896 -128 l 1,5,-1
 640 -128 l 1,6,-1
 640 0 l 1,7,-1
 384 0 l 1,8,-1
 384 -128 l 1,9,-1
 128 -128 l 1,10,-1
 128 0 l 1,11,-1
 0 0 l 1,12,-1
 0 768 l 1,13,-1
 128 768 l 1,14,-1
 128 896 l 1,15,-1
 896 896 l 1,0,-1
896 384 m 1,16,-1
 896 640 l 1,17,-1
 768 640 l 1,18,-1
 768 768 l 1,19,-1
 256 768 l 1,20,-1
 256 640 l 1,21,-1
 128 640 l 1,22,-1
 128 512 l 1,23,-1
 384 512 l 1,24,-1
 384 640 l 1,25,-1
 640 640 l 1,26,-1
 640 384 l 1,27,-1
 512 384 l 1,28,-1
 512 256 l 1,29,-1
 384 256 l 1,30,-1
 384 128 l 1,31,-1
 640 128 l 1,32,-1
 640 256 l 1,33,-1
 768 256 l 1,34,-1
 768 384 l 1,35,-1
 896 384 l 1,16,-1
EndSplineSet
EndChar

StartChar: exclam
Encoding: 33 33 4
Width: 1024
GlyphClass: 1
Flags: W
LayerCount: 2
Fore
SplineSet
384 896 m 1,0,-1
 640 896 l 1,1,-1
 640 256 l 1,2,-1
 384 256 l 1,3,-1
 384 896 l 1,0,-1
384 0 m 1,4,-1
 384 128 l 1,5,-1
 640 128 l 1,6,-1
 640 0 l 1,7,-1
 384 0 l 1,4,-1
EndSplineSet
EndChar

StartChar: quotedbl
Encoding: 34 34 5
Width: 1024
GlyphClass: 1
Flags: W
LayerCount: 2
Fore
SplineSet
256 896 m 1,0,-1
 512 896 l 1,1,-1
 512 640 l 1,2,-1
 384 640 l 1,3,-1
 384 512 l 1,4,-1
 256 512 l 1,5,-1
 256 896 l 1,0,-1
640 896 m 1,6,-1
 896 896 l 1,7,-1
 896 640 l 1,8,-1
 768 640 l 1,9,-1
 768 512 l 1,10,-1
 640 512 l 1,11,-1
 640 896 l 1,6,-1
EndSplineSet
EndChar

StartChar: numbersign
Encoding: 35 35 6
Width: 1024
GlyphClass: 1
Flags: W
LayerCount: 2
Fore
SplineSet
896 640 m 1,0,-1
 896 512 l 1,1,-1
 768 512 l 1,2,-1
 768 384 l 1,3,-1
 896 384 l 1,4,-1
 896 256 l 1,5,-1
 768 256 l 1,6,-1
 768 128 l 1,7,-1
 512 128 l 1,8,-1
 512 256 l 1,9,-1
 384 256 l 1,10,-1
 384 128 l 1,11,-1
 128 128 l 1,12,-1
 128 256 l 1,13,-1
 0 256 l 1,14,-1
 0 384 l 1,15,-1
 128 384 l 1,16,-1
 128 512 l 1,17,-1
 0 512 l 1,18,-1
 0 640 l 1,19,-1
 128 640 l 1,20,-1
 128 768 l 1,21,-1
 384 768 l 1,22,-1
 384 640 l 1,23,-1
 512 640 l 1,24,-1
 512 768 l 1,25,-1
 768 768 l 1,26,-1
 768 640 l 1,27,-1
 896 640 l 1,0,-1
384 512 m 1,28,-1
 384 384 l 1,29,-1
 512 384 l 1,30,-1
 512 512 l 1,31,-1
 384 512 l 1,28,-1
EndSplineSet
EndChar

StartChar: dollar
Encoding: 36 36 7
Width: 1024
GlyphClass: 1
Flags: W
LayerCount: 2
Fore
SplineSet
768 384 m 1,0,-1
 768 256 l 1,1,-1
 896 256 l 1,2,-1
 896 128 l 1,3,-1
 768 128 l 1,4,-1
 768 0 l 1,5,-1
 512 0 l 1,6,-1
 512 -128 l 1,7,-1
 384 -128 l 1,8,-1
 384 0 l 1,9,-1
 128 0 l 1,10,-1
 128 128 l 1,11,-1
 384 128 l 1,12,-1
 384 256 l 1,13,-1
 128 256 l 1,14,-1
 128 384 l 1,15,-1
 0 384 l 1,16,-1
 0 512 l 1,17,-1
 128 512 l 1,18,-1
 128 640 l 1,19,-1
 384 640 l 1,20,-1
 384 768 l 1,21,-1
 512 768 l 1,22,-1
 512 640 l 1,23,-1
 768 640 l 1,24,-1
 768 512 l 1,25,-1
 512 512 l 1,26,-1
 512 384 l 1,27,-1
 768 384 l 1,0,-1
256 512 m 1,28,-1
 256 384 l 1,29,-1
 384 384 l 1,30,-1
 384 512 l 1,31,-1
 256 512 l 1,28,-1
512 256 m 1,32,-1
 512 128 l 1,33,-1
 640 128 l 1,34,-1
 640 256 l 1,35,-1
 512 256 l 1,32,-1
EndSplineSet
EndChar

StartChar: percent
Encoding: 37 37 8
Width: 1024
GlyphClass: 1
Flags: W
LayerCount: 2
Fore
SplineSet
640 768 m 1,0,-1
 896 768 l 1,1,-1
 896 640 l 1,2,-1
 768 640 l 1,3,-1
 768 512 l 1,4,-1
 640 512 l 1,5,-1
 640 384 l 1,6,-1
 512 384 l 1,7,-1
 512 256 l 1,8,-1
 384 256 l 1,9,-1
 384 128 l 1,10,-1
 256 128 l 1,11,-1
 256 0 l 1,12,-1
 128 0 l 1,13,-1
 128 256 l 1,14,-1
 256 256 l 1,15,-1
 256 384 l 1,16,-1
 384 384 l 1,17,-1
 384 512 l 1,18,-1
 512 512 l 1,19,-1
 512 640 l 1,20,-1
 640 640 l 1,21,-1
 640 768 l 1,0,-1
384 768 m 1,22,-1
 384 512 l 1,23,-1
 128 512 l 1,24,-1
 128 768 l 1,25,-1
 384 768 l 1,22,-1
640 256 m 1,26,-1
 896 256 l 1,27,-1
 896 0 l 1,28,-1
 640 0 l 1,29,-1
 640 256 l 1,26,-1
EndSplineSet
EndChar

StartChar: ampersand
Encoding: 38 38 9
Width: 1024
GlyphClass: 1
Flags: W
LayerCount: 2
Fore
SplineSet
896 384 m 1,0,-1
 768 384 l 1,1,-1
 768 128 l 1,2,-1
 896 128 l 1,3,-1
 896 0 l 1,4,-1
 640 0 l 1,5,-1
 640 128 l 1,6,-1
 512 128 l 1,7,-1
 512 256 l 1,8,-1
 384 256 l 1,9,-1
 384 384 l 1,10,-1
 256 384 l 1,11,-1
 256 128 l 1,12,-1
 512 128 l 1,13,-1
 512 0 l 1,14,-1
 128 0 l 1,15,-1
 128 128 l 1,16,-1
 0 128 l 1,17,-1
 0 384 l 1,18,-1
 128 384 l 1,19,-1
 128 512 l 1,20,-1
 256 512 l 1,21,-1
 256 640 l 1,22,-1
 128 640 l 1,23,-1
 128 768 l 1,24,-1
 256 768 l 1,25,-1
 256 896 l 1,26,-1
 640 896 l 1,27,-1
 640 768 l 1,28,-1
 768 768 l 1,29,-1
 768 640 l 1,30,-1
 640 640 l 1,31,-1
 640 512 l 1,32,-1
 512 512 l 1,33,-1
 512 384 l 1,34,-1
 640 384 l 1,35,-1
 640 512 l 1,36,-1
 896 512 l 1,37,-1
 896 384 l 1,0,-1
512 768 m 1,38,-1
 384 768 l 1,39,-1
 384 640 l 1,40,-1
 512 640 l 1,41,-1
 512 768 l 1,38,-1
EndSplineSet
EndChar

StartChar: quotesingle
Encoding: 39 39 10
Width: 1024
GlyphClass: 1
Flags: W
LayerCount: 2
Fore
SplineSet
384 896 m 1,0,-1
 640 896 l 1,1,-1
 640 640 l 1,2,-1
 512 640 l 1,3,-1
 512 512 l 1,4,-1
 384 512 l 1,5,-1
 384 896 l 1,0,-1
EndSplineSet
EndChar

StartChar: parenleft
Encoding: 40 40 11
Width: 1024
GlyphClass: 1
Flags: W
LayerCount: 2
Fore
SplineSet
512 640 m 1,0,-1
 512 256 l 1,1,-1
 640 256 l 1,2,-1
 640 128 l 1,3,-1
 768 128 l 1,4,-1
 768 0 l 1,5,-1
 512 0 l 1,6,-1
 512 128 l 1,7,-1
 384 128 l 1,8,-1
 384 256 l 1,9,-1
 256 256 l 1,10,-1
 256 640 l 1,11,-1
 384 640 l 1,12,-1
 384 768 l 1,13,-1
 512 768 l 1,14,-1
 512 896 l 1,15,-1
 768 896 l 1,16,-1
 768 768 l 1,17,-1
 640 768 l 1,18,-1
 640 640 l 1,19,-1
 512 640 l 1,0,-1
EndSplineSet
EndChar

StartChar: parenright
Encoding: 41 41 12
Width: 1024
GlyphClass: 1
Flags: W
LayerCount: 2
Fore
SplineSet
640 768 m 1,0,-1
 640 640 l 1,1,-1
 768 640 l 1,2,-1
 768 256 l 1,3,-1
 640 256 l 1,4,-1
 640 128 l 1,5,-1
 512 128 l 1,6,-1
 512 0 l 1,7,-1
 256 0 l 1,8,-1
 256 128 l 1,9,-1
 384 128 l 1,10,-1
 384 256 l 1,11,-1
 512 256 l 1,12,-1
 512 640 l 1,13,-1
 384 640 l 1,14,-1
 384 768 l 1,15,-1
 256 768 l 1,16,-1
 256 896 l 1,17,-1
 512 896 l 1,18,-1
 512 768 l 1,19,-1
 640 768 l 1,0,-1
EndSplineSet
EndChar

StartChar: asterisk
Encoding: 42 42 13
Width: 1024
GlyphClass: 1
Flags: W
LayerCount: 2
Fore
SplineSet
640 512 m 1,0,-1
 896 512 l 1,1,-1
 896 384 l 1,2,-1
 640 384 l 1,3,-1
 640 256 l 1,4,-1
 768 256 l 1,5,-1
 768 128 l 1,6,-1
 512 128 l 1,7,-1
 512 256 l 1,8,-1
 384 256 l 1,9,-1
 384 128 l 1,10,-1
 128 128 l 1,11,-1
 128 256 l 1,12,-1
 256 256 l 1,13,-1
 256 384 l 1,14,-1
 0 384 l 1,15,-1
 0 512 l 1,16,-1
 256 512 l 1,17,-1
 256 640 l 1,18,-1
 128 640 l 1,19,-1
 128 768 l 1,20,-1
 384 768 l 1,21,-1
 384 640 l 1,22,-1
 512 640 l 1,23,-1
 512 768 l 1,24,-1
 768 768 l 1,25,-1
 768 640 l 1,26,-1
 640 640 l 1,27,-1
 640 512 l 1,0,-1
EndSplineSet
EndChar

StartChar: plus
Encoding: 43 43 14
Width: 1024
GlyphClass: 1
Flags: W
LayerCount: 2
Fore
SplineSet
640 384 m 1,0,-1
 896 384 l 1,1,-1
 896 256 l 1,2,-1
 640 256 l 1,3,-1
 640 0 l 1,4,-1
 384 0 l 1,5,-1
 384 256 l 1,6,-1
 128 256 l 1,7,-1
 128 384 l 1,8,-1
 384 384 l 1,9,-1
 384 640 l 1,10,-1
 640 640 l 1,11,-1
 640 384 l 1,0,-1
EndSplineSet
EndChar

StartChar: comma
Encoding: 44 44 15
Width: 1024
GlyphClass: 1
Flags: W
LayerCount: 2
Fore
SplineSet
384 256 m 1,0,-1
 640 256 l 1,1,-1
 640 0 l 1,2,-1
 512 0 l 1,3,-1
 512 -128 l 1,4,-1
 256 -128 l 1,5,-1
 256 0 l 1,6,-1
 384 0 l 1,7,-1
 384 256 l 1,0,-1
EndSplineSet
EndChar

StartChar: hyphen
Encoding: 45 45 16
Width: 1024
GlyphClass: 1
Flags: W
LayerCount: 2
Fore
SplineSet
768 512 m 1,0,-1
 768 384 l 1,1,-1
 256 384 l 1,2,-1
 256 512 l 1,3,-1
 768 512 l 1,0,-1
EndSplineSet
EndChar

StartChar: period
Encoding: 46 46 17
Width: 1024
GlyphClass: 1
Flags: W
LayerCount: 2
Fore
SplineSet
384 128 m 1,0,-1
 640 128 l 1,1,-1
 640 0 l 1,2,-1
 384 0 l 1,3,-1
 384 128 l 1,0,-1
EndSplineSet
EndChar

StartChar: slash
Encoding: 47 47 18
Width: 1024
GlyphClass: 1
Flags: W
LayerCount: 2
Fore
SplineSet
768 768 m 1,0,-1
 768 896 l 1,1,-1
 896 896 l 1,2,-1
 896 640 l 1,3,-1
 768 640 l 1,4,-1
 768 512 l 1,5,-1
 640 512 l 1,6,-1
 640 384 l 1,7,-1
 512 384 l 1,8,-1
 512 256 l 1,9,-1
 384 256 l 1,10,-1
 384 128 l 1,11,-1
 256 128 l 1,12,-1
 256 0 l 1,13,-1
 128 0 l 1,14,-1
 128 256 l 1,15,-1
 256 256 l 1,16,-1
 256 384 l 1,17,-1
 384 384 l 1,18,-1
 384 512 l 1,19,-1
 512 512 l 1,20,-1
 512 640 l 1,21,-1
 640 640 l 1,22,-1
 640 768 l 1,23,-1
 768 768 l 1,0,-1
EndSplineSet
EndChar

StartChar: zero
Encoding: 48 48 19
Width: 1024
GlyphClass: 1
Flags: W
LayerCount: 2
Fore
SplineSet
768 896 m 1,0,-1
 768 768 l 1,1,-1
 896 768 l 1,2,-1
 896 128 l 1,3,-1
 768 128 l 1,4,-1
 768 0 l 1,5,-1
 256 0 l 1,6,-1
 256 128 l 1,7,-1
 128 128 l 1,8,-1
 128 768 l 1,9,-1
 256 768 l 1,10,-1
 256 896 l 1,11,-1
 768 896 l 1,0,-1
384 128 m 1,12,-1
 640 128 l 1,13,-1
 640 512 l 1,14,-1
 512 512 l 1,15,-1
 512 640 l 1,16,-1
 640 640 l 1,17,-1
 640 768 l 1,18,-1
 384 768 l 1,19,-1
 384 512 l 1,20,-1
 512 512 l 1,21,-1
 512 384 l 1,22,-1
 384 384 l 1,23,-1
 384 128 l 1,12,-1
EndSplineSet
EndChar

StartChar: one
Encoding: 49 49 20
Width: 1024
GlyphClass: 1
Flags: W
LayerCount: 2
Fore
SplineSet
384 896 m 1,0,-1
 640 896 l 1,1,-1
 640 0 l 1,2,-1
 384 0 l 1,3,-1
 384 640 l 1,4,-1
 256 640 l 1,5,-1
 256 768 l 1,6,-1
 384 768 l 1,7,-1
 384 896 l 1,0,-1
EndSplineSet
EndChar

StartChar: two
Encoding: 50 50 21
Width: 1024
GlyphClass: 1
Flags: W
LayerCount: 2
Fore
SplineSet
768 896 m 1,0,-1
 768 768 l 1,1,-1
 896 768 l 1,2,-1
 896 512 l 1,3,-1
 768 512 l 1,4,-1
 768 384 l 1,5,-1
 384 384 l 1,6,-1
 384 128 l 1,7,-1
 640 128 l 1,8,-1
 640 256 l 1,9,-1
 896 256 l 1,10,-1
 896 0 l 1,11,-1
 128 0 l 1,12,-1
 128 384 l 1,13,-1
 256 384 l 1,14,-1
 256 512 l 1,15,-1
 640 512 l 1,16,-1
 640 768 l 1,17,-1
 384 768 l 1,18,-1
 384 640 l 1,19,-1
 128 640 l 1,20,-1
 128 768 l 1,21,-1
 256 768 l 1,22,-1
 256 896 l 1,23,-1
 768 896 l 1,0,-1
EndSplineSet
EndChar

StartChar: three
Encoding: 51 51 22
Width: 1024
GlyphClass: 1
Flags: W
LayerCount: 2
Fore
SplineSet
768 896 m 1,0,-1
 768 768 l 1,1,-1
 896 768 l 1,2,-1
 896 512 l 1,3,-1
 768 512 l 1,4,-1
 768 384 l 1,5,-1
 896 384 l 1,6,-1
 896 128 l 1,7,-1
 768 128 l 1,8,-1
 768 0 l 1,9,-1
 256 0 l 1,10,-1
 256 128 l 1,11,-1
 128 128 l 1,12,-1
 128 256 l 1,13,-1
 384 256 l 1,14,-1
 384 128 l 1,15,-1
 640 128 l 1,16,-1
 640 384 l 1,17,-1
 384 384 l 1,18,-1
 384 512 l 1,19,-1
 640 512 l 1,20,-1
 640 768 l 1,21,-1
 384 768 l 1,22,-1
 384 640 l 1,23,-1
 128 640 l 1,24,-1
 128 768 l 1,25,-1
 256 768 l 1,26,-1
 256 896 l 1,27,-1
 768 896 l 1,0,-1
EndSplineSet
EndChar

StartChar: four
Encoding: 52 52 23
Width: 1024
GlyphClass: 1
Flags: W
LayerCount: 2
Fore
SplineSet
768 384 m 1,0,-1
 896 384 l 1,1,-1
 896 256 l 1,2,-1
 768 256 l 1,3,-1
 768 0 l 1,4,-1
 512 0 l 1,5,-1
 512 256 l 1,6,-1
 0 256 l 1,7,-1
 0 512 l 1,8,-1
 128 512 l 1,9,-1
 128 640 l 1,10,-1
 256 640 l 1,11,-1
 256 768 l 1,12,-1
 384 768 l 1,13,-1
 384 896 l 1,14,-1
 768 896 l 1,15,-1
 768 384 l 1,0,-1
256 384 m 1,16,-1
 512 384 l 1,17,-1
 512 640 l 1,18,-1
 384 640 l 1,19,-1
 384 512 l 1,20,-1
 256 512 l 1,21,-1
 256 384 l 1,16,-1
EndSplineSet
EndChar

StartChar: five
Encoding: 53 53 24
Width: 1024
GlyphClass: 1
Flags: W
LayerCount: 2
Fore
SplineSet
384 768 m 1,0,-1
 384 512 l 1,1,-1
 768 512 l 1,2,-1
 768 384 l 1,3,-1
 896 384 l 1,4,-1
 896 128 l 1,5,-1
 768 128 l 1,6,-1
 768 0 l 1,7,-1
 256 0 l 1,8,-1
 256 128 l 1,9,-1
 128 128 l 1,10,-1
 128 256 l 1,11,-1
 384 256 l 1,12,-1
 384 128 l 1,13,-1
 640 128 l 1,14,-1
 640 384 l 1,15,-1
 128 384 l 1,16,-1
 128 896 l 1,17,-1
 896 896 l 1,18,-1
 896 768 l 1,19,-1
 384 768 l 1,0,-1
EndSplineSet
EndChar

StartChar: six
Encoding: 54 54 25
Width: 1024
GlyphClass: 1
Flags: W
LayerCount: 2
Fore
SplineSet
896 640 m 1,0,-1
 640 640 l 1,1,-1
 640 768 l 1,2,-1
 384 768 l 1,3,-1
 384 512 l 1,4,-1
 768 512 l 1,5,-1
 768 384 l 1,6,-1
 896 384 l 1,7,-1
 896 128 l 1,8,-1
 768 128 l 1,9,-1
 768 0 l 1,10,-1
 256 0 l 1,11,-1
 256 128 l 1,12,-1
 128 128 l 1,13,-1
 128 768 l 1,14,-1
 256 768 l 1,15,-1
 256 896 l 1,16,-1
 768 896 l 1,17,-1
 768 768 l 1,18,-1
 896 768 l 1,19,-1
 896 640 l 1,0,-1
640 384 m 1,20,-1
 384 384 l 1,21,-1
 384 128 l 1,22,-1
 640 128 l 1,23,-1
 640 384 l 1,20,-1
EndSplineSet
EndChar

StartChar: seven
Encoding: 55 55 26
Width: 1024
GlyphClass: 1
Flags: W
LayerCount: 2
Fore
SplineSet
896 896 m 1,0,-1
 896 512 l 1,1,-1
 768 512 l 1,2,-1
 768 384 l 1,3,-1
 640 384 l 1,4,-1
 640 0 l 1,5,-1
 384 0 l 1,6,-1
 384 384 l 1,7,-1
 512 384 l 1,8,-1
 512 512 l 1,9,-1
 640 512 l 1,10,-1
 640 768 l 1,11,-1
 384 768 l 1,12,-1
 384 640 l 1,13,-1
 128 640 l 1,14,-1
 128 896 l 1,15,-1
 896 896 l 1,0,-1
EndSplineSet
EndChar

StartChar: eight
Encoding: 56 56 27
Width: 1024
GlyphClass: 1
Flags: W
LayerCount: 2
Fore
SplineSet
768 896 m 1,0,-1
 768 768 l 1,1,-1
 896 768 l 1,2,-1
 896 512 l 1,3,-1
 768 512 l 1,4,-1
 768 384 l 1,5,-1
 896 384 l 1,6,-1
 896 128 l 1,7,-1
 768 128 l 1,8,-1
 768 0 l 1,9,-1
 256 0 l 1,10,-1
 256 128 l 1,11,-1
 128 128 l 1,12,-1
 128 384 l 1,13,-1
 256 384 l 1,14,-1
 256 512 l 1,15,-1
 128 512 l 1,16,-1
 128 768 l 1,17,-1
 256 768 l 1,18,-1
 256 896 l 1,19,-1
 768 896 l 1,0,-1
384 512 m 1,20,-1
 640 512 l 1,21,-1
 640 768 l 1,22,-1
 384 768 l 1,23,-1
 384 512 l 1,20,-1
640 128 m 1,24,-1
 640 384 l 1,25,-1
 384 384 l 1,26,-1
 384 128 l 1,27,-1
 640 128 l 1,24,-1
EndSplineSet
EndChar

StartChar: nine
Encoding: 57 57 28
Width: 1024
GlyphClass: 1
Flags: W
LayerCount: 2
Fore
SplineSet
768 896 m 1,0,-1
 768 768 l 1,1,-1
 896 768 l 1,2,-1
 896 128 l 1,3,-1
 768 128 l 1,4,-1
 768 0 l 1,5,-1
 256 0 l 1,6,-1
 256 128 l 1,7,-1
 128 128 l 1,8,-1
 128 256 l 1,9,-1
 384 256 l 1,10,-1
 384 128 l 1,11,-1
 640 128 l 1,12,-1
 640 384 l 1,13,-1
 256 384 l 1,14,-1
 256 512 l 1,15,-1
 128 512 l 1,16,-1
 128 768 l 1,17,-1
 256 768 l 1,18,-1
 256 896 l 1,19,-1
 768 896 l 1,0,-1
384 512 m 1,20,-1
 640 512 l 1,21,-1
 640 768 l 1,22,-1
 384 768 l 1,23,-1
 384 512 l 1,20,-1
EndSplineSet
EndChar

StartChar: colon
Encoding: 58 58 29
Width: 1024
GlyphClass: 1
Flags: W
LayerCount: 2
Fore
SplineSet
384 512 m 1,0,-1
 640 512 l 1,1,-1
 640 384 l 1,2,-1
 384 384 l 1,3,-1
 384 512 l 1,0,-1
384 128 m 1,4,-1
 384 256 l 1,5,-1
 640 256 l 1,6,-1
 640 128 l 1,7,-1
 384 128 l 1,4,-1
EndSplineSet
EndChar

StartChar: semicolon
Encoding: 59 59 30
Width: 1024
GlyphClass: 1
Flags: W
LayerCount: 2
Fore
SplineSet
384 512 m 1,0,-1
 640 512 l 1,1,-1
 640 384 l 1,2,-1
 384 384 l 1,3,-1
 384 512 l 1,0,-1
384 256 m 1,4,-1
 640 256 l 1,5,-1
 640 0 l 1,6,-1
 512 0 l 1,7,-1
 512 -128 l 1,8,-1
 256 -128 l 1,9,-1
 256 0 l 1,10,-1
 384 0 l 1,11,-1
 384 256 l 1,4,-1
EndSplineSet
EndChar

StartChar: less
Encoding: 60 60 31
Width: 1024
GlyphClass: 1
Flags: W
LayerCount: 2
Fore
SplineSet
640 512 m 1,0,-1
 640 384 l 1,1,-1
 512 384 l 1,2,-1
 512 256 l 1,3,-1
 640 256 l 1,4,-1
 640 128 l 1,5,-1
 768 128 l 1,6,-1
 768 0 l 1,7,-1
 512 0 l 1,8,-1
 512 128 l 1,9,-1
 384 128 l 1,10,-1
 384 256 l 1,11,-1
 256 256 l 1,12,-1
 256 384 l 1,13,-1
 384 384 l 1,14,-1
 384 512 l 1,15,-1
 512 512 l 1,16,-1
 512 640 l 1,17,-1
 768 640 l 1,18,-1
 768 512 l 1,19,-1
 640 512 l 1,0,-1
EndSplineSet
EndChar

StartChar: equal
Encoding: 61 61 32
Width: 1024
GlyphClass: 1
Flags: W
LayerCount: 2
Fore
SplineSet
768 512 m 1,0,-1
 768 384 l 1,1,-1
 128 384 l 1,2,-1
 128 512 l 1,3,-1
 768 512 l 1,0,-1
768 256 m 1,4,-1
 768 128 l 1,5,-1
 128 128 l 1,6,-1
 128 256 l 1,7,-1
 768 256 l 1,4,-1
EndSplineSet
EndChar

StartChar: greater
Encoding: 62 62 33
Width: 1024
GlyphClass: 1
Flags: W
LayerCount: 2
Fore
SplineSet
640 512 m 1,0,-1
 640 384 l 1,1,-1
 768 384 l 1,2,-1
 768 256 l 1,3,-1
 640 256 l 1,4,-1
 640 128 l 1,5,-1
 512 128 l 1,6,-1
 512 0 l 1,7,-1
 256 0 l 1,8,-1
 256 128 l 1,9,-1
 384 128 l 1,10,-1
 384 256 l 1,11,-1
 512 256 l 1,12,-1
 512 384 l 1,13,-1
 384 384 l 1,14,-1
 384 512 l 1,15,-1
 256 512 l 1,16,-1
 256 640 l 1,17,-1
 512 640 l 1,18,-1
 512 512 l 1,19,-1
 640 512 l 1,0,-1
EndSplineSet
EndChar

StartChar: question
Encoding: 63 63 34
Width: 1024
GlyphClass: 1
Flags: W
LayerCount: 2
Fore
SplineSet
768 896 m 1,0,-1
 768 768 l 1,1,-1
 896 768 l 1,2,-1
 896 512 l 1,3,-1
 768 512 l 1,4,-1
 768 384 l 1,5,-1
 640 384 l 1,6,-1
 640 256 l 1,7,-1
 384 256 l 1,8,-1
 384 384 l 1,9,-1
 512 384 l 1,10,-1
 512 512 l 1,11,-1
 640 512 l 1,12,-1
 640 768 l 1,13,-1
 384 768 l 1,14,-1
 384 640 l 1,15,-1
 128 640 l 1,16,-1
 128 768 l 1,17,-1
 256 768 l 1,18,-1
 256 896 l 1,19,-1
 768 896 l 1,0,-1
384 0 m 1,20,-1
 384 128 l 1,21,-1
 640 128 l 1,22,-1
 640 0 l 1,23,-1
 384 0 l 1,20,-1
EndSplineSet
EndChar

StartChar: at
Encoding: 64 64 35
Width: 1024
GlyphClass: 1
Flags: W
LayerCount: 2
Fore
SplineSet
768 896 m 1,0,-1
 768 768 l 1,1,-1
 896 768 l 1,2,-1
 896 384 l 1,3,-1
 768 384 l 1,4,-1
 768 256 l 1,5,-1
 384 256 l 1,6,-1
 384 640 l 1,7,-1
 640 640 l 1,8,-1
 640 768 l 1,9,-1
 256 768 l 1,10,-1
 256 128 l 1,11,-1
 768 128 l 1,12,-1
 768 0 l 1,13,-1
 128 0 l 1,14,-1
 128 128 l 1,15,-1
 0 128 l 1,16,-1
 0 768 l 1,17,-1
 128 768 l 1,18,-1
 128 896 l 1,19,-1
 768 896 l 1,0,-1
512 512 m 1,20,-1
 512 384 l 1,21,-1
 640 384 l 1,22,-1
 640 512 l 1,23,-1
 512 512 l 1,20,-1
EndSplineSet
EndChar

StartChar: A
Encoding: 65 65 36
Width: 1024
GlyphClass: 1
Flags: W
LayerCount: 2
Fore
SplineSet
768 768 m 1,0,-1
 768 640 l 1,1,-1
 896 640 l 1,2,-1
 896 0 l 1,3,-1
 640 0 l 1,4,-1
 640 256 l 1,5,-1
 384 256 l 1,6,-1
 384 0 l 1,7,-1
 128 0 l 1,8,-1
 128 640 l 1,9,-1
 256 640 l 1,10,-1
 256 768 l 1,11,-1
 384 768 l 1,12,-1
 384 896 l 1,13,-1
 640 896 l 1,14,-1
 640 768 l 1,15,-1
 768 768 l 1,0,-1
384 384 m 1,16,-1
 640 384 l 1,17,-1
 640 640 l 1,18,-1
 384 640 l 1,19,-1
 384 384 l 1,16,-1
EndSplineSet
EndChar

StartChar: B
Encoding: 66 66 37
Width: 1024
GlyphClass: 1
Flags: W
LayerCount: 2
Fore
SplineSet
768 896 m 1,0,-1
 768 768 l 1,1,-1
 896 768 l 1,2,-1
 896 512 l 1,3,-1
 768 512 l 1,4,-1
 768 384 l 1,5,-1
 896 384 l 1,6,-1
 896 128 l 1,7,-1
 768 128 l 1,8,-1
 768 0 l 1,9,-1
 128 0 l 1,10,-1
 128 896 l 1,11,-1
 768 896 l 1,0,-1
384 512 m 1,12,-1
 640 512 l 1,13,-1
 640 768 l 1,14,-1
 384 768 l 1,15,-1
 384 512 l 1,12,-1
640 128 m 1,16,-1
 640 384 l 1,17,-1
 384 384 l 1,18,-1
 384 128 l 1,19,-1
 640 128 l 1,16,-1
EndSplineSet
EndChar

StartChar: C
Encoding: 67 67 38
Width: 1024
GlyphClass: 1
Flags: W
LayerCount: 2
Fore
SplineSet
896 640 m 1,0,-1
 640 640 l 1,1,-1
 640 768 l 1,2,-1
 384 768 l 1,3,-1
 384 128 l 1,4,-1
 640 128 l 1,5,-1
 640 256 l 1,6,-1
 896 256 l 1,7,-1
 896 128 l 1,8,-1
 768 128 l 1,9,-1
 768 0 l 1,10,-1
 256 0 l 1,11,-1
 256 128 l 1,12,-1
 128 128 l 1,13,-1
 128 768 l 1,14,-1
 256 768 l 1,15,-1
 256 896 l 1,16,-1
 768 896 l 1,17,-1
 768 768 l 1,18,-1
 896 768 l 1,19,-1
 896 640 l 1,0,-1
EndSplineSet
EndChar

StartChar: D
Encoding: 68 68 39
Width: 1024
GlyphClass: 1
Flags: W
LayerCount: 2
Fore
SplineSet
768 896 m 1,0,-1
 768 768 l 1,1,-1
 896 768 l 1,2,-1
 896 128 l 1,3,-1
 768 128 l 1,4,-1
 768 0 l 1,5,-1
 128 0 l 1,6,-1
 128 896 l 1,7,-1
 768 896 l 1,0,-1
384 128 m 1,8,-1
 640 128 l 1,9,-1
 640 768 l 1,10,-1
 384 768 l 1,11,-1
 384 128 l 1,8,-1
EndSplineSet
EndChar

StartChar: E
Encoding: 69 69 40
Width: 1024
GlyphClass: 1
Flags: W
LayerCount: 2
Fore
SplineSet
384 768 m 1,0,-1
 384 512 l 1,1,-1
 640 512 l 1,2,-1
 640 384 l 1,3,-1
 384 384 l 1,4,-1
 384 128 l 1,5,-1
 896 128 l 1,6,-1
 896 0 l 1,7,-1
 128 0 l 1,8,-1
 128 896 l 1,9,-1
 896 896 l 1,10,-1
 896 768 l 1,11,-1
 384 768 l 1,0,-1
EndSplineSet
EndChar

StartChar: F
Encoding: 70 70 41
Width: 1024
GlyphClass: 1
Flags: W
LayerCount: 2
Fore
SplineSet
896 896 m 1,0,-1
 896 768 l 1,1,-1
 384 768 l 1,2,-1
 384 512 l 1,3,-1
 640 512 l 1,4,-1
 640 384 l 1,5,-1
 384 384 l 1,6,-1
 384 0 l 1,7,-1
 128 0 l 1,8,-1
 128 896 l 1,9,-1
 896 896 l 1,0,-1
EndSplineSet
EndChar

StartChar: G
Encoding: 71 71 42
Width: 1024
GlyphClass: 1
Flags: W
LayerCount: 2
Fore
SplineSet
896 640 m 1,0,-1
 640 640 l 1,1,-1
 640 768 l 1,2,-1
 384 768 l 1,3,-1
 384 128 l 1,4,-1
 640 128 l 1,5,-1
 640 384 l 1,6,-1
 512 384 l 1,7,-1
 512 512 l 1,8,-1
 896 512 l 1,9,-1
 896 128 l 1,10,-1
 768 128 l 1,11,-1
 768 0 l 1,12,-1
 256 0 l 1,13,-1
 256 128 l 1,14,-1
 128 128 l 1,15,-1
 128 768 l 1,16,-1
 256 768 l 1,17,-1
 256 896 l 1,18,-1
 768 896 l 1,19,-1
 768 768 l 1,20,-1
 896 768 l 1,21,-1
 896 640 l 1,0,-1
EndSplineSet
EndChar

StartChar: H
Encoding: 72 72 43
Width: 1024
GlyphClass: 1
Flags: W
LayerCount: 2
Fore
SplineSet
640 896 m 1,0,-1
 896 896 l 1,1,-1
 896 0 l 1,2,-1
 640 0 l 1,3,-1
 640 384 l 1,4,-1
 384 384 l 1,5,-1
 384 0 l 1,6,-1
 128 0 l 1,7,-1
 128 896 l 1,8,-1
 384 896 l 1,9,-1
 384 512 l 1,10,-1
 640 512 l 1,11,-1
 640 896 l 1,0,-1
EndSplineSet
EndChar

StartChar: I
Encoding: 73 73 44
Width: 1024
GlyphClass: 1
Flags: W
LayerCount: 2
Fore
SplineSet
640 128 m 1,0,-1
 768 128 l 1,1,-1
 768 0 l 1,2,-1
 256 0 l 1,3,-1
 256 128 l 1,4,-1
 384 128 l 1,5,-1
 384 768 l 1,6,-1
 256 768 l 1,7,-1
 256 896 l 1,8,-1
 768 896 l 1,9,-1
 768 768 l 1,10,-1
 640 768 l 1,11,-1
 640 128 l 1,0,-1
EndSplineSet
EndChar

StartChar: J
Encoding: 74 74 45
Width: 1024
GlyphClass: 1
Flags: W
LayerCount: 2
Fore
SplineSet
896 896 m 1,0,-1
 896 128 l 1,1,-1
 768 128 l 1,2,-1
 768 0 l 1,3,-1
 256 0 l 1,4,-1
 256 128 l 1,5,-1
 128 128 l 1,6,-1
 128 256 l 1,7,-1
 384 256 l 1,8,-1
 384 128 l 1,9,-1
 640 128 l 1,10,-1
 640 768 l 1,11,-1
 512 768 l 1,12,-1
 512 896 l 1,13,-1
 896 896 l 1,0,-1
EndSplineSet
EndChar

StartChar: K
Encoding: 75 75 46
Width: 1024
GlyphClass: 1
Flags: W
LayerCount: 2
Fore
SplineSet
640 896 m 1,0,-1
 896 896 l 1,1,-1
 896 640 l 1,2,-1
 768 640 l 1,3,-1
 768 512 l 1,4,-1
 640 512 l 1,5,-1
 640 384 l 1,6,-1
 768 384 l 1,7,-1
 768 256 l 1,8,-1
 896 256 l 1,9,-1
 896 0 l 1,10,-1
 640 0 l 1,11,-1
 640 256 l 1,12,-1
 512 256 l 1,13,-1
 512 384 l 1,14,-1
 384 384 l 1,15,-1
 384 0 l 1,16,-1
 128 0 l 1,17,-1
 128 896 l 1,18,-1
 384 896 l 1,19,-1
 384 512 l 1,20,-1
 512 512 l 1,21,-1
 512 640 l 1,22,-1
 640 640 l 1,23,-1
 640 896 l 1,0,-1
EndSplineSet
EndChar

StartChar: L
Encoding: 76 76 47
Width: 1024
GlyphClass: 1
Flags: W
LayerCount: 2
Fore
SplineSet
896 128 m 1,0,-1
 896 0 l 1,1,-1
 128 0 l 1,2,-1
 128 896 l 1,3,-1
 384 896 l 1,4,-1
 384 128 l 1,5,-1
 896 128 l 1,0,-1
EndSplineSet
EndChar

StartChar: M
Encoding: 77 77 48
Width: 1024
GlyphClass: 1
Flags: W
LayerCount: 2
Fore
SplineSet
640 896 m 1,0,-1
 896 896 l 1,1,-1
 896 0 l 1,2,-1
 640 0 l 1,3,-1
 640 512 l 1,4,-1
 512 512 l 1,5,-1
 512 384 l 1,6,-1
 384 384 l 1,7,-1
 384 512 l 1,8,-1
 256 512 l 1,9,-1
 256 0 l 1,10,-1
 0 0 l 1,11,-1
 0 896 l 1,12,-1
 256 896 l 1,13,-1
 256 768 l 1,14,-1
 384 768 l 1,15,-1
 384 640 l 1,16,-1
 512 640 l 1,17,-1
 512 768 l 1,18,-1
 640 768 l 1,19,-1
 640 896 l 1,0,-1
EndSplineSet
EndChar

StartChar: N
Encoding: 78 78 49
Width: 1024
GlyphClass: 1
Flags: W
LayerCount: 2
Fore
SplineSet
640 896 m 1,0,-1
 896 896 l 1,1,-1
 896 0 l 1,2,-1
 640 0 l 1,3,-1
 640 384 l 1,4,-1
 512 384 l 1,5,-1
 512 512 l 1,6,-1
 384 512 l 1,7,-1
 384 0 l 1,8,-1
 128 0 l 1,9,-1
 128 896 l 1,10,-1
 384 896 l 1,11,-1
 384 768 l 1,12,-1
 512 768 l 1,13,-1
 512 640 l 1,14,-1
 640 640 l 1,15,-1
 640 896 l 1,0,-1
EndSplineSet
EndChar

StartChar: O
Encoding: 79 79 50
Width: 1024
GlyphClass: 1
Flags: W
LayerCount: 2
Fore
SplineSet
768 896 m 1,0,-1
 768 768 l 1,1,-1
 896 768 l 1,2,-1
 896 128 l 1,3,-1
 768 128 l 1,4,-1
 768 0 l 1,5,-1
 256 0 l 1,6,-1
 256 128 l 1,7,-1
 128 128 l 1,8,-1
 128 768 l 1,9,-1
 256 768 l 1,10,-1
 256 896 l 1,11,-1
 768 896 l 1,0,-1
384 128 m 1,12,-1
 640 128 l 1,13,-1
 640 768 l 1,14,-1
 384 768 l 1,15,-1
 384 128 l 1,12,-1
EndSplineSet
EndChar

StartChar: P
Encoding: 80 80 51
Width: 1024
GlyphClass: 1
Flags: W
LayerCount: 2
Fore
SplineSet
768 896 m 1,0,-1
 768 768 l 1,1,-1
 896 768 l 1,2,-1
 896 512 l 1,3,-1
 768 512 l 1,4,-1
 768 384 l 1,5,-1
 384 384 l 1,6,-1
 384 0 l 1,7,-1
 128 0 l 1,8,-1
 128 896 l 1,9,-1
 768 896 l 1,0,-1
384 512 m 1,10,-1
 640 512 l 1,11,-1
 640 768 l 1,12,-1
 384 768 l 1,13,-1
 384 512 l 1,10,-1
EndSplineSet
EndChar

StartChar: Q
Encoding: 81 81 52
Width: 1024
GlyphClass: 1
Flags: W
LayerCount: 2
Fore
SplineSet
768 896 m 1,0,-1
 768 768 l 1,1,-1
 896 768 l 1,2,-1
 896 128 l 1,3,-1
 768 128 l 1,4,-1
 768 0 l 1,5,-1
 896 0 l 1,6,-1
 896 -128 l 1,7,-1
 640 -128 l 1,8,-1
 640 0 l 1,9,-1
 256 0 l 1,10,-1
 256 128 l 1,11,-1
 128 128 l 1,12,-1
 128 768 l 1,13,-1
 256 768 l 1,14,-1
 256 896 l 1,15,-1
 768 896 l 1,0,-1
384 128 m 1,16,-1
 512 128 l 1,17,-1
 512 256 l 1,18,-1
 640 256 l 1,19,-1
 640 768 l 1,20,-1
 384 768 l 1,21,-1
 384 128 l 1,16,-1
EndSplineSet
EndChar

StartChar: R
Encoding: 82 82 53
Width: 1024
GlyphClass: 1
Flags: W
LayerCount: 2
Fore
SplineSet
768 896 m 1,0,-1
 768 768 l 1,1,-1
 896 768 l 1,2,-1
 896 512 l 1,3,-1
 768 512 l 1,4,-1
 768 384 l 1,5,-1
 896 384 l 1,6,-1
 896 0 l 1,7,-1
 640 0 l 1,8,-1
 640 384 l 1,9,-1
 384 384 l 1,10,-1
 384 0 l 1,11,-1
 128 0 l 1,12,-1
 128 896 l 1,13,-1
 768 896 l 1,0,-1
384 512 m 1,14,-1
 640 512 l 1,15,-1
 640 768 l 1,16,-1
 384 768 l 1,17,-1
 384 512 l 1,14,-1
EndSplineSet
EndChar

StartChar: S
Encoding: 83 83 54
Width: 1024
GlyphClass: 1
Flags: W
LayerCount: 2
Fore
SplineSet
896 640 m 1,0,-1
 640 640 l 1,1,-1
 640 768 l 1,2,-1
 384 768 l 1,3,-1
 384 512 l 1,4,-1
 768 512 l 1,5,-1
 768 384 l 1,6,-1
 896 384 l 1,7,-1
 896 128 l 1,8,-1
 768 128 l 1,9,-1
 768 0 l 1,10,-1
 256 0 l 1,11,-1
 256 128 l 1,12,-1
 128 128 l 1,13,-1
 128 256 l 1,14,-1
 384 256 l 1,15,-1
 384 128 l 1,16,-1
 640 128 l 1,17,-1
 640 384 l 1,18,-1
 256 384 l 1,19,-1
 256 512 l 1,20,-1
 128 512 l 1,21,-1
 128 768 l 1,22,-1
 256 768 l 1,23,-1
 256 896 l 1,24,-1
 768 896 l 1,25,-1
 768 768 l 1,26,-1
 896 768 l 1,27,-1
 896 640 l 1,0,-1
EndSplineSet
EndChar

StartChar: T
Encoding: 84 84 55
Width: 1024
GlyphClass: 1
Flags: W
LayerCount: 2
Fore
SplineSet
896 896 m 1,0,-1
 896 768 l 1,1,-1
 640 768 l 1,2,-1
 640 0 l 1,3,-1
 384 0 l 1,4,-1
 384 768 l 1,5,-1
 128 768 l 1,6,-1
 128 896 l 1,7,-1
 896 896 l 1,0,-1
EndSplineSet
EndChar

StartChar: U
Encoding: 85 85 56
Width: 1024
GlyphClass: 1
Flags: W
LayerCount: 2
Fore
SplineSet
640 896 m 1,0,-1
 896 896 l 1,1,-1
 896 128 l 1,2,-1
 768 128 l 1,3,-1
 768 0 l 1,4,-1
 256 0 l 1,5,-1
 256 128 l 1,6,-1
 128 128 l 1,7,-1
 128 896 l 1,8,-1
 384 896 l 1,9,-1
 384 128 l 1,10,-1
 640 128 l 1,11,-1
 640 896 l 1,0,-1
EndSplineSet
EndChar

StartChar: V
Encoding: 86 86 57
Width: 1024
GlyphClass: 1
Flags: W
LayerCount: 2
Fore
SplineSet
640 896 m 1,0,-1
 896 896 l 1,1,-1
 896 256 l 1,2,-1
 768 256 l 1,3,-1
 768 128 l 1,4,-1
 640 128 l 1,5,-1
 640 0 l 1,6,-1
 384 0 l 1,7,-1
 384 128 l 1,8,-1
 256 128 l 1,9,-1
 256 256 l 1,10,-1
 128 256 l 1,11,-1
 128 896 l 1,12,-1
 384 896 l 1,13,-1
 384 256 l 1,14,-1
 640 256 l 1,15,-1
 640 896 l 1,0,-1
EndSplineSet
EndChar

StartChar: W
Encoding: 87 87 58
Width: 1024
GlyphClass: 1
Flags: W
LayerCount: 2
Fore
SplineSet
640 896 m 1,0,-1
 896 896 l 1,1,-1
 896 256 l 1,2,-1
 768 256 l 1,3,-1
 768 0 l 1,4,-1
 512 0 l 1,5,-1
 512 128 l 1,6,-1
 384 128 l 1,7,-1
 384 0 l 1,8,-1
 128 0 l 1,9,-1
 128 256 l 1,10,-1
 0 256 l 1,11,-1
 0 896 l 1,12,-1
 256 896 l 1,13,-1
 256 256 l 1,14,-1
 384 256 l 1,15,-1
 384 512 l 1,16,-1
 512 512 l 1,17,-1
 512 256 l 1,18,-1
 640 256 l 1,19,-1
 640 896 l 1,0,-1
EndSplineSet
EndChar

StartChar: X
Encoding: 88 88 59
Width: 1024
GlyphClass: 1
Flags: W
LayerCount: 2
Fore
SplineSet
640 896 m 1,0,-1
 896 896 l 1,1,-1
 896 640 l 1,2,-1
 768 640 l 1,3,-1
 768 512 l 1,4,-1
 640 512 l 1,5,-1
 640 384 l 1,6,-1
 768 384 l 1,7,-1
 768 256 l 1,8,-1
 896 256 l 1,9,-1
 896 0 l 1,10,-1
 640 0 l 1,11,-1
 640 256 l 1,12,-1
 384 256 l 1,13,-1
 384 0 l 1,14,-1
 128 0 l 1,15,-1
 128 256 l 1,16,-1
 256 256 l 1,17,-1
 256 384 l 1,18,-1
 384 384 l 1,19,-1
 384 512 l 1,20,-1
 256 512 l 1,21,-1
 256 640 l 1,22,-1
 128 640 l 1,23,-1
 128 896 l 1,24,-1
 384 896 l 1,25,-1
 384 640 l 1,26,-1
 640 640 l 1,27,-1
 640 896 l 1,0,-1
EndSplineSet
EndChar

StartChar: Y
Encoding: 89 89 60
Width: 1024
GlyphClass: 1
Flags: W
LayerCount: 2
Fore
SplineSet
640 896 m 1,0,-1
 896 896 l 1,1,-1
 896 512 l 1,2,-1
 768 512 l 1,3,-1
 768 384 l 1,4,-1
 640 384 l 1,5,-1
 640 0 l 1,6,-1
 384 0 l 1,7,-1
 384 384 l 1,8,-1
 256 384 l 1,9,-1
 256 512 l 1,10,-1
 128 512 l 1,11,-1
 128 896 l 1,12,-1
 384 896 l 1,13,-1
 384 512 l 1,14,-1
 640 512 l 1,15,-1
 640 896 l 1,0,-1
EndSplineSet
EndChar

StartChar: Z
Encoding: 90 90 61
Width: 1024
GlyphClass: 1
Flags: W
LayerCount: 2
Fore
SplineSet
896 896 m 1,0,-1
 896 640 l 1,1,-1
 768 640 l 1,2,-1
 768 512 l 1,3,-1
 640 512 l 1,4,-1
 640 384 l 1,5,-1
 512 384 l 1,6,-1
 512 256 l 1,7,-1
 384 256 l 1,8,-1
 384 128 l 1,9,-1
 896 128 l 1,10,-1
 896 0 l 1,11,-1
 128 0 l 1,12,-1
 128 256 l 1,13,-1
 256 256 l 1,14,-1
 256 384 l 1,15,-1
 384 384 l 1,16,-1
 384 512 l 1,17,-1
 512 512 l 1,18,-1
 512 640 l 1,19,-1
 640 640 l 1,20,-1
 640 768 l 1,21,-1
 128 768 l 1,22,-1
 128 896 l 1,23,-1
 896 896 l 1,0,-1
EndSplineSet
EndChar

StartChar: bracketleft
Encoding: 91 91 62
Width: 1024
GlyphClass: 1
Flags: W
LayerCount: 2
Fore
SplineSet
512 128 m 1,0,-1
 768 128 l 1,1,-1
 768 0 l 1,2,-1
 256 0 l 1,3,-1
 256 896 l 1,4,-1
 768 896 l 1,5,-1
 768 768 l 1,6,-1
 512 768 l 1,7,-1
 512 128 l 1,0,-1
EndSplineSet
EndChar

StartChar: backslash
Encoding: 92 92 63
Width: 1024
GlyphClass: 1
Flags: W
LayerCount: 2
Fore
SplineSet
768 384 m 1,0,-1
 768 256 l 1,1,-1
 896 256 l 1,2,-1
 896 0 l 1,3,-1
 768 0 l 1,4,-1
 768 128 l 1,5,-1
 640 128 l 1,6,-1
 640 256 l 1,7,-1
 512 256 l 1,8,-1
 512 384 l 1,9,-1
 384 384 l 1,10,-1
 384 512 l 1,11,-1
 256 512 l 1,12,-1
 256 640 l 1,13,-1
 128 640 l 1,14,-1
 128 896 l 1,15,-1
 256 896 l 1,16,-1
 256 768 l 1,17,-1
 384 768 l 1,18,-1
 384 640 l 1,19,-1
 512 640 l 1,20,-1
 512 512 l 1,21,-1
 640 512 l 1,22,-1
 640 384 l 1,23,-1
 768 384 l 1,0,-1
EndSplineSet
EndChar

StartChar: bracketright
Encoding: 93 93 64
Width: 1024
GlyphClass: 1
Flags: W
LayerCount: 2
Fore
SplineSet
768 896 m 1,0,-1
 768 0 l 1,1,-1
 256 0 l 1,2,-1
 256 128 l 1,3,-1
 512 128 l 1,4,-1
 512 768 l 1,5,-1
 256 768 l 1,6,-1
 256 896 l 1,7,-1
 768 896 l 1,0,-1
EndSplineSet
EndChar

StartChar: asciicircum
Encoding: 94 94 65
Width: 1024
GlyphClass: 1
Flags: W
LayerCount: 2
Fore
SplineSet
768 768 m 1,0,-1
 768 640 l 1,1,-1
 896 640 l 1,2,-1
 896 512 l 1,3,-1
 640 512 l 1,4,-1
 640 640 l 1,5,-1
 384 640 l 1,6,-1
 384 512 l 1,7,-1
 128 512 l 1,8,-1
 128 640 l 1,9,-1
 256 640 l 1,10,-1
 256 768 l 1,11,-1
 384 768 l 1,12,-1
 384 896 l 1,13,-1
 640 896 l 1,14,-1
 640 768 l 1,15,-1
 768 768 l 1,0,-1
EndSplineSet
EndChar

StartChar: underscore
Encoding: 95 95 66
Width: 1024
GlyphClass: 1
Flags: W
LayerCount: 2
Fore
SplineSet
1024 0 m 1,0,-1
 1024 -128 l 1,1,-1
 0 -128 l 1,2,-1
 0 0 l 1,3,-1
 1024 0 l 1,0,-1
EndSplineSet
EndChar

StartChar: grave
Encoding: 96 96 67
Width: 1024
GlyphClass: 1
Flags: W
LayerCount: 2
Fore
SplineSet
512 768 m 1,0,-1
 384 768 l 1,1,-1
 384 896 l 1,2,-1
 512 896 l 1,3,-1
 512 768 l 1,0,-1
640 640 m 1,4,-1
 512 640 l 1,5,-1
 512 768 l 1,6,-1
 640 768 l 1,7,-1
 640 640 l 1,4,-1
EndSplineSet
EndChar

StartChar: a
Encoding: 97 97 68
Width: 1024
GlyphClass: 1
Flags: W
LayerCount: 2
Fore
SplineSet
768 640 m 1,0,-1
 768 512 l 1,1,-1
 896 512 l 1,2,-1
 896 0 l 1,3,-1
 256 0 l 1,4,-1
 256 128 l 1,5,-1
 128 128 l 1,6,-1
 128 256 l 1,7,-1
 256 256 l 1,8,-1
 256 384 l 1,9,-1
 640 384 l 1,10,-1
 640 512 l 1,11,-1
 256 512 l 1,12,-1
 256 640 l 1,13,-1
 768 640 l 1,0,-1
384 128 m 1,14,-1
 640 128 l 1,15,-1
 640 256 l 1,16,-1
 384 256 l 1,17,-1
 384 128 l 1,14,-1
EndSplineSet
EndChar

StartChar: b
Encoding: 98 98 69
Width: 1024
GlyphClass: 1
Flags: W
LayerCount: 2
Fore
SplineSet
768 640 m 1,0,-1
 768 512 l 1,1,-1
 896 512 l 1,2,-1
 896 128 l 1,3,-1
 768 128 l 1,4,-1
 768 0 l 1,5,-1
 128 0 l 1,6,-1
 128 896 l 1,7,-1
 384 896 l 1,8,-1
 384 640 l 1,9,-1
 768 640 l 1,0,-1
384 128 m 1,10,-1
 640 128 l 1,11,-1
 640 512 l 1,12,-1
 384 512 l 1,13,-1
 384 128 l 1,10,-1
EndSplineSet
EndChar

StartChar: c
Encoding: 99 99 70
Width: 1024
GlyphClass: 1
Flags: W
LayerCount: 2
Fore
SplineSet
896 384 m 1,0,-1
 640 384 l 1,1,-1
 640 512 l 1,2,-1
 384 512 l 1,3,-1
 384 128 l 1,4,-1
 640 128 l 1,5,-1
 640 256 l 1,6,-1
 896 256 l 1,7,-1
 896 128 l 1,8,-1
 768 128 l 1,9,-1
 768 0 l 1,10,-1
 256 0 l 1,11,-1
 256 128 l 1,12,-1
 128 128 l 1,13,-1
 128 512 l 1,14,-1
 256 512 l 1,15,-1
 256 640 l 1,16,-1
 768 640 l 1,17,-1
 768 512 l 1,18,-1
 896 512 l 1,19,-1
 896 384 l 1,0,-1
EndSplineSet
EndChar

StartChar: d
Encoding: 100 100 71
Width: 1024
GlyphClass: 1
Flags: W
LayerCount: 2
Fore
SplineSet
640 896 m 1,0,-1
 896 896 l 1,1,-1
 896 0 l 1,2,-1
 256 0 l 1,3,-1
 256 128 l 1,4,-1
 128 128 l 1,5,-1
 128 512 l 1,6,-1
 256 512 l 1,7,-1
 256 640 l 1,8,-1
 640 640 l 1,9,-1
 640 896 l 1,0,-1
384 128 m 1,10,-1
 640 128 l 1,11,-1
 640 512 l 1,12,-1
 384 512 l 1,13,-1
 384 128 l 1,10,-1
EndSplineSet
EndChar

StartChar: e
Encoding: 101 101 72
Width: 1024
GlyphClass: 1
Flags: W
LayerCount: 2
Fore
SplineSet
768 640 m 1,0,-1
 768 512 l 1,1,-1
 896 512 l 1,2,-1
 896 256 l 1,3,-1
 384 256 l 1,4,-1
 384 128 l 1,5,-1
 768 128 l 1,6,-1
 768 0 l 1,7,-1
 256 0 l 1,8,-1
 256 128 l 1,9,-1
 128 128 l 1,10,-1
 128 512 l 1,11,-1
 256 512 l 1,12,-1
 256 640 l 1,13,-1
 768 640 l 1,0,-1
384 384 m 1,14,-1
 640 384 l 1,15,-1
 640 512 l 1,16,-1
 384 512 l 1,17,-1
 384 384 l 1,14,-1
EndSplineSet
EndChar

StartChar: f
Encoding: 102 102 73
Width: 1024
GlyphClass: 1
Flags: W
LayerCount: 2
Fore
SplineSet
1024 896 m 1,0,-1
 1024 768 l 1,1,-1
 640 768 l 1,2,-1
 640 512 l 1,3,-1
 896 512 l 1,4,-1
 896 384 l 1,5,-1
 640 384 l 1,6,-1
 640 0 l 1,7,-1
 384 0 l 1,8,-1
 384 384 l 1,9,-1
 256 384 l 1,10,-1
 256 512 l 1,11,-1
 384 512 l 1,12,-1
 384 768 l 1,13,-1
 512 768 l 1,14,-1
 512 896 l 1,15,-1
 1024 896 l 1,0,-1
EndSplineSet
EndChar

StartChar: g
Encoding: 103 103 74
Width: 1024
GlyphClass: 1
Flags: W
LayerCount: 2
Fore
SplineSet
896 640 m 1,0,-1
 896 0 l 1,1,-1
 768 0 l 1,2,-1
 768 -128 l 1,3,-1
 256 -128 l 1,4,-1
 256 0 l 1,5,-1
 640 0 l 1,6,-1
 640 128 l 1,7,-1
 256 128 l 1,8,-1
 256 256 l 1,9,-1
 128 256 l 1,10,-1
 128 512 l 1,11,-1
 256 512 l 1,12,-1
 256 640 l 1,13,-1
 896 640 l 1,0,-1
384 256 m 1,14,-1
 640 256 l 1,15,-1
 640 512 l 1,16,-1
 384 512 l 1,17,-1
 384 256 l 1,14,-1
EndSplineSet
EndChar

StartChar: h
Encoding: 104 104 75
Width: 1024
GlyphClass: 1
Flags: W
LayerCount: 2
Fore
SplineSet
768 640 m 1,0,-1
 768 512 l 1,1,-1
 896 512 l 1,2,-1
 896 0 l 1,3,-1
 640 0 l 1,4,-1
 640 512 l 1,5,-1
 384 512 l 1,6,-1
 384 0 l 1,7,-1
 128 0 l 1,8,-1
 128 896 l 1,9,-1
 384 896 l 1,10,-1
 384 640 l 1,11,-1
 768 640 l 1,0,-1
EndSplineSet
EndChar

StartChar: i
Encoding: 105 105 76
Width: 1024
GlyphClass: 1
Flags: W
LayerCount: 2
Fore
SplineSet
640 896 m 1,0,-1
 640 768 l 1,1,-1
 384 768 l 1,2,-1
 384 896 l 1,3,-1
 640 896 l 1,0,-1
640 128 m 1,4,-1
 768 128 l 1,5,-1
 768 0 l 1,6,-1
 512 0 l 1,7,-1
 512 128 l 1,8,-1
 384 128 l 1,9,-1
 384 640 l 1,10,-1
 640 640 l 1,11,-1
 640 128 l 1,4,-1
EndSplineSet
EndChar

StartChar: j
Encoding: 106 106 77
Width: 1024
GlyphClass: 1
Flags: W
LayerCount: 2
Fore
SplineSet
640 896 m 1,0,-1
 896 896 l 1,1,-1
 896 768 l 1,2,-1
 640 768 l 1,3,-1
 640 896 l 1,0,-1
512 640 m 1,4,-1
 896 640 l 1,5,-1
 896 0 l 1,6,-1
 768 0 l 1,7,-1
 768 -128 l 1,8,-1
 256 -128 l 1,9,-1
 256 0 l 1,10,-1
 640 0 l 1,11,-1
 640 512 l 1,12,-1
 512 512 l 1,13,-1
 512 640 l 1,4,-1
EndSplineSet
EndChar

StartChar: k
Encoding: 107 107 78
Width: 1024
GlyphClass: 1
Flags: W
LayerCount: 2
Fore
SplineSet
768 512 m 1,0,-1
 768 384 l 1,1,-1
 640 384 l 1,2,-1
 640 256 l 1,3,-1
 768 256 l 1,4,-1
 768 128 l 1,5,-1
 896 128 l 1,6,-1
 896 0 l 1,7,-1
 640 0 l 1,8,-1
 640 128 l 1,9,-1
 512 128 l 1,10,-1
 512 256 l 1,11,-1
 384 256 l 1,12,-1
 384 0 l 1,13,-1
 128 0 l 1,14,-1
 128 896 l 1,15,-1
 384 896 l 1,16,-1
 384 384 l 1,17,-1
 512 384 l 1,18,-1
 512 512 l 1,19,-1
 640 512 l 1,20,-1
 640 640 l 1,21,-1
 896 640 l 1,22,-1
 896 512 l 1,23,-1
 768 512 l 1,0,-1
EndSplineSet
EndChar

StartChar: l
Encoding: 108 108 79
Width: 1024
GlyphClass: 1
Flags: W
LayerCount: 2
Fore
SplineSet
640 128 m 1,0,-1
 768 128 l 1,1,-1
 768 0 l 1,2,-1
 512 0 l 1,3,-1
 512 128 l 1,4,-1
 384 128 l 1,5,-1
 384 896 l 1,6,-1
 640 896 l 1,7,-1
 640 128 l 1,0,-1
EndSplineSet
EndChar

StartChar: m
Encoding: 109 109 80
Width: 1024
GlyphClass: 1
Flags: W
LayerCount: 2
Fore
SplineSet
768 640 m 1,0,-1
 768 512 l 1,1,-1
 896 512 l 1,2,-1
 896 0 l 1,3,-1
 640 0 l 1,4,-1
 640 384 l 1,5,-1
 512 384 l 1,6,-1
 512 0 l 1,7,-1
 384 0 l 1,8,-1
 384 384 l 1,9,-1
 256 384 l 1,10,-1
 256 0 l 1,11,-1
 0 0 l 1,12,-1
 0 640 l 1,13,-1
 384 640 l 1,14,-1
 384 512 l 1,15,-1
 512 512 l 1,16,-1
 512 640 l 1,17,-1
 768 640 l 1,0,-1
EndSplineSet
EndChar

StartChar: n
Encoding: 110 110 81
Width: 1024
GlyphClass: 1
Flags: W
LayerCount: 2
Fore
SplineSet
768 640 m 1,0,-1
 768 512 l 1,1,-1
 896 512 l 1,2,-1
 896 0 l 1,3,-1
 640 0 l 1,4,-1
 640 512 l 1,5,-1
 384 512 l 1,6,-1
 384 0 l 1,7,-1
 128 0 l 1,8,-1
 128 640 l 1,9,-1
 768 640 l 1,0,-1
EndSplineSet
EndChar

StartChar: o
Encoding: 111 111 82
Width: 1024
GlyphClass: 1
Flags: W
LayerCount: 2
Fore
SplineSet
768 640 m 1,0,-1
 768 512 l 1,1,-1
 896 512 l 1,2,-1
 896 128 l 1,3,-1
 768 128 l 1,4,-1
 768 0 l 1,5,-1
 256 0 l 1,6,-1
 256 128 l 1,7,-1
 128 128 l 1,8,-1
 128 512 l 1,9,-1
 256 512 l 1,10,-1
 256 640 l 1,11,-1
 768 640 l 1,0,-1
384 128 m 1,12,-1
 640 128 l 1,13,-1
 640 512 l 1,14,-1
 384 512 l 1,15,-1
 384 128 l 1,12,-1
EndSplineSet
EndChar

StartChar: p
Encoding: 112 112 83
Width: 1024
GlyphClass: 1
Flags: W
LayerCount: 2
Fore
SplineSet
768 640 m 1,0,-1
 768 512 l 1,1,-1
 896 512 l 1,2,-1
 896 256 l 1,3,-1
 768 256 l 1,4,-1
 768 128 l 1,5,-1
 384 128 l 1,6,-1
 384 -128 l 1,7,-1
 128 -128 l 1,8,-1
 128 640 l 1,9,-1
 768 640 l 1,0,-1
384 256 m 1,10,-1
 640 256 l 1,11,-1
 640 512 l 1,12,-1
 384 512 l 1,13,-1
 384 256 l 1,10,-1
EndSplineSet
EndChar

StartChar: q
Encoding: 113 113 84
Width: 1024
GlyphClass: 1
Flags: W
LayerCount: 2
Fore
SplineSet
768 640 m 1,0,-1
 768 512 l 1,1,-1
 896 512 l 1,2,-1
 896 -128 l 1,3,-1
 640 -128 l 1,4,-1
 640 128 l 1,5,-1
 256 128 l 1,6,-1
 256 256 l 1,7,-1
 128 256 l 1,8,-1
 128 512 l 1,9,-1
 256 512 l 1,10,-1
 256 640 l 1,11,-1
 768 640 l 1,0,-1
384 256 m 1,12,-1
 640 256 l 1,13,-1
 640 512 l 1,14,-1
 384 512 l 1,15,-1
 384 256 l 1,12,-1
EndSplineSet
EndChar

StartChar: r
Encoding: 114 114 85
Width: 1024
GlyphClass: 1
Flags: W
LayerCount: 2
Fore
SplineSet
768 640 m 1,0,-1
 768 512 l 1,1,-1
 896 512 l 1,2,-1
 896 384 l 1,3,-1
 640 384 l 1,4,-1
 640 512 l 1,5,-1
 384 512 l 1,6,-1
 384 0 l 1,7,-1
 128 0 l 1,8,-1
 128 640 l 1,9,-1
 768 640 l 1,0,-1
EndSplineSet
EndChar

StartChar: s
Encoding: 115 115 86
Width: 1024
GlyphClass: 1
Flags: W
LayerCount: 2
Fore
SplineSet
384 512 m 1,0,-1
 384 384 l 1,1,-1
 768 384 l 1,2,-1
 768 256 l 1,3,-1
 896 256 l 1,4,-1
 896 128 l 1,5,-1
 768 128 l 1,6,-1
 768 0 l 1,7,-1
 128 0 l 1,8,-1
 128 128 l 1,9,-1
 640 128 l 1,10,-1
 640 256 l 1,11,-1
 256 256 l 1,12,-1
 256 384 l 1,13,-1
 128 384 l 1,14,-1
 128 512 l 1,15,-1
 256 512 l 1,16,-1
 256 640 l 1,17,-1
 896 640 l 1,18,-1
 896 512 l 1,19,-1
 384 512 l 1,0,-1
EndSplineSet
EndChar

StartChar: t
Encoding: 116 116 87
Width: 1024
GlyphClass: 1
Flags: W
LayerCount: 2
Fore
SplineSet
640 512 m 1,0,-1
 640 128 l 1,1,-1
 896 128 l 1,2,-1
 896 0 l 1,3,-1
 512 0 l 1,4,-1
 512 128 l 1,5,-1
 384 128 l 1,6,-1
 384 512 l 1,7,-1
 128 512 l 1,8,-1
 128 640 l 1,9,-1
 384 640 l 1,10,-1
 384 896 l 1,11,-1
 640 896 l 1,12,-1
 640 640 l 1,13,-1
 896 640 l 1,14,-1
 896 512 l 1,15,-1
 640 512 l 1,0,-1
EndSplineSet
EndChar

StartChar: u
Encoding: 117 117 88
Width: 1024
GlyphClass: 1
Flags: W
LayerCount: 2
Fore
SplineSet
640 640 m 1,0,-1
 896 640 l 1,1,-1
 896 0 l 1,2,-1
 256 0 l 1,3,-1
 256 128 l 1,4,-1
 128 128 l 1,5,-1
 128 640 l 1,6,-1
 384 640 l 1,7,-1
 384 128 l 1,8,-1
 640 128 l 1,9,-1
 640 640 l 1,0,-1
EndSplineSet
EndChar

StartChar: v
Encoding: 118 118 89
Width: 1024
GlyphClass: 1
Flags: W
LayerCount: 2
Fore
SplineSet
640 640 m 1,0,-1
 896 640 l 1,1,-1
 896 256 l 1,2,-1
 768 256 l 1,3,-1
 768 128 l 1,4,-1
 640 128 l 1,5,-1
 640 0 l 1,6,-1
 384 0 l 1,7,-1
 384 128 l 1,8,-1
 256 128 l 1,9,-1
 256 256 l 1,10,-1
 128 256 l 1,11,-1
 128 640 l 1,12,-1
 384 640 l 1,13,-1
 384 256 l 1,14,-1
 640 256 l 1,15,-1
 640 640 l 1,0,-1
EndSplineSet
EndChar

StartChar: w
Encoding: 119 119 90
Width: 1024
GlyphClass: 1
Flags: W
LayerCount: 2
Fore
SplineSet
256 128 m 1,0,-1
 384 128 l 1,1,-1
 384 0 l 1,2,-1
 128 0 l 1,3,-1
 128 128 l 1,4,-1
 0 128 l 1,5,-1
 0 640 l 1,6,-1
 256 640 l 1,7,-1
 256 128 l 1,0,-1
640 640 m 1,8,-1
 896 640 l 1,9,-1
 896 128 l 1,10,-1
 768 128 l 1,11,-1
 768 0 l 1,12,-1
 512 0 l 1,13,-1
 512 128 l 1,14,-1
 640 128 l 1,15,-1
 640 640 l 1,8,-1
384 384 m 1,16,-1
 512 384 l 1,17,-1
 512 128 l 1,18,-1
 384 128 l 1,19,-1
 384 384 l 1,16,-1
EndSplineSet
EndChar

StartChar: x
Encoding: 120 120 91
Width: 1024
GlyphClass: 1
Flags: W
LayerCount: 2
Fore
SplineSet
768 512 m 1,0,-1
 768 384 l 1,1,-1
 640 384 l 1,2,-1
 640 256 l 1,3,-1
 768 256 l 1,4,-1
 768 128 l 1,5,-1
 896 128 l 1,6,-1
 896 0 l 1,7,-1
 640 0 l 1,8,-1
 640 128 l 1,9,-1
 384 128 l 1,10,-1
 384 0 l 1,11,-1
 128 0 l 1,12,-1
 128 128 l 1,13,-1
 256 128 l 1,14,-1
 256 256 l 1,15,-1
 384 256 l 1,16,-1
 384 384 l 1,17,-1
 256 384 l 1,18,-1
 256 512 l 1,19,-1
 128 512 l 1,20,-1
 128 640 l 1,21,-1
 384 640 l 1,22,-1
 384 512 l 1,23,-1
 640 512 l 1,24,-1
 640 640 l 1,25,-1
 896 640 l 1,26,-1
 896 512 l 1,27,-1
 768 512 l 1,0,-1
EndSplineSet
EndChar

StartChar: y
Encoding: 121 121 92
Width: 1024
GlyphClass: 1
Flags: W
LayerCount: 2
Fore
SplineSet
640 640 m 1,0,-1
 896 640 l 1,1,-1
 896 0 l 1,2,-1
 768 0 l 1,3,-1
 768 -128 l 1,4,-1
 256 -128 l 1,5,-1
 256 0 l 1,6,-1
 640 0 l 1,7,-1
 640 128 l 1,8,-1
 256 128 l 1,9,-1
 256 256 l 1,10,-1
 128 256 l 1,11,-1
 128 640 l 1,12,-1
 384 640 l 1,13,-1
 384 256 l 1,14,-1
 640 256 l 1,15,-1
 640 640 l 1,0,-1
EndSplineSet
EndChar

StartChar: z
Encoding: 122 122 93
Width: 1024
GlyphClass: 1
Flags: W
LayerCount: 2
Fore
SplineSet
640 384 m 1,0,-1
 640 256 l 1,1,-1
 512 256 l 1,2,-1
 512 128 l 1,3,-1
 896 128 l 1,4,-1
 896 0 l 1,5,-1
 128 0 l 1,6,-1
 128 128 l 1,7,-1
 256 128 l 1,8,-1
 256 256 l 1,9,-1
 384 256 l 1,10,-1
 384 384 l 1,11,-1
 512 384 l 1,12,-1
 512 512 l 1,13,-1
 128 512 l 1,14,-1
 128 640 l 1,15,-1
 896 640 l 1,16,-1
 896 512 l 1,17,-1
 768 512 l 1,18,-1
 768 384 l 1,19,-1
 640 384 l 1,0,-1
EndSplineSet
EndChar

StartChar: braceleft
Encoding: 123 123 94
Width: 1024
GlyphClass: 1
Flags: W
LayerCount: 2
Fore
SplineSet
640 512 m 1,0,-1
 512 512 l 1,1,-1
 512 384 l 1,2,-1
 640 384 l 1,3,-1
 640 128 l 1,4,-1
 768 128 l 1,5,-1
 768 0 l 1,6,-1
 512 0 l 1,7,-1
 512 128 l 1,8,-1
 384 128 l 1,9,-1
 384 384 l 1,10,-1
 256 384 l 1,11,-1
 256 512 l 1,12,-1
 384 512 l 1,13,-1
 384 768 l 1,14,-1
 512 768 l 1,15,-1
 512 896 l 1,16,-1
 768 896 l 1,17,-1
 768 768 l 1,18,-1
 640 768 l 1,19,-1
 640 512 l 1,0,-1
EndSplineSet
EndChar

StartChar: bar
Encoding: 124 124 95
Width: 1024
GlyphClass: 1
Flags: W
LayerCount: 2
Fore
SplineSet
384 896 m 1,0,-1
 640 896 l 1,1,-1
 640 -128 l 1,2,-1
 384 -128 l 1,3,-1
 384 896 l 1,0,-1
EndSplineSet
EndChar

StartChar: braceright
Encoding: 125 125 96
Width: 1024
GlyphClass: 1
Flags: W
LayerCount: 2
Fore
SplineSet
640 512 m 1,0,-1
 768 512 l 1,1,-1
 768 384 l 1,2,-1
 640 384 l 1,3,-1
 640 128 l 1,4,-1
 512 128 l 1,5,-1
 512 0 l 1,6,-1
 256 0 l 1,7,-1
 256 128 l 1,8,-1
 384 128 l 1,9,-1
 384 384 l 1,10,-1
 512 384 l 1,11,-1
 512 512 l 1,12,-1
 384 512 l 1,13,-1
 384 768 l 1,14,-1
 256 768 l 1,15,-1
 256 896 l 1,16,-1
 512 896 l 1,17,-1
 512 768 l 1,18,-1
 640 768 l 1,19,-1
 640 512 l 1,0,-1
EndSplineSet
EndChar

StartChar: asciitilde
Encoding: 126 126 97
Width: 1024
GlyphClass: 1
Flags: W
LayerCount: 2
Fore
SplineSet
768 256 m 1,0,-1
 768 384 l 1,1,-1
 896 384 l 1,2,-1
 896 128 l 1,3,-1
 512 128 l 1,4,-1
 512 256 l 1,5,-1
 384 256 l 1,6,-1
 384 128 l 1,7,-1
 128 128 l 1,8,-1
 128 256 l 1,9,-1
 256 256 l 1,10,-1
 256 384 l 1,11,-1
 640 384 l 1,12,-1
 640 256 l 1,13,-1
 768 256 l 1,0,-1
EndSplineSet
EndChar

StartChar: exclamdown
Encoding: 161 161 99
Width: 1024
GlyphClass: 1
Flags: W
LayerCount: 2
Fore
SplineSet
384 768 m 1,0,-1
 640 768 l 1,1,-1
 640 640 l 1,2,-1
 384 640 l 1,3,-1
 384 768 l 1,0,-1
384 512 m 1,4,-1
 640 512 l 1,5,-1
 640 -128 l 1,6,-1
 384 -128 l 1,7,-1
 384 512 l 1,4,-1
EndSplineSet
EndChar

StartChar: cent
Encoding: 162 162 100
Width: 1024
GlyphClass: 1
Flags: W
LayerCount: 2
Fore
SplineSet
640 512 m 1,0,-1
 640 128 l 1,1,-1
 896 128 l 1,2,-1
 896 0 l 1,3,-1
 640 0 l 1,4,-1
 640 -128 l 1,5,-1
 512 -128 l 1,6,-1
 512 0 l 1,7,-1
 256 0 l 1,8,-1
 256 128 l 1,9,-1
 128 128 l 1,10,-1
 128 512 l 1,11,-1
 256 512 l 1,12,-1
 256 640 l 1,13,-1
 512 640 l 1,14,-1
 512 768 l 1,15,-1
 640 768 l 1,16,-1
 640 640 l 1,17,-1
 896 640 l 1,18,-1
 896 512 l 1,19,-1
 640 512 l 1,0,-1
384 128 m 1,20,-1
 512 128 l 1,21,-1
 512 512 l 1,22,-1
 384 512 l 1,23,-1
 384 128 l 1,20,-1
EndSplineSet
EndChar

StartChar: sterling
Encoding: 163 163 101
Width: 1024
GlyphClass: 1
Flags: W
LayerCount: 2
Fore
SplineSet
896 640 m 1,0,-1
 640 640 l 1,1,-1
 640 768 l 1,2,-1
 384 768 l 1,3,-1
 384 512 l 1,4,-1
 640 512 l 1,5,-1
 640 384 l 1,6,-1
 384 384 l 1,7,-1
 384 128 l 1,8,-1
 896 128 l 1,9,-1
 896 0 l 1,10,-1
 0 0 l 1,11,-1
 0 128 l 1,12,-1
 128 128 l 1,13,-1
 128 384 l 1,14,-1
 0 384 l 1,15,-1
 0 512 l 1,16,-1
 128 512 l 1,17,-1
 128 768 l 1,18,-1
 256 768 l 1,19,-1
 256 896 l 1,20,-1
 768 896 l 1,21,-1
 768 768 l 1,22,-1
 896 768 l 1,23,-1
 896 640 l 1,0,-1
EndSplineSet
EndChar

StartChar: currency
Encoding: 164 164 102
Width: 1024
GlyphClass: 1
Flags: W
LayerCount: 2
Fore
SplineSet
128 640 m 1,0,-1
 128 768 l 1,1,-1
 256 768 l 1,2,-1
 256 640 l 1,3,-1
 128 640 l 1,0,-1
640 768 m 1,4,-1
 768 768 l 1,5,-1
 768 640 l 1,6,-1
 640 640 l 1,7,-1
 640 768 l 1,4,-1
640 640 m 1,8,-1
 640 512 l 1,9,-1
 768 512 l 1,10,-1
 768 384 l 1,11,-1
 640 384 l 1,12,-1
 640 256 l 1,13,-1
 256 256 l 1,14,-1
 256 384 l 1,15,-1
 128 384 l 1,16,-1
 128 512 l 1,17,-1
 256 512 l 1,18,-1
 256 640 l 1,19,-1
 640 640 l 1,8,-1
384 384 m 1,20,-1
 512 384 l 1,21,-1
 512 512 l 1,22,-1
 384 512 l 1,23,-1
 384 384 l 1,20,-1
256 128 m 1,24,-1
 128 128 l 1,25,-1
 128 256 l 1,26,-1
 256 256 l 1,27,-1
 256 128 l 1,24,-1
768 256 m 1,28,-1
 768 128 l 1,29,-1
 640 128 l 1,30,-1
 640 256 l 1,31,-1
 768 256 l 1,28,-1
EndSplineSet
EndChar

StartChar: yen
Encoding: 165 165 103
Width: 1024
GlyphClass: 1
Flags: W
LayerCount: 2
Fore
SplineSet
640 896 m 1,0,-1
 896 896 l 1,1,-1
 896 640 l 1,2,-1
 768 640 l 1,3,-1
 768 512 l 1,4,-1
 640 512 l 1,5,-1
 640 384 l 1,6,-1
 768 384 l 1,7,-1
 768 256 l 1,8,-1
 640 256 l 1,9,-1
 640 0 l 1,10,-1
 384 0 l 1,11,-1
 384 256 l 1,12,-1
 256 256 l 1,13,-1
 256 384 l 1,14,-1
 384 384 l 1,15,-1
 384 512 l 1,16,-1
 256 512 l 1,17,-1
 256 640 l 1,18,-1
 128 640 l 1,19,-1
 128 896 l 1,20,-1
 384 896 l 1,21,-1
 384 640 l 1,22,-1
 640 640 l 1,23,-1
 640 896 l 1,0,-1
EndSplineSet
EndChar

StartChar: brokenbar
Encoding: 166 166 104
Width: 1024
GlyphClass: 1
Flags: W
LayerCount: 2
Fore
SplineSet
384 896 m 1,0,-1
 640 896 l 1,1,-1
 640 512 l 1,2,-1
 384 512 l 1,3,-1
 384 896 l 1,0,-1
384 256 m 1,4,-1
 640 256 l 1,5,-1
 640 -128 l 1,6,-1
 384 -128 l 1,7,-1
 384 256 l 1,4,-1
EndSplineSet
EndChar

StartChar: section
Encoding: 167 167 105
Width: 1024
GlyphClass: 1
Flags: W
LayerCount: 2
Fore
SplineSet
384 768 m 1,0,-1
 384 640 l 1,1,-1
 640 640 l 1,2,-1
 640 512 l 1,3,-1
 768 512 l 1,4,-1
 768 128 l 1,5,-1
 640 128 l 1,6,-1
 640 0 l 1,7,-1
 128 0 l 1,8,-1
 128 128 l 1,9,-1
 512 128 l 1,10,-1
 512 256 l 1,11,-1
 256 256 l 1,12,-1
 256 384 l 1,13,-1
 128 384 l 1,14,-1
 128 768 l 1,15,-1
 256 768 l 1,16,-1
 256 896 l 1,17,-1
 768 896 l 1,18,-1
 768 768 l 1,19,-1
 384 768 l 1,0,-1
512 384 m 1,20,-1
 512 512 l 1,21,-1
 384 512 l 1,22,-1
 384 384 l 1,23,-1
 512 384 l 1,20,-1
EndSplineSet
EndChar

StartChar: dieresis
Encoding: 168 168 106
Width: 1024
GlyphClass: 1
Flags: W
LayerCount: 2
Fore
SplineSet
384 768 m 1,0,-1
 256 768 l 1,1,-1
 256 896 l 1,2,-1
 384 896 l 1,3,-1
 384 768 l 1,0,-1
768 768 m 1,4,-1
 640 768 l 1,5,-1
 640 896 l 1,6,-1
 768 896 l 1,7,-1
 768 768 l 1,4,-1
EndSplineSet
EndChar

StartChar: copyright
Encoding: 169 169 107
Width: 1024
GlyphClass: 1
Flags: W
LayerCount: 2
Fore
SplineSet
640 768 m 1,0,-1
 256 768 l 1,1,-1
 256 896 l 1,2,-1
 640 896 l 1,3,-1
 640 768 l 1,0,-1
128 768 m 1,4,-1
 256 768 l 1,5,-1
 256 640 l 1,6,-1
 128 640 l 1,7,-1
 128 768 l 1,4,-1
768 768 m 1,8,-1
 768 640 l 1,9,-1
 640 640 l 1,10,-1
 640 768 l 1,11,-1
 768 768 l 1,8,-1
128 640 m 1,12,-1
 128 256 l 1,13,-1
 0 256 l 1,14,-1
 0 640 l 1,15,-1
 128 640 l 1,12,-1
384 512 m 1,16,-1
 384 640 l 1,17,-1
 640 640 l 1,18,-1
 640 512 l 1,19,-1
 384 512 l 1,16,-1
768 640 m 1,20,-1
 896 640 l 1,21,-1
 896 256 l 1,22,-1
 768 256 l 1,23,-1
 768 640 l 1,20,-1
384 384 m 1,24,-1
 256 384 l 1,25,-1
 256 512 l 1,26,-1
 384 512 l 1,27,-1
 384 384 l 1,24,-1
640 256 m 1,28,-1
 384 256 l 1,29,-1
 384 384 l 1,30,-1
 640 384 l 1,31,-1
 640 256 l 1,28,-1
128 128 m 1,32,-1
 128 256 l 1,33,-1
 256 256 l 1,34,-1
 256 128 l 1,35,-1
 128 128 l 1,32,-1
768 128 m 1,36,-1
 640 128 l 1,37,-1
 640 256 l 1,38,-1
 768 256 l 1,39,-1
 768 128 l 1,36,-1
256 128 m 1,40,-1
 640 128 l 1,41,-1
 640 0 l 1,42,-1
 256 0 l 1,43,-1
 256 128 l 1,40,-1
EndSplineSet
EndChar

StartChar: ordfeminine
Encoding: 170 170 108
Width: 1024
GlyphClass: 1
Flags: W
LayerCount: 2
Fore
SplineSet
640 896 m 1,0,-1
 896 896 l 1,1,-1
 896 512 l 1,2,-1
 640 512 l 1,3,-1
 640 640 l 1,4,-1
 768 640 l 1,5,-1
 768 768 l 1,6,-1
 640 768 l 1,7,-1
 640 896 l 1,0,-1
512 640 m 1,8,-1
 512 768 l 1,9,-1
 640 768 l 1,10,-1
 640 640 l 1,11,-1
 512 640 l 1,8,-1
EndSplineSet
EndChar

StartChar: guillemotleft
Encoding: 171 171 109
Width: 1024
GlyphClass: 1
Flags: W
LayerCount: 2
Fore
SplineSet
256 256 m 1,0,-1
 384 256 l 1,1,-1
 384 128 l 1,2,-1
 512 128 l 1,3,-1
 512 0 l 1,4,-1
 256 0 l 1,5,-1
 256 128 l 1,6,-1
 128 128 l 1,7,-1
 128 256 l 1,8,-1
 0 256 l 1,9,-1
 0 384 l 1,10,-1
 128 384 l 1,11,-1
 128 512 l 1,12,-1
 256 512 l 1,13,-1
 256 640 l 1,14,-1
 512 640 l 1,15,-1
 512 512 l 1,16,-1
 384 512 l 1,17,-1
 384 384 l 1,18,-1
 256 384 l 1,19,-1
 256 256 l 1,0,-1
768 512 m 1,20,-1
 768 384 l 1,21,-1
 640 384 l 1,22,-1
 640 256 l 1,23,-1
 768 256 l 1,24,-1
 768 128 l 1,25,-1
 896 128 l 1,26,-1
 896 0 l 1,27,-1
 640 0 l 1,28,-1
 640 128 l 1,29,-1
 512 128 l 1,30,-1
 512 256 l 1,31,-1
 384 256 l 1,32,-1
 384 384 l 1,33,-1
 512 384 l 1,34,-1
 512 512 l 1,35,-1
 640 512 l 1,36,-1
 640 640 l 1,37,-1
 896 640 l 1,38,-1
 896 512 l 1,39,-1
 768 512 l 1,20,-1
EndSplineSet
EndChar

StartChar: logicalnot
Encoding: 172 172 110
Width: 1024
GlyphClass: 1
Flags: W
LayerCount: 2
Fore
SplineSet
896 384 m 1,0,-1
 896 0 l 1,1,-1
 640 0 l 1,2,-1
 640 256 l 1,3,-1
 128 256 l 1,4,-1
 128 384 l 1,5,-1
 896 384 l 1,0,-1
EndSplineSet
EndChar

StartChar: registered
Encoding: 174 174 112
Width: 1024
GlyphClass: 1
Flags: W
LayerCount: 2
Fore
SplineSet
640 768 m 1,0,-1
 256 768 l 1,1,-1
 256 896 l 1,2,-1
 640 896 l 1,3,-1
 640 768 l 1,0,-1
128 768 m 1,4,-1
 256 768 l 1,5,-1
 256 640 l 1,6,-1
 128 640 l 1,7,-1
 128 768 l 1,4,-1
768 768 m 1,8,-1
 768 640 l 1,9,-1
 640 640 l 1,10,-1
 640 768 l 1,11,-1
 768 768 l 1,8,-1
128 640 m 1,12,-1
 128 256 l 1,13,-1
 0 256 l 1,14,-1
 0 640 l 1,15,-1
 128 640 l 1,12,-1
256 640 m 1,16,-1
 640 640 l 1,17,-1
 640 512 l 1,18,-1
 512 512 l 1,19,-1
 512 384 l 1,20,-1
 384 384 l 1,21,-1
 384 256 l 1,22,-1
 256 256 l 1,23,-1
 256 640 l 1,16,-1
768 640 m 1,24,-1
 896 640 l 1,25,-1
 896 256 l 1,26,-1
 768 256 l 1,27,-1
 768 640 l 1,24,-1
640 384 m 1,28,-1
 640 256 l 1,29,-1
 512 256 l 1,30,-1
 512 384 l 1,31,-1
 640 384 l 1,28,-1
128 128 m 1,32,-1
 128 256 l 1,33,-1
 256 256 l 1,34,-1
 256 128 l 1,35,-1
 128 128 l 1,32,-1
768 128 m 1,36,-1
 640 128 l 1,37,-1
 640 256 l 1,38,-1
 768 256 l 1,39,-1
 768 128 l 1,36,-1
256 128 m 1,40,-1
 640 128 l 1,41,-1
 640 0 l 1,42,-1
 256 0 l 1,43,-1
 256 128 l 1,40,-1
EndSplineSet
EndChar

StartChar: macron
Encoding: 175 175 113
Width: 1024
GlyphClass: 1
Flags: W
LayerCount: 2
Fore
SplineSet
384 896 m 1,0,-1
 640 896 l 1,1,-1
 640 768 l 1,2,-1
 384 768 l 1,3,-1
 384 896 l 1,0,-1
EndSplineSet
EndChar

StartChar: degree
Encoding: 176 176 114
Width: 1024
GlyphClass: 1
Flags: W
LayerCount: 2
Fore
SplineSet
640 896 m 1,0,-1
 640 768 l 1,1,-1
 768 768 l 1,2,-1
 768 640 l 1,3,-1
 640 640 l 1,4,-1
 640 512 l 1,5,-1
 256 512 l 1,6,-1
 256 640 l 1,7,-1
 128 640 l 1,8,-1
 128 768 l 1,9,-1
 256 768 l 1,10,-1
 256 896 l 1,11,-1
 640 896 l 1,0,-1
384 768 m 1,12,-1
 384 640 l 1,13,-1
 512 640 l 1,14,-1
 512 768 l 1,15,-1
 384 768 l 1,12,-1
EndSplineSet
EndChar

StartChar: plusminus
Encoding: 177 177 115
Width: 1024
GlyphClass: 1
Flags: W
LayerCount: 2
Fore
SplineSet
640 512 m 1,0,-1
 896 512 l 1,1,-1
 896 384 l 1,2,-1
 640 384 l 1,3,-1
 640 128 l 1,4,-1
 384 128 l 1,5,-1
 384 384 l 1,6,-1
 128 384 l 1,7,-1
 128 512 l 1,8,-1
 384 512 l 1,9,-1
 384 768 l 1,10,-1
 640 768 l 1,11,-1
 640 512 l 1,0,-1
768 0 m 1,12,-1
 768 -128 l 1,13,-1
 256 -128 l 1,14,-1
 256 0 l 1,15,-1
 768 0 l 1,12,-1
EndSplineSet
EndChar

StartChar: uni00B2
Encoding: 178 178 116
Width: 1024
GlyphClass: 1
Flags: W
LayerCount: 2
Fore
SplineSet
384 896 m 1,0,-1
 640 896 l 1,1,-1
 640 768 l 1,2,-1
 384 768 l 1,3,-1
 384 896 l 1,0,-1
640 768 m 1,4,-1
 768 768 l 1,5,-1
 768 640 l 1,6,-1
 640 640 l 1,7,-1
 640 768 l 1,4,-1
512 512 m 1,8,-1
 512 640 l 1,9,-1
 640 640 l 1,10,-1
 640 512 l 1,11,-1
 768 512 l 1,12,-1
 768 384 l 1,13,-1
 384 384 l 1,14,-1
 384 512 l 1,15,-1
 512 512 l 1,8,-1
EndSplineSet
EndChar

StartChar: uni00B3
Encoding: 179 179 117
Width: 1024
GlyphClass: 1
Flags: W
LayerCount: 2
Fore
SplineSet
384 896 m 1,0,-1
 640 896 l 1,1,-1
 640 768 l 1,2,-1
 384 768 l 1,3,-1
 384 896 l 1,0,-1
640 640 m 1,4,-1
 640 768 l 1,5,-1
 768 768 l 1,6,-1
 768 512 l 1,7,-1
 640 512 l 1,8,-1
 640 384 l 1,9,-1
 384 384 l 1,10,-1
 384 512 l 1,11,-1
 512 512 l 1,12,-1
 512 640 l 1,13,-1
 640 640 l 1,4,-1
EndSplineSet
EndChar

StartChar: acute
Encoding: 180 180 118
Width: 1024
GlyphClass: 1
Flags: W
LayerCount: 2
Fore
SplineSet
640 768 m 1,0,-1
 512 768 l 1,1,-1
 512 896 l 1,2,-1
 640 896 l 1,3,-1
 640 768 l 1,0,-1
512 640 m 1,4,-1
 384 640 l 1,5,-1
 384 768 l 1,6,-1
 512 768 l 1,7,-1
 512 640 l 1,4,-1
EndSplineSet
EndChar

StartChar: uni00B5
Encoding: 181 181 119
Width: 1024
GlyphClass: 1
Flags: W
LayerCount: 2
Fore
SplineSet
640 640 m 1,0,-1
 896 640 l 1,1,-1
 896 128 l 1,2,-1
 768 128 l 1,3,-1
 768 0 l 1,4,-1
 512 0 l 1,5,-1
 512 -128 l 1,6,-1
 256 -128 l 1,7,-1
 256 640 l 1,8,-1
 512 640 l 1,9,-1
 512 128 l 1,10,-1
 640 128 l 1,11,-1
 640 640 l 1,0,-1
EndSplineSet
EndChar

StartChar: paragraph
Encoding: 182 182 120
Width: 1024
GlyphClass: 1
Flags: W
LayerCount: 2
Fore
SplineSet
896 896 m 1,0,-1
 896 768 l 1,1,-1
 768 768 l 1,2,-1
 768 0 l 1,3,-1
 640 0 l 1,4,-1
 640 768 l 1,5,-1
 512 768 l 1,6,-1
 512 0 l 1,7,-1
 256 0 l 1,8,-1
 256 384 l 1,9,-1
 128 384 l 1,10,-1
 128 512 l 1,11,-1
 0 512 l 1,12,-1
 0 768 l 1,13,-1
 128 768 l 1,14,-1
 128 896 l 1,15,-1
 896 896 l 1,0,-1
EndSplineSet
EndChar

StartChar: periodcentered
Encoding: 183 183 121
Width: 1024
GlyphClass: 1
Flags: W
LayerCount: 2
Fore
SplineSet
384 384 m 1,0,-1
 640 384 l 1,1,-1
 640 256 l 1,2,-1
 384 256 l 1,3,-1
 384 384 l 1,0,-1
EndSplineSet
EndChar

StartChar: cedilla
Encoding: 184 184 122
Width: 1024
GlyphClass: 1
Flags: W
LayerCount: 2
Fore
SplineSet
512 0 m 1,0,-1
 512 128 l 1,1,-1
 640 128 l 1,2,-1
 640 -128 l 1,3,-1
 384 -128 l 1,4,-1
 384 0 l 1,5,-1
 512 0 l 1,0,-1
EndSplineSet
EndChar

StartChar: uni00B9
Encoding: 185 185 123
Width: 1024
GlyphClass: 1
Flags: W
LayerCount: 2
Fore
SplineSet
512 768 m 1,0,-1
 512 896 l 1,1,-1
 640 896 l 1,2,-1
 640 384 l 1,3,-1
 512 384 l 1,4,-1
 512 640 l 1,5,-1
 384 640 l 1,6,-1
 384 768 l 1,7,-1
 512 768 l 1,0,-1
EndSplineSet
EndChar

StartChar: ordmasculine
Encoding: 186 186 124
Width: 1024
GlyphClass: 1
Flags: W
LayerCount: 2
Fore
SplineSet
768 768 m 1,0,-1
 640 768 l 1,1,-1
 640 896 l 1,2,-1
 768 896 l 1,3,-1
 768 768 l 1,0,-1
640 640 m 1,4,-1
 512 640 l 1,5,-1
 512 768 l 1,6,-1
 640 768 l 1,7,-1
 640 640 l 1,4,-1
896 640 m 1,8,-1
 768 640 l 1,9,-1
 768 768 l 1,10,-1
 896 768 l 1,11,-1
 896 640 l 1,8,-1
768 512 m 1,12,-1
 640 512 l 1,13,-1
 640 640 l 1,14,-1
 768 640 l 1,15,-1
 768 512 l 1,12,-1
EndSplineSet
EndChar

StartChar: guillemotright
Encoding: 187 187 125
Width: 1024
GlyphClass: 1
Flags: W
LayerCount: 2
Fore
SplineSet
512 384 m 1,0,-1
 512 256 l 1,1,-1
 384 256 l 1,2,-1
 384 128 l 1,3,-1
 256 128 l 1,4,-1
 256 0 l 1,5,-1
 0 0 l 1,6,-1
 0 128 l 1,7,-1
 128 128 l 1,8,-1
 128 256 l 1,9,-1
 256 256 l 1,10,-1
 256 384 l 1,11,-1
 128 384 l 1,12,-1
 128 512 l 1,13,-1
 0 512 l 1,14,-1
 0 640 l 1,15,-1
 256 640 l 1,16,-1
 256 512 l 1,17,-1
 384 512 l 1,18,-1
 384 384 l 1,19,-1
 512 384 l 1,0,-1
768 512 m 1,20,-1
 768 384 l 1,21,-1
 896 384 l 1,22,-1
 896 256 l 1,23,-1
 768 256 l 1,24,-1
 768 128 l 1,25,-1
 640 128 l 1,26,-1
 640 0 l 1,27,-1
 384 0 l 1,28,-1
 384 128 l 1,29,-1
 512 128 l 1,30,-1
 512 256 l 1,31,-1
 640 256 l 1,32,-1
 640 384 l 1,33,-1
 512 384 l 1,34,-1
 512 512 l 1,35,-1
 384 512 l 1,36,-1
 384 640 l 1,37,-1
 640 640 l 1,38,-1
 640 512 l 1,39,-1
 768 512 l 1,20,-1
EndSplineSet
EndChar

StartChar: onequarter
Encoding: 188 188 126
Width: 1024
GlyphClass: 1
Flags: W
LayerCount: 2
Fore
SplineSet
256 384 m 1,0,-1
 128 384 l 1,1,-1
 128 640 l 1,2,-1
 0 640 l 1,3,-1
 0 768 l 1,4,-1
 128 768 l 1,5,-1
 128 896 l 1,6,-1
 256 896 l 1,7,-1
 256 384 l 1,0,-1
640 768 m 1,8,-1
 768 768 l 1,9,-1
 768 640 l 1,10,-1
 640 640 l 1,11,-1
 640 768 l 1,8,-1
512 640 m 1,12,-1
 640 640 l 1,13,-1
 640 512 l 1,14,-1
 512 512 l 1,15,-1
 512 640 l 1,12,-1
384 512 m 1,16,-1
 512 512 l 1,17,-1
 512 384 l 1,18,-1
 384 384 l 1,19,-1
 384 512 l 1,16,-1
768 384 m 1,20,-1
 768 512 l 1,21,-1
 896 512 l 1,22,-1
 896 0 l 1,23,-1
 768 0 l 1,24,-1
 768 128 l 1,25,-1
 512 128 l 1,26,-1
 512 256 l 1,27,-1
 640 256 l 1,28,-1
 640 384 l 1,29,-1
 768 384 l 1,20,-1
384 256 m 1,30,-1
 256 256 l 1,31,-1
 256 384 l 1,32,-1
 384 384 l 1,33,-1
 384 256 l 1,30,-1
256 128 m 1,34,-1
 128 128 l 1,35,-1
 128 256 l 1,36,-1
 256 256 l 1,37,-1
 256 128 l 1,34,-1
128 0 m 1,38,-1
 0 0 l 1,39,-1
 0 128 l 1,40,-1
 128 128 l 1,41,-1
 128 0 l 1,38,-1
EndSplineSet
Ligature2: "'frac' Fracciones b+APoA-squeda 0 subtabla" one slash four
EndChar

StartChar: onehalf
Encoding: 189 189 127
Width: 1024
GlyphClass: 1
Flags: W
LayerCount: 2
Fore
SplineSet
256 384 m 1,0,-1
 128 384 l 1,1,-1
 128 640 l 1,2,-1
 0 640 l 1,3,-1
 0 768 l 1,4,-1
 128 768 l 1,5,-1
 128 896 l 1,6,-1
 256 896 l 1,7,-1
 256 384 l 1,0,-1
640 768 m 1,8,-1
 768 768 l 1,9,-1
 768 640 l 1,10,-1
 640 640 l 1,11,-1
 640 768 l 1,8,-1
640 640 m 1,12,-1
 640 512 l 1,13,-1
 768 512 l 1,14,-1
 768 384 l 1,15,-1
 384 384 l 1,16,-1
 384 512 l 1,17,-1
 512 512 l 1,18,-1
 512 640 l 1,19,-1
 640 640 l 1,12,-1
384 256 m 1,20,-1
 256 256 l 1,21,-1
 256 384 l 1,22,-1
 384 384 l 1,23,-1
 384 256 l 1,20,-1
768 384 m 1,24,-1
 896 384 l 1,25,-1
 896 256 l 1,26,-1
 768 256 l 1,27,-1
 768 384 l 1,24,-1
256 128 m 1,28,-1
 128 128 l 1,29,-1
 128 256 l 1,30,-1
 256 256 l 1,31,-1
 256 128 l 1,28,-1
640 128 m 1,32,-1
 640 256 l 1,33,-1
 768 256 l 1,34,-1
 768 128 l 1,35,-1
 896 128 l 1,36,-1
 896 0 l 1,37,-1
 512 0 l 1,38,-1
 512 128 l 1,39,-1
 640 128 l 1,32,-1
128 0 m 1,40,-1
 0 0 l 1,41,-1
 0 128 l 1,42,-1
 128 128 l 1,43,-1
 128 0 l 1,40,-1
EndSplineSet
Ligature2: "'frac' Fracciones b+APoA-squeda 0 subtabla" one slash two
EndChar

StartChar: threequarters
Encoding: 190 190 128
Width: 1024
GlyphClass: 1
Flags: W
LayerCount: 2
Fore
SplineSet
0 896 m 1,0,-1
 256 896 l 1,1,-1
 256 768 l 1,2,-1
 0 768 l 1,3,-1
 0 896 l 1,0,-1
384 512 m 1,4,-1
 256 512 l 1,5,-1
 256 384 l 1,6,-1
 0 384 l 1,7,-1
 0 512 l 1,8,-1
 128 512 l 1,9,-1
 128 640 l 1,10,-1
 256 640 l 1,11,-1
 256 768 l 1,12,-1
 384 768 l 1,13,-1
 384 512 l 1,4,-1
640 768 m 1,14,-1
 768 768 l 1,15,-1
 768 640 l 1,16,-1
 640 640 l 1,17,-1
 640 768 l 1,14,-1
512 640 m 1,18,-1
 640 640 l 1,19,-1
 640 512 l 1,20,-1
 512 512 l 1,21,-1
 512 640 l 1,18,-1
384 512 m 1,22,-1
 512 512 l 1,23,-1
 512 384 l 1,24,-1
 384 384 l 1,25,-1
 384 512 l 1,22,-1
768 384 m 1,26,-1
 768 512 l 1,27,-1
 896 512 l 1,28,-1
 896 0 l 1,29,-1
 768 0 l 1,30,-1
 768 128 l 1,31,-1
 512 128 l 1,32,-1
 512 256 l 1,33,-1
 640 256 l 1,34,-1
 640 384 l 1,35,-1
 768 384 l 1,26,-1
384 256 m 1,36,-1
 256 256 l 1,37,-1
 256 384 l 1,38,-1
 384 384 l 1,39,-1
 384 256 l 1,36,-1
256 128 m 1,40,-1
 128 128 l 1,41,-1
 128 256 l 1,42,-1
 256 256 l 1,43,-1
 256 128 l 1,40,-1
128 0 m 1,44,-1
 0 0 l 1,45,-1
 0 128 l 1,46,-1
 128 128 l 1,47,-1
 128 0 l 1,44,-1
EndSplineSet
Ligature2: "'frac' Fracciones b+APoA-squeda 0 subtabla" three slash four
EndChar

StartChar: questiondown
Encoding: 191 191 129
Width: 1024
GlyphClass: 1
Flags: W
LayerCount: 2
Fore
SplineSet
640 768 m 1,0,-1
 640 640 l 1,1,-1
 384 640 l 1,2,-1
 384 768 l 1,3,-1
 640 768 l 1,0,-1
640 128 m 1,4,-1
 896 128 l 1,5,-1
 896 0 l 1,6,-1
 768 0 l 1,7,-1
 768 -128 l 1,8,-1
 256 -128 l 1,9,-1
 256 0 l 1,10,-1
 128 0 l 1,11,-1
 128 256 l 1,12,-1
 256 256 l 1,13,-1
 256 384 l 1,14,-1
 384 384 l 1,15,-1
 384 512 l 1,16,-1
 640 512 l 1,17,-1
 640 384 l 1,18,-1
 512 384 l 1,19,-1
 512 256 l 1,20,-1
 384 256 l 1,21,-1
 384 0 l 1,22,-1
 640 0 l 1,23,-1
 640 128 l 1,4,-1
EndSplineSet
EndChar

StartChar: Agrave
Encoding: 192 192 130
Width: 1024
GlyphClass: 1
Flags: W
LayerCount: 2
Fore
SplineSet
256 768 m 1,0,-1
 256 896 l 1,1,-1
 384 896 l 1,2,-1
 384 768 l 1,3,-1
 256 768 l 1,0,-1
768 512 m 1,4,-1
 768 384 l 1,5,-1
 896 384 l 1,6,-1
 896 0 l 1,7,-1
 640 0 l 1,8,-1
 640 128 l 1,9,-1
 384 128 l 1,10,-1
 384 0 l 1,11,-1
 128 0 l 1,12,-1
 128 384 l 1,13,-1
 256 384 l 1,14,-1
 256 512 l 1,15,-1
 384 512 l 1,16,-1
 384 768 l 1,17,-1
 512 768 l 1,18,-1
 512 640 l 1,19,-1
 640 640 l 1,20,-1
 640 512 l 1,21,-1
 768 512 l 1,4,-1
384 256 m 1,22,-1
 640 256 l 1,23,-1
 640 384 l 1,24,-1
 384 384 l 1,25,-1
 384 256 l 1,22,-1
EndSplineSet
EndChar

StartChar: Aacute
Encoding: 193 193 131
Width: 1024
GlyphClass: 1
Flags: W
LayerCount: 2
Fore
SplineSet
640 896 m 1,0,-1
 768 896 l 1,1,-1
 768 768 l 1,2,-1
 640 768 l 1,3,-1
 640 896 l 1,0,-1
768 512 m 1,4,-1
 768 384 l 1,5,-1
 896 384 l 1,6,-1
 896 0 l 1,7,-1
 640 0 l 1,8,-1
 640 128 l 1,9,-1
 384 128 l 1,10,-1
 384 0 l 1,11,-1
 128 0 l 1,12,-1
 128 384 l 1,13,-1
 256 384 l 1,14,-1
 256 512 l 1,15,-1
 384 512 l 1,16,-1
 384 640 l 1,17,-1
 512 640 l 1,18,-1
 512 768 l 1,19,-1
 640 768 l 1,20,-1
 640 512 l 1,21,-1
 768 512 l 1,4,-1
384 256 m 1,22,-1
 640 256 l 1,23,-1
 640 384 l 1,24,-1
 384 384 l 1,25,-1
 384 256 l 1,22,-1
EndSplineSet
EndChar

StartChar: Acircumflex
Encoding: 194 194 132
Width: 1024
GlyphClass: 1
Flags: W
LayerCount: 2
Fore
SplineSet
512 896 m 1,0,-1
 640 896 l 1,1,-1
 640 768 l 1,2,-1
 512 768 l 1,3,-1
 512 896 l 1,0,-1
768 512 m 1,4,-1
 768 384 l 1,5,-1
 896 384 l 1,6,-1
 896 0 l 1,7,-1
 640 0 l 1,8,-1
 640 128 l 1,9,-1
 384 128 l 1,10,-1
 384 0 l 1,11,-1
 128 0 l 1,12,-1
 128 384 l 1,13,-1
 256 384 l 1,14,-1
 256 512 l 1,15,-1
 384 512 l 1,16,-1
 384 768 l 1,17,-1
 512 768 l 1,18,-1
 512 640 l 1,19,-1
 640 640 l 1,20,-1
 640 512 l 1,21,-1
 768 512 l 1,4,-1
768 768 m 1,22,-1
 768 640 l 1,23,-1
 640 640 l 1,24,-1
 640 768 l 1,25,-1
 768 768 l 1,22,-1
384 256 m 1,26,-1
 640 256 l 1,27,-1
 640 384 l 1,28,-1
 384 384 l 1,29,-1
 384 256 l 1,26,-1
EndSplineSet
EndChar

StartChar: Atilde
Encoding: 195 195 133
Width: 1024
GlyphClass: 1
Flags: W
LayerCount: 2
Fore
SplineSet
256 768 m 1,0,-1
 256 896 l 1,1,-1
 768 896 l 1,2,-1
 768 768 l 1,3,-1
 256 768 l 1,0,-1
768 512 m 1,4,-1
 768 384 l 1,5,-1
 896 384 l 1,6,-1
 896 0 l 1,7,-1
 640 0 l 1,8,-1
 640 128 l 1,9,-1
 384 128 l 1,10,-1
 384 0 l 1,11,-1
 128 0 l 1,12,-1
 128 384 l 1,13,-1
 256 384 l 1,14,-1
 256 512 l 1,15,-1
 384 512 l 1,16,-1
 384 640 l 1,17,-1
 640 640 l 1,18,-1
 640 512 l 1,19,-1
 768 512 l 1,4,-1
384 256 m 1,20,-1
 640 256 l 1,21,-1
 640 384 l 1,22,-1
 384 384 l 1,23,-1
 384 256 l 1,20,-1
EndSplineSet
EndChar

StartChar: Adieresis
Encoding: 196 196 134
Width: 1024
GlyphClass: 1
Flags: W
LayerCount: 2
Fore
SplineSet
256 896 m 1,0,-1
 384 896 l 1,1,-1
 384 768 l 1,2,-1
 256 768 l 1,3,-1
 256 896 l 1,0,-1
640 896 m 1,4,-1
 768 896 l 1,5,-1
 768 768 l 1,6,-1
 640 768 l 1,7,-1
 640 896 l 1,4,-1
768 512 m 1,8,-1
 768 384 l 1,9,-1
 896 384 l 1,10,-1
 896 0 l 1,11,-1
 640 0 l 1,12,-1
 640 128 l 1,13,-1
 384 128 l 1,14,-1
 384 0 l 1,15,-1
 128 0 l 1,16,-1
 128 384 l 1,17,-1
 256 384 l 1,18,-1
 256 512 l 1,19,-1
 384 512 l 1,20,-1
 384 640 l 1,21,-1
 640 640 l 1,22,-1
 640 512 l 1,23,-1
 768 512 l 1,8,-1
384 256 m 1,24,-1
 640 256 l 1,25,-1
 640 384 l 1,26,-1
 384 384 l 1,27,-1
 384 256 l 1,24,-1
EndSplineSet
EndChar

StartChar: Aring
Encoding: 197 197 135
Width: 1024
GlyphClass: 1
Flags: W
LayerCount: 2
Fore
SplineSet
768 512 m 1,0,-1
 768 384 l 1,1,-1
 896 384 l 1,2,-1
 896 0 l 1,3,-1
 640 0 l 1,4,-1
 640 128 l 1,5,-1
 384 128 l 1,6,-1
 384 0 l 1,7,-1
 128 0 l 1,8,-1
 128 384 l 1,9,-1
 256 384 l 1,10,-1
 256 512 l 1,11,-1
 384 512 l 1,12,-1
 384 640 l 1,13,-1
 512 640 l 1,14,-1
 512 896 l 1,15,-1
 768 896 l 1,16,-1
 768 640 l 1,17,-1
 640 640 l 1,18,-1
 640 512 l 1,19,-1
 768 512 l 1,0,-1
384 256 m 1,20,-1
 640 256 l 1,21,-1
 640 384 l 1,22,-1
 384 384 l 1,23,-1
 384 256 l 1,20,-1
EndSplineSet
EndChar

StartChar: AE
Encoding: 198 198 136
Width: 1024
GlyphClass: 1
Flags: W
LayerCount: 2
Fore
SplineSet
640 768 m 1,0,-1
 640 512 l 1,1,-1
 768 512 l 1,2,-1
 768 384 l 1,3,-1
 640 384 l 1,4,-1
 640 128 l 1,5,-1
 896 128 l 1,6,-1
 896 0 l 1,7,-1
 384 0 l 1,8,-1
 384 384 l 1,9,-1
 256 384 l 1,10,-1
 256 0 l 1,11,-1
 0 0 l 1,12,-1
 0 768 l 1,13,-1
 128 768 l 1,14,-1
 128 896 l 1,15,-1
 896 896 l 1,16,-1
 896 768 l 1,17,-1
 640 768 l 1,0,-1
256 512 m 1,18,-1
 384 512 l 1,19,-1
 384 768 l 1,20,-1
 256 768 l 1,21,-1
 256 512 l 1,18,-1
EndSplineSet
EndChar

StartChar: Ccedilla
Encoding: 199 199 137
Width: 1024
GlyphClass: 1
Flags: W
LayerCount: 2
Fore
SplineSet
896 640 m 1,0,-1
 640 640 l 1,1,-1
 640 768 l 1,2,-1
 384 768 l 1,3,-1
 384 128 l 1,4,-1
 640 128 l 1,5,-1
 640 256 l 1,6,-1
 896 256 l 1,7,-1
 896 128 l 1,8,-1
 768 128 l 1,9,-1
 768 0 l 1,10,-1
 640 0 l 1,11,-1
 640 -128 l 1,12,-1
 512 -128 l 1,13,-1
 512 0 l 1,14,-1
 256 0 l 1,15,-1
 256 128 l 1,16,-1
 128 128 l 1,17,-1
 128 768 l 1,18,-1
 256 768 l 1,19,-1
 256 896 l 1,20,-1
 768 896 l 1,21,-1
 768 768 l 1,22,-1
 896 768 l 1,23,-1
 896 640 l 1,0,-1
EndSplineSet
EndChar

StartChar: Egrave
Encoding: 200 200 138
Width: 1024
GlyphClass: 1
Flags: W
LayerCount: 2
Fore
SplineSet
384 768 m 1,0,-1
 384 896 l 1,1,-1
 512 896 l 1,2,-1
 512 768 l 1,3,-1
 384 768 l 1,0,-1
384 512 m 1,4,-1
 384 384 l 1,5,-1
 640 384 l 1,6,-1
 640 256 l 1,7,-1
 384 256 l 1,8,-1
 384 128 l 1,9,-1
 896 128 l 1,10,-1
 896 0 l 1,11,-1
 128 0 l 1,12,-1
 128 640 l 1,13,-1
 512 640 l 1,14,-1
 512 768 l 1,15,-1
 640 768 l 1,16,-1
 640 640 l 1,17,-1
 896 640 l 1,18,-1
 896 512 l 1,19,-1
 384 512 l 1,4,-1
EndSplineSet
EndChar

StartChar: Eacute
Encoding: 201 201 139
Width: 1024
GlyphClass: 1
Flags: W
LayerCount: 2
Fore
SplineSet
512 896 m 1,0,-1
 640 896 l 1,1,-1
 640 768 l 1,2,-1
 512 768 l 1,3,-1
 512 896 l 1,0,-1
384 512 m 1,4,-1
 384 384 l 1,5,-1
 640 384 l 1,6,-1
 640 256 l 1,7,-1
 384 256 l 1,8,-1
 384 128 l 1,9,-1
 896 128 l 1,10,-1
 896 0 l 1,11,-1
 128 0 l 1,12,-1
 128 640 l 1,13,-1
 384 640 l 1,14,-1
 384 768 l 1,15,-1
 512 768 l 1,16,-1
 512 640 l 1,17,-1
 896 640 l 1,18,-1
 896 512 l 1,19,-1
 384 512 l 1,4,-1
EndSplineSet
EndChar

StartChar: Ecircumflex
Encoding: 202 202 140
Width: 1024
GlyphClass: 1
Flags: W
LayerCount: 2
Fore
SplineSet
512 896 m 1,0,-1
 640 896 l 1,1,-1
 640 768 l 1,2,-1
 512 768 l 1,3,-1
 512 896 l 1,0,-1
384 512 m 1,4,-1
 384 384 l 1,5,-1
 640 384 l 1,6,-1
 640 256 l 1,7,-1
 384 256 l 1,8,-1
 384 128 l 1,9,-1
 896 128 l 1,10,-1
 896 0 l 1,11,-1
 128 0 l 1,12,-1
 128 640 l 1,13,-1
 384 640 l 1,14,-1
 384 768 l 1,15,-1
 512 768 l 1,16,-1
 512 640 l 1,17,-1
 640 640 l 1,18,-1
 640 768 l 1,19,-1
 768 768 l 1,20,-1
 768 640 l 1,21,-1
 896 640 l 1,22,-1
 896 512 l 1,23,-1
 384 512 l 1,4,-1
EndSplineSet
EndChar

StartChar: Edieresis
Encoding: 203 203 141
Width: 1024
GlyphClass: 1
Flags: W
LayerCount: 2
Fore
SplineSet
256 896 m 1,0,-1
 384 896 l 1,1,-1
 384 768 l 1,2,-1
 256 768 l 1,3,-1
 256 896 l 1,0,-1
640 896 m 1,4,-1
 768 896 l 1,5,-1
 768 768 l 1,6,-1
 640 768 l 1,7,-1
 640 896 l 1,4,-1
384 512 m 1,8,-1
 384 384 l 1,9,-1
 640 384 l 1,10,-1
 640 256 l 1,11,-1
 384 256 l 1,12,-1
 384 128 l 1,13,-1
 896 128 l 1,14,-1
 896 0 l 1,15,-1
 128 0 l 1,16,-1
 128 640 l 1,17,-1
 896 640 l 1,18,-1
 896 512 l 1,19,-1
 384 512 l 1,8,-1
EndSplineSet
EndChar

StartChar: Igrave
Encoding: 204 204 142
Width: 1024
GlyphClass: 1
Flags: W
LayerCount: 2
Fore
SplineSet
384 768 m 1,0,-1
 384 896 l 1,1,-1
 512 896 l 1,2,-1
 512 768 l 1,3,-1
 384 768 l 1,0,-1
640 512 m 1,4,-1
 640 128 l 1,5,-1
 768 128 l 1,6,-1
 768 0 l 1,7,-1
 256 0 l 1,8,-1
 256 128 l 1,9,-1
 384 128 l 1,10,-1
 384 512 l 1,11,-1
 256 512 l 1,12,-1
 256 640 l 1,13,-1
 512 640 l 1,14,-1
 512 768 l 1,15,-1
 640 768 l 1,16,-1
 640 640 l 1,17,-1
 768 640 l 1,18,-1
 768 512 l 1,19,-1
 640 512 l 1,4,-1
EndSplineSet
EndChar

StartChar: Iacute
Encoding: 205 205 143
Width: 1024
GlyphClass: 1
Flags: W
LayerCount: 2
Fore
SplineSet
512 896 m 1,0,-1
 640 896 l 1,1,-1
 640 768 l 1,2,-1
 512 768 l 1,3,-1
 512 896 l 1,0,-1
640 512 m 1,4,-1
 640 128 l 1,5,-1
 768 128 l 1,6,-1
 768 0 l 1,7,-1
 256 0 l 1,8,-1
 256 128 l 1,9,-1
 384 128 l 1,10,-1
 384 512 l 1,11,-1
 256 512 l 1,12,-1
 256 640 l 1,13,-1
 384 640 l 1,14,-1
 384 768 l 1,15,-1
 512 768 l 1,16,-1
 512 640 l 1,17,-1
 768 640 l 1,18,-1
 768 512 l 1,19,-1
 640 512 l 1,4,-1
EndSplineSet
EndChar

StartChar: Icircumflex
Encoding: 206 206 144
Width: 1024
GlyphClass: 1
Flags: W
LayerCount: 2
Fore
SplineSet
512 896 m 1,0,-1
 640 896 l 1,1,-1
 640 768 l 1,2,-1
 512 768 l 1,3,-1
 512 896 l 1,0,-1
640 640 m 1,4,-1
 640 768 l 1,5,-1
 768 768 l 1,6,-1
 768 512 l 1,7,-1
 640 512 l 1,8,-1
 640 128 l 1,9,-1
 768 128 l 1,10,-1
 768 0 l 1,11,-1
 256 0 l 1,12,-1
 256 128 l 1,13,-1
 384 128 l 1,14,-1
 384 512 l 1,15,-1
 256 512 l 1,16,-1
 256 640 l 1,17,-1
 384 640 l 1,18,-1
 384 768 l 1,19,-1
 512 768 l 1,20,-1
 512 640 l 1,21,-1
 640 640 l 1,4,-1
EndSplineSet
EndChar

StartChar: Idieresis
Encoding: 207 207 145
Width: 1024
GlyphClass: 1
Flags: W
LayerCount: 2
Fore
SplineSet
256 896 m 1,0,-1
 384 896 l 1,1,-1
 384 768 l 1,2,-1
 256 768 l 1,3,-1
 256 896 l 1,0,-1
640 768 m 1,4,-1
 640 896 l 1,5,-1
 768 896 l 1,6,-1
 768 768 l 1,7,-1
 640 768 l 1,4,-1
768 640 m 1,8,-1
 768 512 l 1,9,-1
 640 512 l 1,10,-1
 640 128 l 1,11,-1
 768 128 l 1,12,-1
 768 0 l 1,13,-1
 256 0 l 1,14,-1
 256 128 l 1,15,-1
 384 128 l 1,16,-1
 384 512 l 1,17,-1
 256 512 l 1,18,-1
 256 640 l 1,19,-1
 768 640 l 1,8,-1
EndSplineSet
EndChar

StartChar: Eth
Encoding: 208 208 146
Width: 1024
GlyphClass: 1
Flags: W
LayerCount: 2
Fore
SplineSet
768 896 m 1,0,-1
 768 768 l 1,1,-1
 896 768 l 1,2,-1
 896 128 l 1,3,-1
 768 128 l 1,4,-1
 768 0 l 1,5,-1
 128 0 l 1,6,-1
 128 384 l 1,7,-1
 0 384 l 1,8,-1
 0 512 l 1,9,-1
 128 512 l 1,10,-1
 128 896 l 1,11,-1
 768 896 l 1,0,-1
384 128 m 1,12,-1
 640 128 l 1,13,-1
 640 768 l 1,14,-1
 384 768 l 1,15,-1
 384 512 l 1,16,-1
 512 512 l 1,17,-1
 512 384 l 1,18,-1
 384 384 l 1,19,-1
 384 128 l 1,12,-1
EndSplineSet
EndChar

StartChar: Ntilde
Encoding: 209 209 147
Width: 1024
GlyphClass: 1
Flags: W
LayerCount: 2
Fore
SplineSet
640 896 m 1,0,-1
 640 768 l 1,1,-1
 384 768 l 1,2,-1
 384 896 l 1,3,-1
 640 896 l 1,0,-1
640 768 m 1,4,-1
 896 768 l 1,5,-1
 896 0 l 1,6,-1
 640 0 l 1,7,-1
 640 256 l 1,8,-1
 512 256 l 1,9,-1
 512 384 l 1,10,-1
 384 384 l 1,11,-1
 384 0 l 1,12,-1
 128 0 l 1,13,-1
 128 768 l 1,14,-1
 384 768 l 1,15,-1
 384 640 l 1,16,-1
 512 640 l 1,17,-1
 512 512 l 1,18,-1
 640 512 l 1,19,-1
 640 768 l 1,4,-1
EndSplineSet
EndChar

StartChar: Ograve
Encoding: 210 210 148
Width: 1024
GlyphClass: 1
Flags: W
LayerCount: 2
Fore
SplineSet
384 768 m 1,0,-1
 384 896 l 1,1,-1
 512 896 l 1,2,-1
 512 768 l 1,3,-1
 384 768 l 1,0,-1
640 640 m 1,4,-1
 896 640 l 1,5,-1
 896 128 l 1,6,-1
 768 128 l 1,7,-1
 768 0 l 1,8,-1
 256 0 l 1,9,-1
 256 128 l 1,10,-1
 128 128 l 1,11,-1
 128 512 l 1,12,-1
 256 512 l 1,13,-1
 256 640 l 1,14,-1
 512 640 l 1,15,-1
 512 768 l 1,16,-1
 640 768 l 1,17,-1
 640 640 l 1,4,-1
384 128 m 1,18,-1
 640 128 l 1,19,-1
 640 512 l 1,20,-1
 384 512 l 1,21,-1
 384 128 l 1,18,-1
EndSplineSet
EndChar

StartChar: Oacute
Encoding: 211 211 149
Width: 1024
GlyphClass: 1
Flags: W
LayerCount: 2
Fore
SplineSet
512 896 m 1,0,-1
 640 896 l 1,1,-1
 640 768 l 1,2,-1
 512 768 l 1,3,-1
 512 896 l 1,0,-1
896 640 m 1,4,-1
 896 128 l 1,5,-1
 768 128 l 1,6,-1
 768 0 l 1,7,-1
 256 0 l 1,8,-1
 256 128 l 1,9,-1
 128 128 l 1,10,-1
 128 512 l 1,11,-1
 256 512 l 1,12,-1
 256 640 l 1,13,-1
 384 640 l 1,14,-1
 384 768 l 1,15,-1
 512 768 l 1,16,-1
 512 640 l 1,17,-1
 896 640 l 1,4,-1
384 128 m 1,18,-1
 640 128 l 1,19,-1
 640 512 l 1,20,-1
 384 512 l 1,21,-1
 384 128 l 1,18,-1
EndSplineSet
EndChar

StartChar: Ocircumflex
Encoding: 212 212 150
Width: 1024
GlyphClass: 1
Flags: W
LayerCount: 2
Fore
SplineSet
512 896 m 1,0,-1
 640 896 l 1,1,-1
 640 768 l 1,2,-1
 512 768 l 1,3,-1
 512 896 l 1,0,-1
768 768 m 1,4,-1
 768 640 l 1,5,-1
 896 640 l 1,6,-1
 896 128 l 1,7,-1
 768 128 l 1,8,-1
 768 0 l 1,9,-1
 256 0 l 1,10,-1
 256 128 l 1,11,-1
 128 128 l 1,12,-1
 128 512 l 1,13,-1
 256 512 l 1,14,-1
 256 640 l 1,15,-1
 384 640 l 1,16,-1
 384 768 l 1,17,-1
 512 768 l 1,18,-1
 512 640 l 1,19,-1
 640 640 l 1,20,-1
 640 768 l 1,21,-1
 768 768 l 1,4,-1
384 128 m 1,22,-1
 640 128 l 1,23,-1
 640 512 l 1,24,-1
 384 512 l 1,25,-1
 384 128 l 1,22,-1
EndSplineSet
EndChar

StartChar: Otilde
Encoding: 213 213 151
Width: 1024
GlyphClass: 1
Flags: W
LayerCount: 2
Fore
SplineSet
256 768 m 1,0,-1
 256 896 l 1,1,-1
 768 896 l 1,2,-1
 768 768 l 1,3,-1
 256 768 l 1,0,-1
896 640 m 1,4,-1
 896 128 l 1,5,-1
 768 128 l 1,6,-1
 768 0 l 1,7,-1
 256 0 l 1,8,-1
 256 128 l 1,9,-1
 128 128 l 1,10,-1
 128 512 l 1,11,-1
 256 512 l 1,12,-1
 256 640 l 1,13,-1
 896 640 l 1,4,-1
384 128 m 1,14,-1
 640 128 l 1,15,-1
 640 512 l 1,16,-1
 384 512 l 1,17,-1
 384 128 l 1,14,-1
EndSplineSet
EndChar

StartChar: Odieresis
Encoding: 214 214 152
Width: 1024
GlyphClass: 1
Flags: W
LayerCount: 2
Fore
SplineSet
256 896 m 1,0,-1
 384 896 l 1,1,-1
 384 768 l 1,2,-1
 256 768 l 1,3,-1
 256 896 l 1,0,-1
640 896 m 1,4,-1
 768 896 l 1,5,-1
 768 768 l 1,6,-1
 640 768 l 1,7,-1
 640 896 l 1,4,-1
896 640 m 1,8,-1
 896 128 l 1,9,-1
 768 128 l 1,10,-1
 768 0 l 1,11,-1
 256 0 l 1,12,-1
 256 128 l 1,13,-1
 128 128 l 1,14,-1
 128 512 l 1,15,-1
 256 512 l 1,16,-1
 256 640 l 1,17,-1
 896 640 l 1,8,-1
384 128 m 1,18,-1
 640 128 l 1,19,-1
 640 512 l 1,20,-1
 384 512 l 1,21,-1
 384 128 l 1,18,-1
EndSplineSet
EndChar

StartChar: multiply
Encoding: 215 215 153
Width: 1024
GlyphClass: 1
Flags: W
LayerCount: 2
Fore
SplineSet
768 512 m 1,0,-1
 768 384 l 1,1,-1
 640 384 l 1,2,-1
 640 256 l 1,3,-1
 768 256 l 1,4,-1
 768 128 l 1,5,-1
 896 128 l 1,6,-1
 896 0 l 1,7,-1
 640 0 l 1,8,-1
 640 128 l 1,9,-1
 384 128 l 1,10,-1
 384 0 l 1,11,-1
 128 0 l 1,12,-1
 128 128 l 1,13,-1
 256 128 l 1,14,-1
 256 256 l 1,15,-1
 384 256 l 1,16,-1
 384 384 l 1,17,-1
 256 384 l 1,18,-1
 256 512 l 1,19,-1
 128 512 l 1,20,-1
 128 640 l 1,21,-1
 384 640 l 1,22,-1
 384 512 l 1,23,-1
 640 512 l 1,24,-1
 640 640 l 1,25,-1
 896 640 l 1,26,-1
 896 512 l 1,27,-1
 768 512 l 1,0,-1
EndSplineSet
EndChar

StartChar: Oslash
Encoding: 216 216 154
Width: 1024
GlyphClass: 1
Flags: W
LayerCount: 2
Fore
SplineSet
768 896 m 1,0,-1
 768 768 l 1,1,-1
 896 768 l 1,2,-1
 896 128 l 1,3,-1
 768 128 l 1,4,-1
 768 0 l 1,5,-1
 256 0 l 1,6,-1
 256 128 l 1,7,-1
 128 128 l 1,8,-1
 128 768 l 1,9,-1
 256 768 l 1,10,-1
 256 896 l 1,11,-1
 768 896 l 1,0,-1
640 768 m 1,12,-1
 384 768 l 1,13,-1
 384 512 l 1,14,-1
 512 512 l 1,15,-1
 512 640 l 1,16,-1
 640 640 l 1,17,-1
 640 768 l 1,12,-1
384 128 m 1,18,-1
 640 128 l 1,19,-1
 640 384 l 1,20,-1
 512 384 l 1,21,-1
 512 256 l 1,22,-1
 384 256 l 1,23,-1
 384 128 l 1,18,-1
EndSplineSet
EndChar

StartChar: Ugrave
Encoding: 217 217 155
Width: 1024
GlyphClass: 1
Flags: W
LayerCount: 2
Fore
SplineSet
384 768 m 1,0,-1
 384 896 l 1,1,-1
 512 896 l 1,2,-1
 512 768 l 1,3,-1
 384 768 l 1,0,-1
512 640 m 1,4,-1
 512 768 l 1,5,-1
 640 768 l 1,6,-1
 640 640 l 1,7,-1
 512 640 l 1,4,-1
640 640 m 1,8,-1
 896 640 l 1,9,-1
 896 128 l 1,10,-1
 768 128 l 1,11,-1
 768 0 l 1,12,-1
 256 0 l 1,13,-1
 256 128 l 1,14,-1
 128 128 l 1,15,-1
 128 640 l 1,16,-1
 384 640 l 1,17,-1
 384 128 l 1,18,-1
 640 128 l 1,19,-1
 640 640 l 1,8,-1
EndSplineSet
EndChar

StartChar: Uacute
Encoding: 218 218 156
Width: 1024
GlyphClass: 1
Flags: W
LayerCount: 2
Fore
SplineSet
512 896 m 1,0,-1
 640 896 l 1,1,-1
 640 768 l 1,2,-1
 512 768 l 1,3,-1
 512 896 l 1,0,-1
384 768 m 1,4,-1
 512 768 l 1,5,-1
 512 640 l 1,6,-1
 384 640 l 1,7,-1
 384 768 l 1,4,-1
640 640 m 1,8,-1
 896 640 l 1,9,-1
 896 128 l 1,10,-1
 768 128 l 1,11,-1
 768 0 l 1,12,-1
 256 0 l 1,13,-1
 256 128 l 1,14,-1
 128 128 l 1,15,-1
 128 640 l 1,16,-1
 384 640 l 1,17,-1
 384 128 l 1,18,-1
 640 128 l 1,19,-1
 640 640 l 1,8,-1
EndSplineSet
EndChar

StartChar: Ucircumflex
Encoding: 219 219 157
Width: 1024
GlyphClass: 1
Flags: W
LayerCount: 2
Fore
SplineSet
512 896 m 1,0,-1
 640 896 l 1,1,-1
 640 768 l 1,2,-1
 512 768 l 1,3,-1
 512 896 l 1,0,-1
768 768 m 1,4,-1
 768 640 l 1,5,-1
 896 640 l 1,6,-1
 896 128 l 1,7,-1
 768 128 l 1,8,-1
 768 0 l 1,9,-1
 256 0 l 1,10,-1
 256 128 l 1,11,-1
 128 128 l 1,12,-1
 128 640 l 1,13,-1
 384 640 l 1,14,-1
 384 128 l 1,15,-1
 640 128 l 1,16,-1
 640 768 l 1,17,-1
 768 768 l 1,4,-1
384 768 m 1,18,-1
 512 768 l 1,19,-1
 512 640 l 1,20,-1
 384 640 l 1,21,-1
 384 768 l 1,18,-1
EndSplineSet
EndChar

StartChar: Udieresis
Encoding: 220 220 158
Width: 1024
GlyphClass: 1
Flags: W
LayerCount: 2
Fore
SplineSet
256 896 m 1,0,-1
 384 896 l 1,1,-1
 384 768 l 1,2,-1
 256 768 l 1,3,-1
 256 896 l 1,0,-1
640 896 m 1,4,-1
 768 896 l 1,5,-1
 768 768 l 1,6,-1
 640 768 l 1,7,-1
 640 896 l 1,4,-1
640 640 m 1,8,-1
 896 640 l 1,9,-1
 896 128 l 1,10,-1
 768 128 l 1,11,-1
 768 0 l 1,12,-1
 256 0 l 1,13,-1
 256 128 l 1,14,-1
 128 128 l 1,15,-1
 128 640 l 1,16,-1
 384 640 l 1,17,-1
 384 128 l 1,18,-1
 640 128 l 1,19,-1
 640 640 l 1,8,-1
EndSplineSet
EndChar

StartChar: Yacute
Encoding: 221 221 159
Width: 1024
GlyphClass: 1
Flags: W
LayerCount: 2
Fore
SplineSet
512 896 m 1,0,-1
 640 896 l 1,1,-1
 640 768 l 1,2,-1
 512 768 l 1,3,-1
 512 896 l 1,0,-1
384 768 m 1,4,-1
 512 768 l 1,5,-1
 512 640 l 1,6,-1
 384 640 l 1,7,-1
 384 768 l 1,4,-1
640 640 m 1,8,-1
 896 640 l 1,9,-1
 896 384 l 1,10,-1
 768 384 l 1,11,-1
 768 256 l 1,12,-1
 640 256 l 1,13,-1
 640 0 l 1,14,-1
 384 0 l 1,15,-1
 384 256 l 1,16,-1
 256 256 l 1,17,-1
 256 384 l 1,18,-1
 128 384 l 1,19,-1
 128 640 l 1,20,-1
 384 640 l 1,21,-1
 384 384 l 1,22,-1
 640 384 l 1,23,-1
 640 640 l 1,8,-1
EndSplineSet
EndChar

StartChar: Thorn
Encoding: 222 222 160
Width: 1024
GlyphClass: 1
Flags: W
LayerCount: 2
Fore
SplineSet
768 768 m 1,0,-1
 768 640 l 1,1,-1
 896 640 l 1,2,-1
 896 256 l 1,3,-1
 768 256 l 1,4,-1
 768 128 l 1,5,-1
 512 128 l 1,6,-1
 512 0 l 1,7,-1
 256 0 l 1,8,-1
 256 896 l 1,9,-1
 512 896 l 1,10,-1
 512 768 l 1,11,-1
 768 768 l 1,0,-1
512 256 m 1,12,-1
 640 256 l 1,13,-1
 640 640 l 1,14,-1
 512 640 l 1,15,-1
 512 256 l 1,12,-1
EndSplineSet
EndChar

StartChar: germandbls
Encoding: 223 223 161
Width: 1024
GlyphClass: 1
Flags: W
LayerCount: 2
Fore
SplineSet
896 512 m 1,0,-1
 896 384 l 1,1,-1
 768 384 l 1,2,-1
 768 256 l 1,3,-1
 896 256 l 1,4,-1
 896 128 l 1,5,-1
 768 128 l 1,6,-1
 768 0 l 1,7,-1
 512 0 l 1,8,-1
 512 128 l 1,9,-1
 640 128 l 1,10,-1
 640 256 l 1,11,-1
 512 256 l 1,12,-1
 512 384 l 1,13,-1
 640 384 l 1,14,-1
 640 512 l 1,15,-1
 384 512 l 1,16,-1
 384 -128 l 1,17,-1
 128 -128 l 1,18,-1
 128 640 l 1,19,-1
 768 640 l 1,20,-1
 768 512 l 1,21,-1
 896 512 l 1,0,-1
EndSplineSet
EndChar

StartChar: agrave
Encoding: 224 224 162
Width: 1024
GlyphClass: 1
Flags: W
LayerCount: 2
Fore
SplineSet
384 768 m 1,0,-1
 384 896 l 1,1,-1
 512 896 l 1,2,-1
 512 768 l 1,3,-1
 384 768 l 1,0,-1
768 640 m 1,4,-1
 768 512 l 1,5,-1
 896 512 l 1,6,-1
 896 0 l 1,7,-1
 256 0 l 1,8,-1
 256 128 l 1,9,-1
 128 128 l 1,10,-1
 128 256 l 1,11,-1
 256 256 l 1,12,-1
 256 384 l 1,13,-1
 640 384 l 1,14,-1
 640 512 l 1,15,-1
 256 512 l 1,16,-1
 256 640 l 1,17,-1
 512 640 l 1,18,-1
 512 768 l 1,19,-1
 640 768 l 1,20,-1
 640 640 l 1,21,-1
 768 640 l 1,4,-1
384 128 m 1,22,-1
 640 128 l 1,23,-1
 640 256 l 1,24,-1
 384 256 l 1,25,-1
 384 128 l 1,22,-1
EndSplineSet
EndChar

StartChar: aacute
Encoding: 225 225 163
Width: 1024
GlyphClass: 1
Flags: W
LayerCount: 2
Fore
SplineSet
512 896 m 1,0,-1
 640 896 l 1,1,-1
 640 768 l 1,2,-1
 512 768 l 1,3,-1
 512 896 l 1,0,-1
768 640 m 1,4,-1
 768 512 l 1,5,-1
 896 512 l 1,6,-1
 896 0 l 1,7,-1
 256 0 l 1,8,-1
 256 128 l 1,9,-1
 128 128 l 1,10,-1
 128 256 l 1,11,-1
 256 256 l 1,12,-1
 256 384 l 1,13,-1
 640 384 l 1,14,-1
 640 512 l 1,15,-1
 256 512 l 1,16,-1
 256 640 l 1,17,-1
 384 640 l 1,18,-1
 384 768 l 1,19,-1
 512 768 l 1,20,-1
 512 640 l 1,21,-1
 768 640 l 1,4,-1
384 128 m 1,22,-1
 640 128 l 1,23,-1
 640 256 l 1,24,-1
 384 256 l 1,25,-1
 384 128 l 1,22,-1
EndSplineSet
EndChar

StartChar: acircumflex
Encoding: 226 226 164
Width: 1024
GlyphClass: 1
Flags: W
LayerCount: 2
Fore
SplineSet
512 896 m 1,0,-1
 640 896 l 1,1,-1
 640 768 l 1,2,-1
 512 768 l 1,3,-1
 512 896 l 1,0,-1
768 512 m 1,4,-1
 896 512 l 1,5,-1
 896 0 l 1,6,-1
 256 0 l 1,7,-1
 256 128 l 1,8,-1
 128 128 l 1,9,-1
 128 256 l 1,10,-1
 256 256 l 1,11,-1
 256 384 l 1,12,-1
 640 384 l 1,13,-1
 640 512 l 1,14,-1
 256 512 l 1,15,-1
 256 640 l 1,16,-1
 384 640 l 1,17,-1
 384 768 l 1,18,-1
 512 768 l 1,19,-1
 512 640 l 1,20,-1
 640 640 l 1,21,-1
 640 768 l 1,22,-1
 768 768 l 1,23,-1
 768 512 l 1,4,-1
384 128 m 1,24,-1
 640 128 l 1,25,-1
 640 256 l 1,26,-1
 384 256 l 1,27,-1
 384 128 l 1,24,-1
EndSplineSet
EndChar

StartChar: atilde
Encoding: 227 227 165
Width: 1024
GlyphClass: 1
Flags: W
LayerCount: 2
Fore
SplineSet
256 768 m 1,0,-1
 256 896 l 1,1,-1
 768 896 l 1,2,-1
 768 768 l 1,3,-1
 256 768 l 1,0,-1
768 640 m 1,4,-1
 768 512 l 1,5,-1
 896 512 l 1,6,-1
 896 0 l 1,7,-1
 256 0 l 1,8,-1
 256 128 l 1,9,-1
 128 128 l 1,10,-1
 128 256 l 1,11,-1
 256 256 l 1,12,-1
 256 384 l 1,13,-1
 640 384 l 1,14,-1
 640 512 l 1,15,-1
 256 512 l 1,16,-1
 256 640 l 1,17,-1
 768 640 l 1,4,-1
384 128 m 1,18,-1
 640 128 l 1,19,-1
 640 256 l 1,20,-1
 384 256 l 1,21,-1
 384 128 l 1,18,-1
EndSplineSet
EndChar

StartChar: adieresis
Encoding: 228 228 166
Width: 1024
GlyphClass: 1
Flags: W
LayerCount: 2
Fore
SplineSet
256 896 m 1,0,-1
 384 896 l 1,1,-1
 384 768 l 1,2,-1
 256 768 l 1,3,-1
 256 896 l 1,0,-1
640 896 m 1,4,-1
 768 896 l 1,5,-1
 768 768 l 1,6,-1
 640 768 l 1,7,-1
 640 896 l 1,4,-1
768 640 m 1,8,-1
 768 512 l 1,9,-1
 896 512 l 1,10,-1
 896 0 l 1,11,-1
 256 0 l 1,12,-1
 256 128 l 1,13,-1
 128 128 l 1,14,-1
 128 256 l 1,15,-1
 256 256 l 1,16,-1
 256 384 l 1,17,-1
 640 384 l 1,18,-1
 640 512 l 1,19,-1
 256 512 l 1,20,-1
 256 640 l 1,21,-1
 768 640 l 1,8,-1
384 128 m 1,22,-1
 640 128 l 1,23,-1
 640 256 l 1,24,-1
 384 256 l 1,25,-1
 384 128 l 1,22,-1
EndSplineSet
EndChar

StartChar: aring
Encoding: 229 229 167
Width: 1024
GlyphClass: 1
Flags: W
LayerCount: 2
Fore
SplineSet
768 640 m 1,0,-1
 768 512 l 1,1,-1
 896 512 l 1,2,-1
 896 0 l 1,3,-1
 256 0 l 1,4,-1
 256 128 l 1,5,-1
 128 128 l 1,6,-1
 128 256 l 1,7,-1
 256 256 l 1,8,-1
 256 384 l 1,9,-1
 640 384 l 1,10,-1
 640 512 l 1,11,-1
 256 512 l 1,12,-1
 256 640 l 1,13,-1
 384 640 l 1,14,-1
 384 896 l 1,15,-1
 640 896 l 1,16,-1
 640 640 l 1,17,-1
 768 640 l 1,0,-1
384 128 m 1,18,-1
 640 128 l 1,19,-1
 640 256 l 1,20,-1
 384 256 l 1,21,-1
 384 128 l 1,18,-1
EndSplineSet
EndChar

StartChar: ae
Encoding: 230 230 168
Width: 1024
GlyphClass: 1
Flags: W
LayerCount: 2
Fore
SplineSet
768 384 m 1,0,-1
 768 512 l 1,1,-1
 896 512 l 1,2,-1
 896 256 l 1,3,-1
 640 256 l 1,4,-1
 640 128 l 1,5,-1
 768 128 l 1,6,-1
 768 0 l 1,7,-1
 256 0 l 1,8,-1
 256 128 l 1,9,-1
 384 128 l 1,10,-1
 384 256 l 1,11,-1
 256 256 l 1,12,-1
 256 128 l 1,13,-1
 128 128 l 1,14,-1
 128 384 l 1,15,-1
 384 384 l 1,16,-1
 384 512 l 1,17,-1
 256 512 l 1,18,-1
 256 640 l 1,19,-1
 768 640 l 1,20,-1
 768 512 l 1,21,-1
 640 512 l 1,22,-1
 640 384 l 1,23,-1
 768 384 l 1,0,-1
EndSplineSet
EndChar

StartChar: ccedilla
Encoding: 231 231 169
Width: 1024
GlyphClass: 1
Flags: W
LayerCount: 2
Fore
SplineSet
896 384 m 1,0,-1
 640 384 l 1,1,-1
 640 512 l 1,2,-1
 384 512 l 1,3,-1
 384 128 l 1,4,-1
 640 128 l 1,5,-1
 640 256 l 1,6,-1
 896 256 l 1,7,-1
 896 128 l 1,8,-1
 768 128 l 1,9,-1
 768 0 l 1,10,-1
 640 0 l 1,11,-1
 640 -128 l 1,12,-1
 512 -128 l 1,13,-1
 512 0 l 1,14,-1
 256 0 l 1,15,-1
 256 128 l 1,16,-1
 128 128 l 1,17,-1
 128 512 l 1,18,-1
 256 512 l 1,19,-1
 256 640 l 1,20,-1
 768 640 l 1,21,-1
 768 512 l 1,22,-1
 896 512 l 1,23,-1
 896 384 l 1,0,-1
EndSplineSet
EndChar

StartChar: egrave
Encoding: 232 232 170
Width: 1024
GlyphClass: 1
Flags: W
LayerCount: 2
Fore
SplineSet
384 768 m 1,0,-1
 384 896 l 1,1,-1
 512 896 l 1,2,-1
 512 768 l 1,3,-1
 384 768 l 1,0,-1
768 640 m 1,4,-1
 768 512 l 1,5,-1
 896 512 l 1,6,-1
 896 256 l 1,7,-1
 384 256 l 1,8,-1
 384 128 l 1,9,-1
 768 128 l 1,10,-1
 768 0 l 1,11,-1
 256 0 l 1,12,-1
 256 128 l 1,13,-1
 128 128 l 1,14,-1
 128 512 l 1,15,-1
 256 512 l 1,16,-1
 256 640 l 1,17,-1
 512 640 l 1,18,-1
 512 768 l 1,19,-1
 640 768 l 1,20,-1
 640 640 l 1,21,-1
 768 640 l 1,4,-1
384 384 m 1,22,-1
 640 384 l 1,23,-1
 640 512 l 1,24,-1
 384 512 l 1,25,-1
 384 384 l 1,22,-1
EndSplineSet
EndChar

StartChar: eacute
Encoding: 233 233 171
Width: 1024
GlyphClass: 1
Flags: W
LayerCount: 2
Fore
SplineSet
512 896 m 1,0,-1
 640 896 l 1,1,-1
 640 768 l 1,2,-1
 512 768 l 1,3,-1
 512 896 l 1,0,-1
768 640 m 1,4,-1
 768 512 l 1,5,-1
 896 512 l 1,6,-1
 896 256 l 1,7,-1
 384 256 l 1,8,-1
 384 128 l 1,9,-1
 768 128 l 1,10,-1
 768 0 l 1,11,-1
 256 0 l 1,12,-1
 256 128 l 1,13,-1
 128 128 l 1,14,-1
 128 512 l 1,15,-1
 256 512 l 1,16,-1
 256 640 l 1,17,-1
 384 640 l 1,18,-1
 384 768 l 1,19,-1
 512 768 l 1,20,-1
 512 640 l 1,21,-1
 768 640 l 1,4,-1
384 384 m 1,22,-1
 640 384 l 1,23,-1
 640 512 l 1,24,-1
 384 512 l 1,25,-1
 384 384 l 1,22,-1
EndSplineSet
EndChar

StartChar: ecircumflex
Encoding: 234 234 172
Width: 1024
GlyphClass: 1
Flags: W
LayerCount: 2
Fore
SplineSet
512 896 m 1,0,-1
 640 896 l 1,1,-1
 640 768 l 1,2,-1
 512 768 l 1,3,-1
 512 896 l 1,0,-1
768 512 m 1,4,-1
 896 512 l 1,5,-1
 896 256 l 1,6,-1
 384 256 l 1,7,-1
 384 128 l 1,8,-1
 768 128 l 1,9,-1
 768 0 l 1,10,-1
 256 0 l 1,11,-1
 256 128 l 1,12,-1
 128 128 l 1,13,-1
 128 512 l 1,14,-1
 256 512 l 1,15,-1
 256 640 l 1,16,-1
 384 640 l 1,17,-1
 384 768 l 1,18,-1
 512 768 l 1,19,-1
 512 640 l 1,20,-1
 640 640 l 1,21,-1
 640 768 l 1,22,-1
 768 768 l 1,23,-1
 768 512 l 1,4,-1
384 384 m 1,24,-1
 640 384 l 1,25,-1
 640 512 l 1,26,-1
 384 512 l 1,27,-1
 384 384 l 1,24,-1
EndSplineSet
EndChar

StartChar: edieresis
Encoding: 235 235 173
Width: 1024
GlyphClass: 1
Flags: W
LayerCount: 2
Fore
SplineSet
256 896 m 1,0,-1
 384 896 l 1,1,-1
 384 768 l 1,2,-1
 256 768 l 1,3,-1
 256 896 l 1,0,-1
640 896 m 1,4,-1
 768 896 l 1,5,-1
 768 768 l 1,6,-1
 640 768 l 1,7,-1
 640 896 l 1,4,-1
768 640 m 1,8,-1
 768 512 l 1,9,-1
 896 512 l 1,10,-1
 896 256 l 1,11,-1
 384 256 l 1,12,-1
 384 128 l 1,13,-1
 768 128 l 1,14,-1
 768 0 l 1,15,-1
 256 0 l 1,16,-1
 256 128 l 1,17,-1
 128 128 l 1,18,-1
 128 512 l 1,19,-1
 256 512 l 1,20,-1
 256 640 l 1,21,-1
 768 640 l 1,8,-1
384 384 m 1,22,-1
 640 384 l 1,23,-1
 640 512 l 1,24,-1
 384 512 l 1,25,-1
 384 384 l 1,22,-1
EndSplineSet
EndChar

StartChar: igrave
Encoding: 236 236 174
Width: 1024
GlyphClass: 1
Flags: W
LayerCount: 2
Fore
SplineSet
384 768 m 1,0,-1
 384 896 l 1,1,-1
 512 896 l 1,2,-1
 512 768 l 1,3,-1
 384 768 l 1,0,-1
640 128 m 1,4,-1
 768 128 l 1,5,-1
 768 0 l 1,6,-1
 512 0 l 1,7,-1
 512 128 l 1,8,-1
 384 128 l 1,9,-1
 384 640 l 1,10,-1
 512 640 l 1,11,-1
 512 768 l 1,12,-1
 640 768 l 1,13,-1
 640 128 l 1,4,-1
EndSplineSet
EndChar

StartChar: iacute
Encoding: 237 237 175
Width: 1024
GlyphClass: 1
Flags: W
LayerCount: 2
Fore
SplineSet
512 896 m 1,0,-1
 640 896 l 1,1,-1
 640 768 l 1,2,-1
 512 768 l 1,3,-1
 512 896 l 1,0,-1
640 128 m 1,4,-1
 768 128 l 1,5,-1
 768 0 l 1,6,-1
 512 0 l 1,7,-1
 512 128 l 1,8,-1
 384 128 l 1,9,-1
 384 768 l 1,10,-1
 512 768 l 1,11,-1
 512 640 l 1,12,-1
 640 640 l 1,13,-1
 640 128 l 1,4,-1
EndSplineSet
EndChar

StartChar: icircumflex
Encoding: 238 238 176
Width: 1024
GlyphClass: 1
Flags: W
LayerCount: 2
Fore
SplineSet
512 896 m 1,0,-1
 640 896 l 1,1,-1
 640 768 l 1,2,-1
 512 768 l 1,3,-1
 512 896 l 1,0,-1
640 128 m 1,4,-1
 768 128 l 1,5,-1
 768 0 l 1,6,-1
 512 0 l 1,7,-1
 512 128 l 1,8,-1
 384 128 l 1,9,-1
 384 768 l 1,10,-1
 512 768 l 1,11,-1
 512 640 l 1,12,-1
 640 640 l 1,13,-1
 640 128 l 1,4,-1
768 768 m 1,14,-1
 768 640 l 1,15,-1
 640 640 l 1,16,-1
 640 768 l 1,17,-1
 768 768 l 1,14,-1
EndSplineSet
EndChar

StartChar: idieresis
Encoding: 239 239 177
Width: 1024
GlyphClass: 1
Flags: W
LayerCount: 2
Fore
SplineSet
256 896 m 1,0,-1
 384 896 l 1,1,-1
 384 768 l 1,2,-1
 256 768 l 1,3,-1
 256 896 l 1,0,-1
640 768 m 1,4,-1
 640 896 l 1,5,-1
 768 896 l 1,6,-1
 768 768 l 1,7,-1
 640 768 l 1,4,-1
640 128 m 1,8,-1
 768 128 l 1,9,-1
 768 0 l 1,10,-1
 512 0 l 1,11,-1
 512 128 l 1,12,-1
 384 128 l 1,13,-1
 384 640 l 1,14,-1
 640 640 l 1,15,-1
 640 128 l 1,8,-1
EndSplineSet
EndChar

StartChar: eth
Encoding: 240 240 178
Width: 1024
GlyphClass: 1
Flags: W
LayerCount: 2
Fore
SplineSet
768 768 m 1,0,-1
 1024 768 l 1,1,-1
 1024 640 l 1,2,-1
 896 640 l 1,3,-1
 896 128 l 1,4,-1
 768 128 l 1,5,-1
 768 0 l 1,6,-1
 256 0 l 1,7,-1
 256 128 l 1,8,-1
 128 128 l 1,9,-1
 128 384 l 1,10,-1
 256 384 l 1,11,-1
 256 512 l 1,12,-1
 640 512 l 1,13,-1
 640 640 l 1,14,-1
 384 640 l 1,15,-1
 384 768 l 1,16,-1
 512 768 l 1,17,-1
 512 896 l 1,18,-1
 768 896 l 1,19,-1
 768 768 l 1,0,-1
384 128 m 1,20,-1
 640 128 l 1,21,-1
 640 384 l 1,22,-1
 384 384 l 1,23,-1
 384 128 l 1,20,-1
EndSplineSet
EndChar

StartChar: ntilde
Encoding: 241 241 179
Width: 1024
GlyphClass: 1
Flags: W
LayerCount: 2
Fore
SplineSet
256 768 m 1,0,-1
 256 896 l 1,1,-1
 768 896 l 1,2,-1
 768 768 l 1,3,-1
 256 768 l 1,0,-1
768 640 m 1,4,-1
 768 512 l 1,5,-1
 896 512 l 1,6,-1
 896 0 l 1,7,-1
 640 0 l 1,8,-1
 640 512 l 1,9,-1
 384 512 l 1,10,-1
 384 0 l 1,11,-1
 128 0 l 1,12,-1
 128 640 l 1,13,-1
 768 640 l 1,4,-1
EndSplineSet
EndChar

StartChar: ograve
Encoding: 242 242 180
Width: 1024
GlyphClass: 1
Flags: W
LayerCount: 2
Fore
SplineSet
384 768 m 1,0,-1
 384 896 l 1,1,-1
 512 896 l 1,2,-1
 512 768 l 1,3,-1
 384 768 l 1,0,-1
768 640 m 1,4,-1
 768 512 l 1,5,-1
 896 512 l 1,6,-1
 896 128 l 1,7,-1
 768 128 l 1,8,-1
 768 0 l 1,9,-1
 256 0 l 1,10,-1
 256 128 l 1,11,-1
 128 128 l 1,12,-1
 128 512 l 1,13,-1
 256 512 l 1,14,-1
 256 640 l 1,15,-1
 512 640 l 1,16,-1
 512 768 l 1,17,-1
 640 768 l 1,18,-1
 640 640 l 1,19,-1
 768 640 l 1,4,-1
384 128 m 1,20,-1
 640 128 l 1,21,-1
 640 512 l 1,22,-1
 384 512 l 1,23,-1
 384 128 l 1,20,-1
EndSplineSet
EndChar

StartChar: oacute
Encoding: 243 243 181
Width: 1024
GlyphClass: 1
Flags: W
LayerCount: 2
Fore
SplineSet
512 896 m 1,0,-1
 640 896 l 1,1,-1
 640 768 l 1,2,-1
 512 768 l 1,3,-1
 512 896 l 1,0,-1
768 640 m 1,4,-1
 768 512 l 1,5,-1
 896 512 l 1,6,-1
 896 128 l 1,7,-1
 768 128 l 1,8,-1
 768 0 l 1,9,-1
 256 0 l 1,10,-1
 256 128 l 1,11,-1
 128 128 l 1,12,-1
 128 512 l 1,13,-1
 256 512 l 1,14,-1
 256 640 l 1,15,-1
 384 640 l 1,16,-1
 384 768 l 1,17,-1
 512 768 l 1,18,-1
 512 640 l 1,19,-1
 768 640 l 1,4,-1
384 128 m 1,20,-1
 640 128 l 1,21,-1
 640 512 l 1,22,-1
 384 512 l 1,23,-1
 384 128 l 1,20,-1
EndSplineSet
EndChar

StartChar: ocircumflex
Encoding: 244 244 182
Width: 1024
GlyphClass: 1
Flags: W
LayerCount: 2
Fore
SplineSet
512 896 m 1,0,-1
 640 896 l 1,1,-1
 640 768 l 1,2,-1
 512 768 l 1,3,-1
 512 896 l 1,0,-1
768 512 m 1,4,-1
 896 512 l 1,5,-1
 896 128 l 1,6,-1
 768 128 l 1,7,-1
 768 0 l 1,8,-1
 256 0 l 1,9,-1
 256 128 l 1,10,-1
 128 128 l 1,11,-1
 128 512 l 1,12,-1
 256 512 l 1,13,-1
 256 640 l 1,14,-1
 384 640 l 1,15,-1
 384 768 l 1,16,-1
 512 768 l 1,17,-1
 512 640 l 1,18,-1
 640 640 l 1,19,-1
 640 768 l 1,20,-1
 768 768 l 1,21,-1
 768 512 l 1,4,-1
384 128 m 1,22,-1
 640 128 l 1,23,-1
 640 512 l 1,24,-1
 384 512 l 1,25,-1
 384 128 l 1,22,-1
EndSplineSet
EndChar

StartChar: otilde
Encoding: 245 245 183
Width: 1024
GlyphClass: 1
Flags: W
LayerCount: 2
Fore
SplineSet
256 768 m 1,0,-1
 256 896 l 1,1,-1
 768 896 l 1,2,-1
 768 768 l 1,3,-1
 256 768 l 1,0,-1
768 640 m 1,4,-1
 768 512 l 1,5,-1
 896 512 l 1,6,-1
 896 128 l 1,7,-1
 768 128 l 1,8,-1
 768 0 l 1,9,-1
 256 0 l 1,10,-1
 256 128 l 1,11,-1
 128 128 l 1,12,-1
 128 512 l 1,13,-1
 256 512 l 1,14,-1
 256 640 l 1,15,-1
 768 640 l 1,4,-1
384 128 m 1,16,-1
 640 128 l 1,17,-1
 640 512 l 1,18,-1
 384 512 l 1,19,-1
 384 128 l 1,16,-1
EndSplineSet
EndChar

StartChar: odieresis
Encoding: 246 246 184
Width: 1024
GlyphClass: 1
Flags: W
LayerCount: 2
Fore
SplineSet
256 896 m 1,0,-1
 384 896 l 1,1,-1
 384 768 l 1,2,-1
 256 768 l 1,3,-1
 256 896 l 1,0,-1
640 896 m 1,4,-1
 768 896 l 1,5,-1
 768 768 l 1,6,-1
 640 768 l 1,7,-1
 640 896 l 1,4,-1
768 640 m 1,8,-1
 768 512 l 1,9,-1
 896 512 l 1,10,-1
 896 128 l 1,11,-1
 768 128 l 1,12,-1
 768 0 l 1,13,-1
 256 0 l 1,14,-1
 256 128 l 1,15,-1
 128 128 l 1,16,-1
 128 512 l 1,17,-1
 256 512 l 1,18,-1
 256 640 l 1,19,-1
 768 640 l 1,8,-1
384 128 m 1,20,-1
 640 128 l 1,21,-1
 640 512 l 1,22,-1
 384 512 l 1,23,-1
 384 128 l 1,20,-1
EndSplineSet
EndChar

StartChar: divide
Encoding: 247 247 185
Width: 1024
GlyphClass: 1
Flags: W
LayerCount: 2
Fore
SplineSet
640 640 m 1,0,-1
 640 512 l 1,1,-1
 384 512 l 1,2,-1
 384 640 l 1,3,-1
 640 640 l 1,0,-1
896 384 m 1,4,-1
 896 256 l 1,5,-1
 128 256 l 1,6,-1
 128 384 l 1,7,-1
 896 384 l 1,4,-1
384 0 m 1,8,-1
 384 128 l 1,9,-1
 640 128 l 1,10,-1
 640 0 l 1,11,-1
 384 0 l 1,8,-1
EndSplineSet
EndChar

StartChar: oslash
Encoding: 248 248 186
Width: 1024
GlyphClass: 1
Flags: W
LayerCount: 2
Fore
SplineSet
768 640 m 1,0,-1
 768 512 l 1,1,-1
 896 512 l 1,2,-1
 896 128 l 1,3,-1
 768 128 l 1,4,-1
 768 0 l 1,5,-1
 256 0 l 1,6,-1
 256 128 l 1,7,-1
 128 128 l 1,8,-1
 128 512 l 1,9,-1
 256 512 l 1,10,-1
 256 640 l 1,11,-1
 768 640 l 1,0,-1
384 128 m 1,12,-1
 640 128 l 1,13,-1
 640 384 l 1,14,-1
 512 384 l 1,15,-1
 512 512 l 1,16,-1
 384 512 l 1,17,-1
 384 384 l 1,18,-1
 512 384 l 1,19,-1
 512 256 l 1,20,-1
 384 256 l 1,21,-1
 384 128 l 1,12,-1
EndSplineSet
EndChar

StartChar: ugrave
Encoding: 249 249 187
Width: 1024
GlyphClass: 1
Flags: W
LayerCount: 2
Fore
SplineSet
384 768 m 1,0,-1
 384 896 l 1,1,-1
 512 896 l 1,2,-1
 512 768 l 1,3,-1
 384 768 l 1,0,-1
512 640 m 1,4,-1
 512 768 l 1,5,-1
 640 768 l 1,6,-1
 640 640 l 1,7,-1
 512 640 l 1,4,-1
640 640 m 1,8,-1
 896 640 l 1,9,-1
 896 0 l 1,10,-1
 256 0 l 1,11,-1
 256 128 l 1,12,-1
 128 128 l 1,13,-1
 128 640 l 1,14,-1
 384 640 l 1,15,-1
 384 128 l 1,16,-1
 640 128 l 1,17,-1
 640 640 l 1,8,-1
EndSplineSet
EndChar

StartChar: uacute
Encoding: 250 250 188
Width: 1024
GlyphClass: 1
Flags: W
LayerCount: 2
Fore
SplineSet
512 896 m 1,0,-1
 640 896 l 1,1,-1
 640 768 l 1,2,-1
 512 768 l 1,3,-1
 512 896 l 1,0,-1
384 768 m 1,4,-1
 512 768 l 1,5,-1
 512 640 l 1,6,-1
 384 640 l 1,7,-1
 384 768 l 1,4,-1
640 640 m 1,8,-1
 896 640 l 1,9,-1
 896 0 l 1,10,-1
 256 0 l 1,11,-1
 256 128 l 1,12,-1
 128 128 l 1,13,-1
 128 640 l 1,14,-1
 384 640 l 1,15,-1
 384 128 l 1,16,-1
 640 128 l 1,17,-1
 640 640 l 1,8,-1
EndSplineSet
EndChar

StartChar: ucircumflex
Encoding: 251 251 189
Width: 1024
GlyphClass: 1
Flags: W
LayerCount: 2
Fore
SplineSet
512 896 m 1,0,-1
 640 896 l 1,1,-1
 640 768 l 1,2,-1
 512 768 l 1,3,-1
 512 896 l 1,0,-1
768 768 m 1,4,-1
 768 640 l 1,5,-1
 896 640 l 1,6,-1
 896 0 l 1,7,-1
 256 0 l 1,8,-1
 256 128 l 1,9,-1
 128 128 l 1,10,-1
 128 640 l 1,11,-1
 384 640 l 1,12,-1
 384 128 l 1,13,-1
 640 128 l 1,14,-1
 640 768 l 1,15,-1
 768 768 l 1,4,-1
384 768 m 1,16,-1
 512 768 l 1,17,-1
 512 640 l 1,18,-1
 384 640 l 1,19,-1
 384 768 l 1,16,-1
EndSplineSet
EndChar

StartChar: udieresis
Encoding: 252 252 190
Width: 1024
GlyphClass: 1
Flags: W
LayerCount: 2
Fore
SplineSet
256 896 m 1,0,-1
 384 896 l 1,1,-1
 384 768 l 1,2,-1
 256 768 l 1,3,-1
 256 896 l 1,0,-1
640 896 m 1,4,-1
 768 896 l 1,5,-1
 768 768 l 1,6,-1
 640 768 l 1,7,-1
 640 896 l 1,4,-1
640 640 m 1,8,-1
 896 640 l 1,9,-1
 896 0 l 1,10,-1
 256 0 l 1,11,-1
 256 128 l 1,12,-1
 128 128 l 1,13,-1
 128 640 l 1,14,-1
 384 640 l 1,15,-1
 384 128 l 1,16,-1
 640 128 l 1,17,-1
 640 640 l 1,8,-1
EndSplineSet
EndChar

StartChar: yacute
Encoding: 253 253 191
Width: 1024
GlyphClass: 1
Flags: W
LayerCount: 2
Fore
SplineSet
512 896 m 1,0,-1
 640 896 l 1,1,-1
 640 768 l 1,2,-1
 512 768 l 1,3,-1
 512 896 l 1,0,-1
384 768 m 1,4,-1
 512 768 l 1,5,-1
 512 640 l 1,6,-1
 384 640 l 1,7,-1
 384 768 l 1,4,-1
640 640 m 1,8,-1
 896 640 l 1,9,-1
 896 0 l 1,10,-1
 768 0 l 1,11,-1
 768 -128 l 1,12,-1
 256 -128 l 1,13,-1
 256 0 l 1,14,-1
 640 0 l 1,15,-1
 640 128 l 1,16,-1
 256 128 l 1,17,-1
 256 256 l 1,18,-1
 128 256 l 1,19,-1
 128 640 l 1,20,-1
 384 640 l 1,21,-1
 384 256 l 1,22,-1
 640 256 l 1,23,-1
 640 640 l 1,8,-1
EndSplineSet
EndChar

StartChar: thorn
Encoding: 254 254 192
Width: 1024
GlyphClass: 1
Flags: W
LayerCount: 2
Fore
SplineSet
768 512 m 1,0,-1
 768 384 l 1,1,-1
 896 384 l 1,2,-1
 896 256 l 1,3,-1
 768 256 l 1,4,-1
 768 128 l 1,5,-1
 512 128 l 1,6,-1
 512 0 l 1,7,-1
 256 0 l 1,8,-1
 256 640 l 1,9,-1
 512 640 l 1,10,-1
 512 512 l 1,11,-1
 768 512 l 1,0,-1
512 384 m 1,12,-1
 512 256 l 1,13,-1
 640 256 l 1,14,-1
 640 384 l 1,15,-1
 512 384 l 1,12,-1
EndSplineSet
EndChar

StartChar: ydieresis
Encoding: 255 255 193
Width: 1024
GlyphClass: 1
Flags: W
LayerCount: 2
Fore
SplineSet
256 896 m 1,0,-1
 384 896 l 1,1,-1
 384 768 l 1,2,-1
 256 768 l 1,3,-1
 256 896 l 1,0,-1
640 896 m 1,4,-1
 768 896 l 1,5,-1
 768 768 l 1,6,-1
 640 768 l 1,7,-1
 640 896 l 1,4,-1
640 640 m 1,8,-1
 896 640 l 1,9,-1
 896 0 l 1,10,-1
 768 0 l 1,11,-1
 768 -128 l 1,12,-1
 256 -128 l 1,13,-1
 256 0 l 1,14,-1
 640 0 l 1,15,-1
 640 128 l 1,16,-1
 256 128 l 1,17,-1
 256 256 l 1,18,-1
 128 256 l 1,19,-1
 128 640 l 1,20,-1
 384 640 l 1,21,-1
 384 256 l 1,22,-1
 640 256 l 1,23,-1
 640 640 l 1,8,-1
EndSplineSet
EndChar

StartChar: dotlessi
Encoding: 305 305 194
Width: 1024
GlyphClass: 1
Flags: W
LayerCount: 2
Fore
SplineSet
640 128 m 1,0,-1
 768 128 l 1,1,-1
 768 0 l 1,2,-1
 512 0 l 1,3,-1
 512 128 l 1,4,-1
 384 128 l 1,5,-1
 384 640 l 1,6,-1
 640 640 l 1,7,-1
 640 128 l 1,0,-1
EndSplineSet
EndChar

StartChar: OE
Encoding: 338 338 195
Width: 1024
GlyphClass: 1
Flags: W
LayerCount: 2
Fore
SplineSet
640 768 m 1,0,-1
 640 512 l 1,1,-1
 768 512 l 1,2,-1
 768 384 l 1,3,-1
 640 384 l 1,4,-1
 640 128 l 1,5,-1
 896 128 l 1,6,-1
 896 0 l 1,7,-1
 128 0 l 1,8,-1
 128 128 l 1,9,-1
 0 128 l 1,10,-1
 0 768 l 1,11,-1
 128 768 l 1,12,-1
 128 896 l 1,13,-1
 896 896 l 1,14,-1
 896 768 l 1,15,-1
 640 768 l 1,0,-1
256 128 m 1,16,-1
 384 128 l 1,17,-1
 384 768 l 1,18,-1
 256 768 l 1,19,-1
 256 128 l 1,16,-1
EndSplineSet
EndChar

StartChar: oe
Encoding: 339 339 196
Width: 1024
GlyphClass: 1
Flags: W
LayerCount: 2
Fore
SplineSet
768 384 m 1,0,-1
 768 512 l 1,1,-1
 896 512 l 1,2,-1
 896 256 l 1,3,-1
 640 256 l 1,4,-1
 640 128 l 1,5,-1
 768 128 l 1,6,-1
 768 0 l 1,7,-1
 256 0 l 1,8,-1
 256 128 l 1,9,-1
 384 128 l 1,10,-1
 384 512 l 1,11,-1
 256 512 l 1,12,-1
 256 640 l 1,13,-1
 768 640 l 1,14,-1
 768 512 l 1,15,-1
 640 512 l 1,16,-1
 640 384 l 1,17,-1
 768 384 l 1,0,-1
256 512 m 1,18,-1
 256 128 l 1,19,-1
 128 128 l 1,20,-1
 128 512 l 1,21,-1
 256 512 l 1,18,-1
EndSplineSet
EndChar

StartChar: Wcircumflex
Encoding: 372 372 197
Width: 1024
GlyphClass: 1
Flags: W
LayerCount: 2
Fore
SplineSet
384 896 m 1,0,-1
 512 896 l 1,1,-1
 512 768 l 1,2,-1
 384 768 l 1,3,-1
 384 896 l 1,0,-1
256 768 m 1,4,-1
 384 768 l 1,5,-1
 384 640 l 1,6,-1
 256 640 l 1,7,-1
 256 768 l 1,4,-1
640 768 m 1,8,-1
 640 640 l 1,9,-1
 512 640 l 1,10,-1
 512 768 l 1,11,-1
 640 768 l 1,8,-1
640 640 m 1,12,-1
 896 640 l 1,13,-1
 896 256 l 1,14,-1
 768 256 l 1,15,-1
 768 0 l 1,16,-1
 512 0 l 1,17,-1
 512 128 l 1,18,-1
 384 128 l 1,19,-1
 384 0 l 1,20,-1
 128 0 l 1,21,-1
 128 256 l 1,22,-1
 0 256 l 1,23,-1
 0 640 l 1,24,-1
 256 640 l 1,25,-1
 256 256 l 1,26,-1
 384 256 l 1,27,-1
 384 384 l 1,28,-1
 512 384 l 1,29,-1
 512 256 l 1,30,-1
 640 256 l 1,31,-1
 640 640 l 1,12,-1
EndSplineSet
EndChar

StartChar: wcircumflex
Encoding: 373 373 198
Width: 1024
GlyphClass: 1
Flags: W
LayerCount: 2
Fore
SplineSet
384 896 m 1,0,-1
 512 896 l 1,1,-1
 512 768 l 1,2,-1
 384 768 l 1,3,-1
 384 896 l 1,0,-1
256 768 m 1,4,-1
 384 768 l 1,5,-1
 384 640 l 1,6,-1
 256 640 l 1,7,-1
 256 768 l 1,4,-1
640 768 m 1,8,-1
 640 640 l 1,9,-1
 512 640 l 1,10,-1
 512 768 l 1,11,-1
 640 768 l 1,8,-1
256 128 m 1,12,-1
 384 128 l 1,13,-1
 384 0 l 1,14,-1
 128 0 l 1,15,-1
 128 128 l 1,16,-1
 0 128 l 1,17,-1
 0 640 l 1,18,-1
 256 640 l 1,19,-1
 256 128 l 1,12,-1
640 640 m 1,20,-1
 896 640 l 1,21,-1
 896 128 l 1,22,-1
 768 128 l 1,23,-1
 768 0 l 1,24,-1
 512 0 l 1,25,-1
 512 128 l 1,26,-1
 640 128 l 1,27,-1
 640 640 l 1,20,-1
384 384 m 1,28,-1
 512 384 l 1,29,-1
 512 128 l 1,30,-1
 384 128 l 1,31,-1
 384 384 l 1,28,-1
EndSplineSet
EndChar

StartChar: Ycircumflex
Encoding: 374 374 199
Width: 1024
GlyphClass: 1
Flags: W
LayerCount: 2
Fore
SplineSet
512 896 m 1,0,-1
 640 896 l 1,1,-1
 640 768 l 1,2,-1
 512 768 l 1,3,-1
 512 896 l 1,0,-1
768 768 m 1,4,-1
 768 640 l 1,5,-1
 896 640 l 1,6,-1
 896 384 l 1,7,-1
 768 384 l 1,8,-1
 768 256 l 1,9,-1
 640 256 l 1,10,-1
 640 0 l 1,11,-1
 384 0 l 1,12,-1
 384 256 l 1,13,-1
 256 256 l 1,14,-1
 256 384 l 1,15,-1
 128 384 l 1,16,-1
 128 640 l 1,17,-1
 384 640 l 1,18,-1
 384 384 l 1,19,-1
 640 384 l 1,20,-1
 640 768 l 1,21,-1
 768 768 l 1,4,-1
384 768 m 1,22,-1
 512 768 l 1,23,-1
 512 640 l 1,24,-1
 384 640 l 1,25,-1
 384 768 l 1,22,-1
EndSplineSet
EndChar

StartChar: ycircumflex
Encoding: 375 375 200
Width: 1024
GlyphClass: 1
Flags: W
LayerCount: 2
Fore
SplineSet
512 896 m 1,0,-1
 640 896 l 1,1,-1
 640 768 l 1,2,-1
 512 768 l 1,3,-1
 512 896 l 1,0,-1
768 768 m 1,4,-1
 768 640 l 1,5,-1
 896 640 l 1,6,-1
 896 0 l 1,7,-1
 768 0 l 1,8,-1
 768 -128 l 1,9,-1
 256 -128 l 1,10,-1
 256 0 l 1,11,-1
 640 0 l 1,12,-1
 640 128 l 1,13,-1
 256 128 l 1,14,-1
 256 256 l 1,15,-1
 128 256 l 1,16,-1
 128 640 l 1,17,-1
 384 640 l 1,18,-1
 384 256 l 1,19,-1
 640 256 l 1,20,-1
 640 768 l 1,21,-1
 768 768 l 1,4,-1
384 768 m 1,22,-1
 512 768 l 1,23,-1
 512 640 l 1,24,-1
 384 640 l 1,25,-1
 384 768 l 1,22,-1
EndSplineSet
EndChar

StartChar: Ydieresis
Encoding: 376 376 201
Width: 1024
GlyphClass: 1
Flags: W
LayerCount: 2
Fore
SplineSet
256 896 m 1,0,-1
 384 896 l 1,1,-1
 384 768 l 1,2,-1
 256 768 l 1,3,-1
 256 896 l 1,0,-1
640 896 m 1,4,-1
 768 896 l 1,5,-1
 768 768 l 1,6,-1
 640 768 l 1,7,-1
 640 896 l 1,4,-1
640 640 m 1,8,-1
 896 640 l 1,9,-1
 896 384 l 1,10,-1
 768 384 l 1,11,-1
 768 256 l 1,12,-1
 640 256 l 1,13,-1
 640 0 l 1,14,-1
 384 0 l 1,15,-1
 384 256 l 1,16,-1
 256 256 l 1,17,-1
 256 384 l 1,18,-1
 128 384 l 1,19,-1
 128 640 l 1,20,-1
 384 640 l 1,21,-1
 384 384 l 1,22,-1
 640 384 l 1,23,-1
 640 640 l 1,8,-1
EndSplineSet
EndChar

StartChar: florin
Encoding: 402 402 202
Width: 1024
GlyphClass: 1
Flags: W
LayerCount: 2
Fore
SplineSet
768 896 m 1,0,-1
 768 768 l 1,1,-1
 640 768 l 1,2,-1
 640 640 l 1,3,-1
 768 640 l 1,4,-1
 768 512 l 1,5,-1
 640 512 l 1,6,-1
 640 128 l 1,7,-1
 512 128 l 1,8,-1
 512 0 l 1,9,-1
 256 0 l 1,10,-1
 256 128 l 1,11,-1
 384 128 l 1,12,-1
 384 512 l 1,13,-1
 256 512 l 1,14,-1
 256 640 l 1,15,-1
 384 640 l 1,16,-1
 384 768 l 1,17,-1
 512 768 l 1,18,-1
 512 896 l 1,19,-1
 768 896 l 1,0,-1
EndSplineSet
EndChar

StartChar: circumflex
Encoding: 710 710 203
Width: 1024
GlyphClass: 1
Flags: W
LayerCount: 2
Fore
SplineSet
512 768 m 1,0,-1
 384 768 l 1,1,-1
 384 896 l 1,2,-1
 512 896 l 1,3,-1
 512 768 l 1,0,-1
384 640 m 1,4,-1
 256 640 l 1,5,-1
 256 768 l 1,6,-1
 384 768 l 1,7,-1
 384 640 l 1,4,-1
640 640 m 1,8,-1
 512 640 l 1,9,-1
 512 768 l 1,10,-1
 640 768 l 1,11,-1
 640 640 l 1,8,-1
EndSplineSet
EndChar

StartChar: caron
Encoding: 711 711 204
Width: 1024
GlyphClass: 1
Flags: W
LayerCount: 2
Fore
SplineSet
384 768 m 1,0,-1
 256 768 l 1,1,-1
 256 896 l 1,2,-1
 384 896 l 1,3,-1
 384 768 l 1,0,-1
640 768 m 1,4,-1
 512 768 l 1,5,-1
 512 896 l 1,6,-1
 640 896 l 1,7,-1
 640 768 l 1,4,-1
512 640 m 1,8,-1
 384 640 l 1,9,-1
 384 768 l 1,10,-1
 512 768 l 1,11,-1
 512 640 l 1,8,-1
EndSplineSet
EndChar

StartChar: breve
Encoding: 728 728 205
Width: 1024
GlyphClass: 1
Flags: W
LayerCount: 2
Fore
SplineSet
256 768 m 1,0,-1
 256 896 l 1,1,-1
 384 896 l 1,2,-1
 384 768 l 1,3,-1
 256 768 l 1,0,-1
640 768 m 1,4,-1
 640 896 l 1,5,-1
 768 896 l 1,6,-1
 768 768 l 1,7,-1
 640 768 l 1,4,-1
384 640 m 1,8,-1
 384 768 l 1,9,-1
 640 768 l 1,10,-1
 640 640 l 1,11,-1
 384 640 l 1,8,-1
EndSplineSet
EndChar

StartChar: dotaccent
Encoding: 729 729 206
Width: 1024
GlyphClass: 1
Flags: W
LayerCount: 2
Fore
SplineSet
512 768 m 1,0,-1
 384 768 l 1,1,-1
 384 896 l 1,2,-1
 512 896 l 1,3,-1
 512 768 l 1,0,-1
EndSplineSet
EndChar

StartChar: ring
Encoding: 730 730 207
Width: 1024
GlyphClass: 1
Flags: W
LayerCount: 2
Fore
SplineSet
384 896 m 1,0,-1
 640 896 l 1,1,-1
 640 640 l 1,2,-1
 384 640 l 1,3,-1
 384 896 l 1,0,-1
EndSplineSet
EndChar

StartChar: ogonek
Encoding: 731 731 208
Width: 1024
GlyphClass: 1
Flags: W
LayerCount: 2
Fore
SplineSet
128 128 m 1,0,-1
 128 0 l 1,1,-1
 256 0 l 1,2,-1
 256 -128 l 1,3,-1
 0 -128 l 1,4,-1
 0 128 l 1,5,-1
 128 128 l 1,0,-1
EndSplineSet
EndChar

StartChar: tilde
Encoding: 732 732 209
Width: 1024
GlyphClass: 1
Flags: W
LayerCount: 2
Fore
SplineSet
512 896 m 1,0,-1
 512 768 l 1,1,-1
 640 768 l 1,2,-1
 640 640 l 1,3,-1
 384 640 l 1,4,-1
 384 768 l 1,5,-1
 256 768 l 1,6,-1
 256 896 l 1,7,-1
 512 896 l 1,0,-1
640 768 m 1,8,-1
 640 896 l 1,9,-1
 768 896 l 1,10,-1
 768 768 l 1,11,-1
 640 768 l 1,8,-1
256 640 m 1,12,-1
 128 640 l 1,13,-1
 128 768 l 1,14,-1
 256 768 l 1,15,-1
 256 640 l 1,12,-1
EndSplineSet
EndChar

StartChar: hungarumlaut
Encoding: 733 733 210
Width: 1024
GlyphClass: 1
Flags: W
LayerCount: 2
Fore
SplineSet
384 768 m 1,0,-1
 256 768 l 1,1,-1
 256 896 l 1,2,-1
 384 896 l 1,3,-1
 384 768 l 1,0,-1
768 768 m 1,4,-1
 640 768 l 1,5,-1
 640 896 l 1,6,-1
 768 896 l 1,7,-1
 768 768 l 1,4,-1
256 640 m 1,8,-1
 128 640 l 1,9,-1
 128 768 l 1,10,-1
 256 768 l 1,11,-1
 256 640 l 1,8,-1
640 640 m 1,12,-1
 512 640 l 1,13,-1
 512 768 l 1,14,-1
 640 768 l 1,15,-1
 640 640 l 1,12,-1
EndSplineSet
EndChar

StartChar: gravecomb
Encoding: 768 768 211
Width: 0
GlyphClass: 4
Flags: W
LayerCount: 2
Fore
SplineSet
-512 768 m 1,0,-1
 -640 768 l 1,1,-1
 -640 896 l 1,2,-1
 -512 896 l 1,3,-1
 -512 768 l 1,0,-1
-384 640 m 1,4,-1
 -512 640 l 1,5,-1
 -512 768 l 1,6,-1
 -384 768 l 1,7,-1
 -384 640 l 1,4,-1
EndSplineSet
EndChar

StartChar: acutecomb
Encoding: 769 769 212
Width: 0
GlyphClass: 4
Flags: W
LayerCount: 2
Fore
SplineSet
-384 768 m 1,0,-1
 -512 768 l 1,1,-1
 -512 896 l 1,2,-1
 -384 896 l 1,3,-1
 -384 768 l 1,0,-1
-512 640 m 1,4,-1
 -640 640 l 1,5,-1
 -640 768 l 1,6,-1
 -512 768 l 1,7,-1
 -512 640 l 1,4,-1
EndSplineSet
EndChar

StartChar: uni0302
Encoding: 770 770 213
Width: 0
GlyphClass: 4
Flags: W
LayerCount: 2
Fore
SplineSet
-384 768 m 1,0,-1
 -512 768 l 1,1,-1
 -512 896 l 1,2,-1
 -384 896 l 1,3,-1
 -384 768 l 1,0,-1
-512 640 m 1,4,-1
 -640 640 l 1,5,-1
 -640 768 l 1,6,-1
 -512 768 l 1,7,-1
 -512 640 l 1,4,-1
-256 640 m 1,8,-1
 -384 640 l 1,9,-1
 -384 768 l 1,10,-1
 -256 768 l 1,11,-1
 -256 640 l 1,8,-1
EndSplineSet
EndChar

StartChar: tildecomb
Encoding: 771 771 214
Width: 0
GlyphClass: 4
Flags: W
LayerCount: 2
Fore
SplineSet
-256 896 m 1,0,-1
 -256 768 l 1,1,-1
 -768 768 l 1,2,-1
 -768 896 l 1,3,-1
 -256 896 l 1,0,-1
EndSplineSet
EndChar

StartChar: uni0304
Encoding: 772 772 215
Width: 0
GlyphClass: 4
Flags: W
LayerCount: 2
Fore
SplineSet
-640 896 m 1,0,-1
 -384 896 l 1,1,-1
 -384 768 l 1,2,-1
 -640 768 l 1,3,-1
 -640 896 l 1,0,-1
EndSplineSet
EndChar

StartChar: uni0306
Encoding: 774 774 216
Width: 0
GlyphClass: 4
Flags: W
LayerCount: 2
Fore
SplineSet
-768 768 m 1,0,-1
 -768 896 l 1,1,-1
 -640 896 l 1,2,-1
 -640 768 l 1,3,-1
 -768 768 l 1,0,-1
-384 768 m 1,4,-1
 -384 896 l 1,5,-1
 -256 896 l 1,6,-1
 -256 768 l 1,7,-1
 -384 768 l 1,4,-1
-640 640 m 1,8,-1
 -640 768 l 1,9,-1
 -384 768 l 1,10,-1
 -384 640 l 1,11,-1
 -640 640 l 1,8,-1
EndSplineSet
EndChar

StartChar: uni0307
Encoding: 775 775 217
Width: 0
GlyphClass: 4
Flags: W
LayerCount: 2
Fore
SplineSet
-512 768 m 1,0,-1
 -640 768 l 1,1,-1
 -640 896 l 1,2,-1
 -512 896 l 1,3,-1
 -512 768 l 1,0,-1
EndSplineSet
EndChar

StartChar: uni0308
Encoding: 776 776 218
Width: 0
GlyphClass: 4
Flags: W
LayerCount: 2
Fore
SplineSet
-640 768 m 1,0,-1
 -768 768 l 1,1,-1
 -768 896 l 1,2,-1
 -640 896 l 1,3,-1
 -640 768 l 1,0,-1
-256 768 m 1,4,-1
 -384 768 l 1,5,-1
 -384 896 l 1,6,-1
 -256 896 l 1,7,-1
 -256 768 l 1,4,-1
EndSplineSet
EndChar

StartChar: uni030A
Encoding: 778 778 219
Width: 0
GlyphClass: 4
Flags: W
LayerCount: 2
Fore
SplineSet
-640 896 m 1,0,-1
 -384 896 l 1,1,-1
 -384 640 l 1,2,-1
 -640 640 l 1,3,-1
 -640 896 l 1,0,-1
EndSplineSet
EndChar

StartChar: uni030B
Encoding: 779 779 220
Width: 0
GlyphClass: 4
Flags: W
LayerCount: 2
Fore
SplineSet
-640 768 m 1,0,-1
 -768 768 l 1,1,-1
 -768 896 l 1,2,-1
 -640 896 l 1,3,-1
 -640 768 l 1,0,-1
-256 768 m 1,4,-1
 -384 768 l 1,5,-1
 -384 896 l 1,6,-1
 -256 896 l 1,7,-1
 -256 768 l 1,4,-1
-768 640 m 1,8,-1
 -896 640 l 1,9,-1
 -896 768 l 1,10,-1
 -768 768 l 1,11,-1
 -768 640 l 1,8,-1
-384 640 m 1,12,-1
 -512 640 l 1,13,-1
 -512 768 l 1,14,-1
 -384 768 l 1,15,-1
 -384 640 l 1,12,-1
EndSplineSet
EndChar

StartChar: uni030C
Encoding: 780 780 221
Width: 0
GlyphClass: 4
Flags: W
LayerCount: 2
Fore
SplineSet
-640 768 m 1,0,-1
 -768 768 l 1,1,-1
 -768 896 l 1,2,-1
 -640 896 l 1,3,-1
 -640 768 l 1,0,-1
-384 768 m 1,4,-1
 -512 768 l 1,5,-1
 -512 896 l 1,6,-1
 -384 896 l 1,7,-1
 -384 768 l 1,4,-1
-512 640 m 1,8,-1
 -640 640 l 1,9,-1
 -640 768 l 1,10,-1
 -512 768 l 1,11,-1
 -512 640 l 1,8,-1
EndSplineSet
EndChar

StartChar: uni0312
Encoding: 786 786 222
Width: 0
GlyphClass: 4
Flags: W
LayerCount: 2
Fore
SplineSet
-640 896 m 1,0,-1
 -384 896 l 1,1,-1
 -384 768 l 1,2,-1
 -512 768 l 1,3,-1
 -512 640 l 1,4,-1
 -640 640 l 1,5,-1
 -640 896 l 1,0,-1
EndSplineSet
EndChar

StartChar: uni0326
Encoding: 806 806 223
Width: 0
GlyphClass: 4
Flags: W
LayerCount: 2
Fore
SplineSet
-512 0 m 1,0,-1
 -640 0 l 1,1,-1
 -640 128 l 1,2,-1
 -512 128 l 1,3,-1
 -512 0 l 1,0,-1
-640 -128 m 1,4,-1
 -768 -128 l 1,5,-1
 -768 0 l 1,6,-1
 -640 0 l 1,7,-1
 -640 -128 l 1,4,-1
EndSplineSet
EndChar

StartChar: uni0327
Encoding: 807 807 224
Width: 0
GlyphClass: 4
Flags: W
LayerCount: 2
Fore
SplineSet
-384 -128 m 1,0,-1
 -512 -128 l 1,1,-1
 -512 0 l 1,2,-1
 -384 0 l 1,3,-1
 -384 -128 l 1,0,-1
EndSplineSet
EndChar

StartChar: uni0328
Encoding: 808 808 225
Width: 0
GlyphClass: 4
Flags: W
LayerCount: 2
Fore
SplineSet
-896 128 m 1,0,-1
 -896 0 l 1,1,-1
 -768 0 l 1,2,-1
 -768 -128 l 1,3,-1
 -1024 -128 l 1,4,-1
 -1024 128 l 1,5,-1
 -896 128 l 1,0,-1
EndSplineSet
EndChar

StartChar: uni0335
Encoding: 821 821 226
Width: 0
GlyphClass: 4
Flags: W
LayerCount: 2
Fore
SplineSet
-128 512 m 1,0,-1
 -128 384 l 1,1,-1
 -1024 384 l 1,2,-1
 -1024 512 l 1,3,-1
 -128 512 l 1,0,-1
EndSplineSet
EndChar

StartChar: uni0336
Encoding: 822 822 227
Width: 0
GlyphClass: 4
Flags: W
LayerCount: 2
Fore
SplineSet
-512 512 m 1,0,-1
 -512 384 l 1,1,-1
 -1024 384 l 1,2,-1
 -1024 512 l 1,3,-1
 -512 512 l 1,0,-1
EndSplineSet
EndChar

StartChar: uni0337
Encoding: 823 823 228
Width: 0
GlyphClass: 4
Flags: W
LayerCount: 2
Fore
SplineSet
-256 384 m 1,0,-1
 -384 384 l 1,1,-1
 -384 512 l 1,2,-1
 -256 512 l 1,3,-1
 -256 384 l 1,0,-1
-384 256 m 1,4,-1
 -512 256 l 1,5,-1
 -512 384 l 1,6,-1
 -384 384 l 1,7,-1
 -384 256 l 1,4,-1
-512 128 m 1,8,-1
 -640 128 l 1,9,-1
 -640 256 l 1,10,-1
 -512 256 l 1,11,-1
 -512 128 l 1,8,-1
-640 0 m 1,12,-1
 -768 0 l 1,13,-1
 -768 128 l 1,14,-1
 -640 128 l 1,15,-1
 -640 0 l 1,12,-1
EndSplineSet
EndChar

StartChar: uni0338
Encoding: 824 824 229
Width: 0
GlyphClass: 4
Flags: W
LayerCount: 2
Fore
SplineSet
-512 512 m 1,0,-1
 -512 640 l 1,1,-1
 -384 640 l 1,2,-1
 -384 512 l 1,3,-1
 -512 512 l 1,0,-1
-640 256 m 1,4,-1
 -640 512 l 1,5,-1
 -512 512 l 1,6,-1
 -512 256 l 1,7,-1
 -640 256 l 1,4,-1
-640 128 m 1,8,-1
 -768 128 l 1,9,-1
 -768 256 l 1,10,-1
 -640 256 l 1,11,-1
 -640 128 l 1,8,-1
EndSplineSet
EndChar

StartChar: tonos
Encoding: 900 900 230
Width: 1024
GlyphClass: 1
Flags: W
LayerCount: 2
Fore
SplineSet
640 768 m 1,0,-1
 512 768 l 1,1,-1
 512 896 l 1,2,-1
 640 896 l 1,3,-1
 640 768 l 1,0,-1
512 640 m 1,4,-1
 384 640 l 1,5,-1
 384 768 l 1,6,-1
 512 768 l 1,7,-1
 512 640 l 1,4,-1
EndSplineSet
EndChar

StartChar: dieresistonos
Encoding: 901 901 231
Width: 1024
GlyphClass: 1
Flags: W
LayerCount: 2
Fore
SplineSet
256 768 m 1,0,-1
 256 896 l 1,1,-1
 384 896 l 1,2,-1
 384 768 l 1,3,-1
 256 768 l 1,0,-1
512 896 m 1,4,-1
 768 896 l 1,5,-1
 768 768 l 1,6,-1
 512 768 l 1,7,-1
 512 896 l 1,4,-1
512 640 m 1,8,-1
 384 640 l 1,9,-1
 384 768 l 1,10,-1
 512 768 l 1,11,-1
 512 640 l 1,8,-1
EndSplineSet
EndChar

StartChar: Alphatonos
Encoding: 902 902 232
Width: 1024
GlyphClass: 1
Flags: W
LayerCount: 2
Fore
SplineSet
0 896 m 1,0,-1
 128 896 l 1,1,-1
 128 640 l 1,2,-1
 0 640 l 1,3,-1
 0 896 l 1,0,-1
768 768 m 1,4,-1
 768 640 l 1,5,-1
 896 640 l 1,6,-1
 896 0 l 1,7,-1
 640 0 l 1,8,-1
 640 256 l 1,9,-1
 384 256 l 1,10,-1
 384 0 l 1,11,-1
 128 0 l 1,12,-1
 128 640 l 1,13,-1
 256 640 l 1,14,-1
 256 768 l 1,15,-1
 384 768 l 1,16,-1
 384 896 l 1,17,-1
 640 896 l 1,18,-1
 640 768 l 1,19,-1
 768 768 l 1,4,-1
384 384 m 1,20,-1
 640 384 l 1,21,-1
 640 640 l 1,22,-1
 384 640 l 1,23,-1
 384 384 l 1,20,-1
EndSplineSet
EndChar

StartChar: Epsilontonos
Encoding: 904 904 233
Width: 1024
GlyphClass: 1
Flags: W
LayerCount: 2
Fore
SplineSet
0 640 m 1,0,-1
 0 896 l 1,1,-1
 128 896 l 1,2,-1
 128 640 l 1,3,-1
 0 640 l 1,0,-1
512 768 m 1,4,-1
 512 512 l 1,5,-1
 768 512 l 1,6,-1
 768 384 l 1,7,-1
 512 384 l 1,8,-1
 512 128 l 1,9,-1
 896 128 l 1,10,-1
 896 0 l 1,11,-1
 256 0 l 1,12,-1
 256 896 l 1,13,-1
 896 896 l 1,14,-1
 896 768 l 1,15,-1
 512 768 l 1,4,-1
EndSplineSet
EndChar

StartChar: Etatonos
Encoding: 905 905 234
Width: 1024
GlyphClass: 1
Flags: W
LayerCount: 2
Fore
SplineSet
0 640 m 1,0,-1
 0 896 l 1,1,-1
 128 896 l 1,2,-1
 128 640 l 1,3,-1
 0 640 l 1,0,-1
640 896 m 1,4,-1
 896 896 l 1,5,-1
 896 0 l 1,6,-1
 640 0 l 1,7,-1
 640 384 l 1,8,-1
 512 384 l 1,9,-1
 512 0 l 1,10,-1
 256 0 l 1,11,-1
 256 896 l 1,12,-1
 512 896 l 1,13,-1
 512 512 l 1,14,-1
 640 512 l 1,15,-1
 640 896 l 1,4,-1
EndSplineSet
EndChar

StartChar: Iotatonos
Encoding: 906 906 235
Width: 1024
GlyphClass: 1
Flags: W
LayerCount: 2
Fore
SplineSet
0 640 m 1,0,-1
 0 896 l 1,1,-1
 128 896 l 1,2,-1
 128 640 l 1,3,-1
 0 640 l 1,0,-1
640 128 m 1,4,-1
 768 128 l 1,5,-1
 768 0 l 1,6,-1
 256 0 l 1,7,-1
 256 128 l 1,8,-1
 384 128 l 1,9,-1
 384 768 l 1,10,-1
 256 768 l 1,11,-1
 256 896 l 1,12,-1
 768 896 l 1,13,-1
 768 768 l 1,14,-1
 640 768 l 1,15,-1
 640 128 l 1,4,-1
EndSplineSet
EndChar

StartChar: Omicrontonos
Encoding: 908 908 236
Width: 1024
GlyphClass: 1
Flags: W
LayerCount: 2
Fore
SplineSet
768 896 m 1,0,-1
 768 768 l 1,1,-1
 896 768 l 1,2,-1
 896 128 l 1,3,-1
 768 128 l 1,4,-1
 768 0 l 1,5,-1
 256 0 l 1,6,-1
 256 128 l 1,7,-1
 128 128 l 1,8,-1
 128 640 l 1,9,-1
 0 640 l 1,10,-1
 0 896 l 1,11,-1
 128 896 l 1,12,-1
 128 768 l 1,13,-1
 256 768 l 1,14,-1
 256 896 l 1,15,-1
 768 896 l 1,0,-1
384 128 m 1,16,-1
 640 128 l 1,17,-1
 640 768 l 1,18,-1
 384 768 l 1,19,-1
 384 128 l 1,16,-1
EndSplineSet
EndChar

StartChar: Upsilontonos
Encoding: 910 910 237
Width: 1024
GlyphClass: 1
Flags: W
LayerCount: 2
Fore
SplineSet
0 640 m 1,0,-1
 0 896 l 1,1,-1
 128 896 l 1,2,-1
 128 640 l 1,3,-1
 0 640 l 1,0,-1
640 896 m 1,4,-1
 896 896 l 1,5,-1
 896 512 l 1,6,-1
 768 512 l 1,7,-1
 768 0 l 1,8,-1
 512 0 l 1,9,-1
 512 384 l 1,10,-1
 384 384 l 1,11,-1
 384 512 l 1,12,-1
 256 512 l 1,13,-1
 256 896 l 1,14,-1
 512 896 l 1,15,-1
 512 512 l 1,16,-1
 640 512 l 1,17,-1
 640 896 l 1,4,-1
EndSplineSet
EndChar

StartChar: Omegatonos
Encoding: 911 911 238
Width: 1024
GlyphClass: 1
Flags: W
LayerCount: 2
Fore
SplineSet
0 640 m 1,0,-1
 0 896 l 1,1,-1
 128 896 l 1,2,-1
 128 640 l 1,3,-1
 0 640 l 1,0,-1
768 896 m 1,4,-1
 768 768 l 1,5,-1
 896 768 l 1,6,-1
 896 256 l 1,7,-1
 768 256 l 1,8,-1
 768 128 l 1,9,-1
 896 128 l 1,10,-1
 896 0 l 1,11,-1
 640 0 l 1,12,-1
 640 768 l 1,13,-1
 512 768 l 1,14,-1
 512 0 l 1,15,-1
 256 0 l 1,16,-1
 256 128 l 1,17,-1
 384 128 l 1,18,-1
 384 256 l 1,19,-1
 256 256 l 1,20,-1
 256 768 l 1,21,-1
 384 768 l 1,22,-1
 384 896 l 1,23,-1
 768 896 l 1,4,-1
EndSplineSet
EndChar

StartChar: iotadieresistonos
Encoding: 912 912 239
Width: 1024
GlyphClass: 1
Flags: W
LayerCount: 2
Fore
SplineSet
256 768 m 1,0,-1
 128 768 l 1,1,-1
 128 896 l 1,2,-1
 256 896 l 1,3,-1
 256 768 l 1,0,-1
640 128 m 1,4,-1
 768 128 l 1,5,-1
 768 0 l 1,6,-1
 512 0 l 1,7,-1
 512 128 l 1,8,-1
 384 128 l 1,9,-1
 384 896 l 1,10,-1
 512 896 l 1,11,-1
 512 640 l 1,12,-1
 640 640 l 1,13,-1
 640 128 l 1,4,-1
640 768 m 1,14,-1
 640 896 l 1,15,-1
 768 896 l 1,16,-1
 768 768 l 1,17,-1
 640 768 l 1,14,-1
EndSplineSet
EndChar

StartChar: Alpha
Encoding: 913 913 240
Width: 1024
GlyphClass: 1
Flags: W
LayerCount: 2
Fore
SplineSet
768 768 m 1,0,-1
 768 640 l 1,1,-1
 896 640 l 1,2,-1
 896 0 l 1,3,-1
 640 0 l 1,4,-1
 640 256 l 1,5,-1
 384 256 l 1,6,-1
 384 0 l 1,7,-1
 128 0 l 1,8,-1
 128 640 l 1,9,-1
 256 640 l 1,10,-1
 256 768 l 1,11,-1
 384 768 l 1,12,-1
 384 896 l 1,13,-1
 640 896 l 1,14,-1
 640 768 l 1,15,-1
 768 768 l 1,0,-1
384 384 m 1,16,-1
 640 384 l 1,17,-1
 640 640 l 1,18,-1
 384 640 l 1,19,-1
 384 384 l 1,16,-1
EndSplineSet
EndChar

StartChar: Beta
Encoding: 914 914 241
Width: 1024
GlyphClass: 1
Flags: W
LayerCount: 2
Fore
SplineSet
768 896 m 1,0,-1
 768 768 l 1,1,-1
 896 768 l 1,2,-1
 896 512 l 1,3,-1
 768 512 l 1,4,-1
 768 384 l 1,5,-1
 896 384 l 1,6,-1
 896 128 l 1,7,-1
 768 128 l 1,8,-1
 768 0 l 1,9,-1
 128 0 l 1,10,-1
 128 896 l 1,11,-1
 768 896 l 1,0,-1
384 512 m 1,12,-1
 640 512 l 1,13,-1
 640 768 l 1,14,-1
 384 768 l 1,15,-1
 384 512 l 1,12,-1
640 128 m 1,16,-1
 640 384 l 1,17,-1
 384 384 l 1,18,-1
 384 128 l 1,19,-1
 640 128 l 1,16,-1
EndSplineSet
EndChar

StartChar: Gamma
Encoding: 915 915 242
Width: 1024
GlyphClass: 1
Flags: W
LayerCount: 2
Fore
SplineSet
896 896 m 1,0,-1
 896 768 l 1,1,-1
 512 768 l 1,2,-1
 512 0 l 1,3,-1
 256 0 l 1,4,-1
 256 896 l 1,5,-1
 896 896 l 1,0,-1
EndSplineSet
EndChar

StartChar: uni0394
Encoding: 916 916 243
Width: 1024
GlyphClass: 1
Flags: W
LayerCount: 2
Fore
SplineSet
768 768 m 1,0,-1
 768 640 l 1,1,-1
 896 640 l 1,2,-1
 896 0 l 1,3,-1
 128 0 l 1,4,-1
 128 640 l 1,5,-1
 256 640 l 1,6,-1
 256 768 l 1,7,-1
 384 768 l 1,8,-1
 384 896 l 1,9,-1
 640 896 l 1,10,-1
 640 768 l 1,11,-1
 768 768 l 1,0,-1
384 128 m 1,12,-1
 640 128 l 1,13,-1
 640 640 l 1,14,-1
 384 640 l 1,15,-1
 384 128 l 1,12,-1
EndSplineSet
EndChar

StartChar: Epsilon
Encoding: 917 917 244
Width: 1024
GlyphClass: 1
Flags: W
LayerCount: 2
Fore
SplineSet
384 768 m 1,0,-1
 384 512 l 1,1,-1
 640 512 l 1,2,-1
 640 384 l 1,3,-1
 384 384 l 1,4,-1
 384 128 l 1,5,-1
 896 128 l 1,6,-1
 896 0 l 1,7,-1
 128 0 l 1,8,-1
 128 896 l 1,9,-1
 896 896 l 1,10,-1
 896 768 l 1,11,-1
 384 768 l 1,0,-1
EndSplineSet
EndChar

StartChar: Zeta
Encoding: 918 918 245
Width: 1024
GlyphClass: 1
Flags: W
LayerCount: 2
Fore
SplineSet
896 896 m 1,0,-1
 896 640 l 1,1,-1
 768 640 l 1,2,-1
 768 512 l 1,3,-1
 640 512 l 1,4,-1
 640 384 l 1,5,-1
 512 384 l 1,6,-1
 512 256 l 1,7,-1
 384 256 l 1,8,-1
 384 128 l 1,9,-1
 896 128 l 1,10,-1
 896 0 l 1,11,-1
 128 0 l 1,12,-1
 128 256 l 1,13,-1
 256 256 l 1,14,-1
 256 384 l 1,15,-1
 384 384 l 1,16,-1
 384 512 l 1,17,-1
 512 512 l 1,18,-1
 512 640 l 1,19,-1
 640 640 l 1,20,-1
 640 768 l 1,21,-1
 128 768 l 1,22,-1
 128 896 l 1,23,-1
 896 896 l 1,0,-1
EndSplineSet
EndChar

StartChar: Eta
Encoding: 919 919 246
Width: 1024
GlyphClass: 1
Flags: W
LayerCount: 2
Fore
SplineSet
640 896 m 1,0,-1
 896 896 l 1,1,-1
 896 0 l 1,2,-1
 640 0 l 1,3,-1
 640 384 l 1,4,-1
 384 384 l 1,5,-1
 384 0 l 1,6,-1
 128 0 l 1,7,-1
 128 896 l 1,8,-1
 384 896 l 1,9,-1
 384 512 l 1,10,-1
 640 512 l 1,11,-1
 640 896 l 1,0,-1
EndSplineSet
EndChar

StartChar: Theta
Encoding: 920 920 247
Width: 1024
GlyphClass: 1
Flags: W
LayerCount: 2
Fore
SplineSet
768 896 m 1,0,-1
 768 768 l 1,1,-1
 896 768 l 1,2,-1
 896 128 l 1,3,-1
 768 128 l 1,4,-1
 768 0 l 1,5,-1
 256 0 l 1,6,-1
 256 128 l 1,7,-1
 128 128 l 1,8,-1
 128 768 l 1,9,-1
 256 768 l 1,10,-1
 256 896 l 1,11,-1
 768 896 l 1,0,-1
384 128 m 1,12,-1
 640 128 l 1,13,-1
 640 768 l 1,14,-1
 384 768 l 1,15,-1
 384 128 l 1,12,-1
EndSplineSet
EndChar

StartChar: Iota
Encoding: 921 921 248
Width: 1024
GlyphClass: 1
Flags: W
LayerCount: 2
Fore
SplineSet
640 128 m 1,0,-1
 768 128 l 1,1,-1
 768 0 l 1,2,-1
 256 0 l 1,3,-1
 256 128 l 1,4,-1
 384 128 l 1,5,-1
 384 768 l 1,6,-1
 256 768 l 1,7,-1
 256 896 l 1,8,-1
 768 896 l 1,9,-1
 768 768 l 1,10,-1
 640 768 l 1,11,-1
 640 128 l 1,0,-1
EndSplineSet
EndChar

StartChar: Kappa
Encoding: 922 922 249
Width: 1024
GlyphClass: 1
Flags: W
LayerCount: 2
Fore
SplineSet
640 896 m 1,0,-1
 896 896 l 1,1,-1
 896 640 l 1,2,-1
 768 640 l 1,3,-1
 768 512 l 1,4,-1
 640 512 l 1,5,-1
 640 384 l 1,6,-1
 768 384 l 1,7,-1
 768 256 l 1,8,-1
 896 256 l 1,9,-1
 896 0 l 1,10,-1
 640 0 l 1,11,-1
 640 256 l 1,12,-1
 512 256 l 1,13,-1
 512 384 l 1,14,-1
 384 384 l 1,15,-1
 384 0 l 1,16,-1
 128 0 l 1,17,-1
 128 896 l 1,18,-1
 384 896 l 1,19,-1
 384 512 l 1,20,-1
 512 512 l 1,21,-1
 512 640 l 1,22,-1
 640 640 l 1,23,-1
 640 896 l 1,0,-1
EndSplineSet
EndChar

StartChar: Lambda
Encoding: 923 923 250
Width: 1024
GlyphClass: 1
Flags: W
LayerCount: 2
Fore
SplineSet
768 768 m 1,0,-1
 768 640 l 1,1,-1
 896 640 l 1,2,-1
 896 0 l 1,3,-1
 640 0 l 1,4,-1
 640 640 l 1,5,-1
 384 640 l 1,6,-1
 384 0 l 1,7,-1
 128 0 l 1,8,-1
 128 640 l 1,9,-1
 256 640 l 1,10,-1
 256 768 l 1,11,-1
 384 768 l 1,12,-1
 384 896 l 1,13,-1
 640 896 l 1,14,-1
 640 768 l 1,15,-1
 768 768 l 1,0,-1
EndSplineSet
EndChar

StartChar: Mu
Encoding: 924 924 251
Width: 1024
GlyphClass: 1
Flags: W
LayerCount: 2
Fore
SplineSet
640 896 m 1,0,-1
 896 896 l 1,1,-1
 896 0 l 1,2,-1
 640 0 l 1,3,-1
 640 512 l 1,4,-1
 512 512 l 1,5,-1
 512 384 l 1,6,-1
 384 384 l 1,7,-1
 384 512 l 1,8,-1
 256 512 l 1,9,-1
 256 0 l 1,10,-1
 0 0 l 1,11,-1
 0 896 l 1,12,-1
 256 896 l 1,13,-1
 256 768 l 1,14,-1
 384 768 l 1,15,-1
 384 640 l 1,16,-1
 512 640 l 1,17,-1
 512 768 l 1,18,-1
 640 768 l 1,19,-1
 640 896 l 1,0,-1
EndSplineSet
EndChar

StartChar: Nu
Encoding: 925 925 252
Width: 1024
GlyphClass: 1
Flags: W
LayerCount: 2
Fore
SplineSet
640 896 m 1,0,-1
 896 896 l 1,1,-1
 896 0 l 1,2,-1
 640 0 l 1,3,-1
 640 384 l 1,4,-1
 512 384 l 1,5,-1
 512 512 l 1,6,-1
 384 512 l 1,7,-1
 384 0 l 1,8,-1
 128 0 l 1,9,-1
 128 896 l 1,10,-1
 384 896 l 1,11,-1
 384 768 l 1,12,-1
 512 768 l 1,13,-1
 512 640 l 1,14,-1
 640 640 l 1,15,-1
 640 896 l 1,0,-1
EndSplineSet
EndChar

StartChar: Xi
Encoding: 926 926 253
Width: 1024
GlyphClass: 1
Flags: W
LayerCount: 2
Fore
SplineSet
896 896 m 1,0,-1
 896 768 l 1,1,-1
 128 768 l 1,2,-1
 128 896 l 1,3,-1
 896 896 l 1,0,-1
256 384 m 1,4,-1
 256 512 l 1,5,-1
 768 512 l 1,6,-1
 768 384 l 1,7,-1
 256 384 l 1,4,-1
896 128 m 1,8,-1
 896 0 l 1,9,-1
 128 0 l 1,10,-1
 128 128 l 1,11,-1
 896 128 l 1,8,-1
EndSplineSet
EndChar

StartChar: Omicron
Encoding: 927 927 254
Width: 1024
GlyphClass: 1
Flags: W
LayerCount: 2
Fore
SplineSet
768 896 m 1,0,-1
 768 768 l 1,1,-1
 896 768 l 1,2,-1
 896 128 l 1,3,-1
 768 128 l 1,4,-1
 768 0 l 1,5,-1
 256 0 l 1,6,-1
 256 128 l 1,7,-1
 128 128 l 1,8,-1
 128 768 l 1,9,-1
 256 768 l 1,10,-1
 256 896 l 1,11,-1
 768 896 l 1,0,-1
384 128 m 1,12,-1
 640 128 l 1,13,-1
 640 768 l 1,14,-1
 384 768 l 1,15,-1
 384 128 l 1,12,-1
EndSplineSet
EndChar

StartChar: Pi
Encoding: 928 928 255
Width: 1024
GlyphClass: 1
Flags: W
LayerCount: 2
Fore
SplineSet
896 896 m 1,0,-1
 896 0 l 1,1,-1
 640 0 l 1,2,-1
 640 768 l 1,3,-1
 384 768 l 1,4,-1
 384 0 l 1,5,-1
 128 0 l 1,6,-1
 128 896 l 1,7,-1
 896 896 l 1,0,-1
EndSplineSet
EndChar

StartChar: Rho
Encoding: 929 929 256
Width: 1024
GlyphClass: 1
Flags: W
LayerCount: 2
Fore
SplineSet
768 896 m 1,0,-1
 768 768 l 1,1,-1
 896 768 l 1,2,-1
 896 512 l 1,3,-1
 768 512 l 1,4,-1
 768 384 l 1,5,-1
 384 384 l 1,6,-1
 384 0 l 1,7,-1
 128 0 l 1,8,-1
 128 896 l 1,9,-1
 768 896 l 1,0,-1
384 512 m 1,10,-1
 640 512 l 1,11,-1
 640 768 l 1,12,-1
 384 768 l 1,13,-1
 384 512 l 1,10,-1
EndSplineSet
EndChar

StartChar: Sigma
Encoding: 931 931 257
Width: 1024
GlyphClass: 1
Flags: W
LayerCount: 2
Fore
SplineSet
896 896 m 1,0,-1
 896 640 l 1,1,-1
 640 640 l 1,2,-1
 640 768 l 1,3,-1
 384 768 l 1,4,-1
 384 640 l 1,5,-1
 512 640 l 1,6,-1
 512 512 l 1,7,-1
 640 512 l 1,8,-1
 640 384 l 1,9,-1
 512 384 l 1,10,-1
 512 256 l 1,11,-1
 384 256 l 1,12,-1
 384 128 l 1,13,-1
 640 128 l 1,14,-1
 640 256 l 1,15,-1
 896 256 l 1,16,-1
 896 0 l 1,17,-1
 128 0 l 1,18,-1
 128 256 l 1,19,-1
 256 256 l 1,20,-1
 256 384 l 1,21,-1
 384 384 l 1,22,-1
 384 512 l 1,23,-1
 256 512 l 1,24,-1
 256 640 l 1,25,-1
 128 640 l 1,26,-1
 128 896 l 1,27,-1
 896 896 l 1,0,-1
EndSplineSet
EndChar

StartChar: Tau
Encoding: 932 932 258
Width: 1024
GlyphClass: 1
Flags: W
LayerCount: 2
Fore
SplineSet
896 896 m 1,0,-1
 896 768 l 1,1,-1
 640 768 l 1,2,-1
 640 0 l 1,3,-1
 384 0 l 1,4,-1
 384 768 l 1,5,-1
 128 768 l 1,6,-1
 128 896 l 1,7,-1
 896 896 l 1,0,-1
EndSplineSet
EndChar

StartChar: Upsilon
Encoding: 933 933 259
Width: 1024
GlyphClass: 1
Flags: W
LayerCount: 2
Fore
SplineSet
640 896 m 1,0,-1
 896 896 l 1,1,-1
 896 512 l 1,2,-1
 768 512 l 1,3,-1
 768 384 l 1,4,-1
 640 384 l 1,5,-1
 640 0 l 1,6,-1
 384 0 l 1,7,-1
 384 384 l 1,8,-1
 256 384 l 1,9,-1
 256 512 l 1,10,-1
 128 512 l 1,11,-1
 128 896 l 1,12,-1
 384 896 l 1,13,-1
 384 512 l 1,14,-1
 640 512 l 1,15,-1
 640 896 l 1,0,-1
EndSplineSet
EndChar

StartChar: Phi
Encoding: 934 934 260
Width: 1024
GlyphClass: 1
Flags: W
LayerCount: 2
Fore
SplineSet
768 896 m 1,0,-1
 768 768 l 1,1,-1
 896 768 l 1,2,-1
 896 128 l 1,3,-1
 768 128 l 1,4,-1
 768 0 l 1,5,-1
 128 0 l 1,6,-1
 128 128 l 1,7,-1
 0 128 l 1,8,-1
 0 768 l 1,9,-1
 128 768 l 1,10,-1
 128 896 l 1,11,-1
 768 896 l 1,0,-1
256 128 m 1,12,-1
 384 128 l 1,13,-1
 384 768 l 1,14,-1
 256 768 l 1,15,-1
 256 128 l 1,12,-1
512 128 m 1,16,-1
 640 128 l 1,17,-1
 640 768 l 1,18,-1
 512 768 l 1,19,-1
 512 128 l 1,16,-1
EndSplineSet
EndChar

StartChar: Chi
Encoding: 935 935 261
Width: 1024
GlyphClass: 1
Flags: W
LayerCount: 2
Fore
SplineSet
640 896 m 1,0,-1
 896 896 l 1,1,-1
 896 640 l 1,2,-1
 768 640 l 1,3,-1
 768 512 l 1,4,-1
 640 512 l 1,5,-1
 640 384 l 1,6,-1
 768 384 l 1,7,-1
 768 256 l 1,8,-1
 896 256 l 1,9,-1
 896 0 l 1,10,-1
 640 0 l 1,11,-1
 640 256 l 1,12,-1
 384 256 l 1,13,-1
 384 0 l 1,14,-1
 128 0 l 1,15,-1
 128 256 l 1,16,-1
 256 256 l 1,17,-1
 256 384 l 1,18,-1
 384 384 l 1,19,-1
 384 512 l 1,20,-1
 256 512 l 1,21,-1
 256 640 l 1,22,-1
 128 640 l 1,23,-1
 128 896 l 1,24,-1
 384 896 l 1,25,-1
 384 640 l 1,26,-1
 640 640 l 1,27,-1
 640 896 l 1,0,-1
EndSplineSet
EndChar

StartChar: Psi
Encoding: 936 936 262
Width: 1024
GlyphClass: 1
Flags: W
LayerCount: 2
Fore
SplineSet
640 896 m 1,0,-1
 896 896 l 1,1,-1
 896 384 l 1,2,-1
 768 384 l 1,3,-1
 768 256 l 1,4,-1
 512 256 l 1,5,-1
 512 0 l 1,6,-1
 384 0 l 1,7,-1
 384 256 l 1,8,-1
 128 256 l 1,9,-1
 128 384 l 1,10,-1
 0 384 l 1,11,-1
 0 896 l 1,12,-1
 256 896 l 1,13,-1
 256 384 l 1,14,-1
 384 384 l 1,15,-1
 384 896 l 1,16,-1
 512 896 l 1,17,-1
 512 384 l 1,18,-1
 640 384 l 1,19,-1
 640 896 l 1,0,-1
EndSplineSet
EndChar

StartChar: uni03A9
Encoding: 937 937 263
Width: 1024
GlyphClass: 1
Flags: W
LayerCount: 2
Fore
SplineSet
768 896 m 1,0,-1
 768 768 l 1,1,-1
 896 768 l 1,2,-1
 896 256 l 1,3,-1
 768 256 l 1,4,-1
 768 128 l 1,5,-1
 896 128 l 1,6,-1
 896 0 l 1,7,-1
 640 0 l 1,8,-1
 640 768 l 1,9,-1
 384 768 l 1,10,-1
 384 0 l 1,11,-1
 128 0 l 1,12,-1
 128 128 l 1,13,-1
 256 128 l 1,14,-1
 256 256 l 1,15,-1
 128 256 l 1,16,-1
 128 768 l 1,17,-1
 256 768 l 1,18,-1
 256 896 l 1,19,-1
 768 896 l 1,0,-1
EndSplineSet
EndChar

StartChar: Iotadieresis
Encoding: 938 938 264
Width: 1024
GlyphClass: 1
Flags: W
LayerCount: 2
Fore
SplineSet
256 896 m 1,0,-1
 384 896 l 1,1,-1
 384 768 l 1,2,-1
 256 768 l 1,3,-1
 256 896 l 1,0,-1
640 768 m 1,4,-1
 640 896 l 1,5,-1
 768 896 l 1,6,-1
 768 768 l 1,7,-1
 640 768 l 1,4,-1
768 640 m 1,8,-1
 768 512 l 1,9,-1
 640 512 l 1,10,-1
 640 128 l 1,11,-1
 768 128 l 1,12,-1
 768 0 l 1,13,-1
 256 0 l 1,14,-1
 256 128 l 1,15,-1
 384 128 l 1,16,-1
 384 512 l 1,17,-1
 256 512 l 1,18,-1
 256 640 l 1,19,-1
 768 640 l 1,8,-1
EndSplineSet
EndChar

StartChar: Upsilondieresis
Encoding: 939 939 265
Width: 1024
GlyphClass: 1
Flags: W
LayerCount: 2
Fore
SplineSet
256 896 m 1,0,-1
 384 896 l 1,1,-1
 384 768 l 1,2,-1
 256 768 l 1,3,-1
 256 896 l 1,0,-1
640 896 m 1,4,-1
 768 896 l 1,5,-1
 768 768 l 1,6,-1
 640 768 l 1,7,-1
 640 896 l 1,4,-1
640 640 m 1,8,-1
 896 640 l 1,9,-1
 896 384 l 1,10,-1
 768 384 l 1,11,-1
 768 256 l 1,12,-1
 640 256 l 1,13,-1
 640 0 l 1,14,-1
 384 0 l 1,15,-1
 384 256 l 1,16,-1
 256 256 l 1,17,-1
 256 384 l 1,18,-1
 128 384 l 1,19,-1
 128 640 l 1,20,-1
 384 640 l 1,21,-1
 384 384 l 1,22,-1
 640 384 l 1,23,-1
 640 640 l 1,8,-1
EndSplineSet
EndChar

StartChar: alphatonos
Encoding: 940 940 266
Width: 1024
GlyphClass: 1
Flags: W
LayerCount: 2
Fore
SplineSet
512 896 m 1,0,-1
 640 896 l 1,1,-1
 640 768 l 1,2,-1
 512 768 l 1,3,-1
 512 896 l 1,0,-1
896 512 m 1,4,-1
 896 384 l 1,5,-1
 768 384 l 1,6,-1
 768 256 l 1,7,-1
 896 256 l 1,8,-1
 896 128 l 1,9,-1
 1024 128 l 1,10,-1
 1024 0 l 1,11,-1
 768 0 l 1,12,-1
 768 128 l 1,13,-1
 640 128 l 1,14,-1
 640 0 l 1,15,-1
 256 0 l 1,16,-1
 256 128 l 1,17,-1
 128 128 l 1,18,-1
 128 512 l 1,19,-1
 256 512 l 1,20,-1
 256 640 l 1,21,-1
 384 640 l 1,22,-1
 384 768 l 1,23,-1
 512 768 l 1,24,-1
 512 640 l 1,25,-1
 640 640 l 1,26,-1
 640 512 l 1,27,-1
 768 512 l 1,28,-1
 768 640 l 1,29,-1
 1024 640 l 1,30,-1
 1024 512 l 1,31,-1
 896 512 l 1,4,-1
384 128 m 1,32,-1
 512 128 l 1,33,-1
 512 512 l 1,34,-1
 384 512 l 1,35,-1
 384 128 l 1,32,-1
EndSplineSet
EndChar

StartChar: epsilontonos
Encoding: 941 941 267
Width: 1024
GlyphClass: 1
Flags: W
LayerCount: 2
Fore
SplineSet
512 896 m 1,0,-1
 640 896 l 1,1,-1
 640 768 l 1,2,-1
 512 768 l 1,3,-1
 512 896 l 1,0,-1
896 384 m 1,4,-1
 640 384 l 1,5,-1
 640 512 l 1,6,-1
 384 512 l 1,7,-1
 384 384 l 1,8,-1
 512 384 l 1,9,-1
 512 256 l 1,10,-1
 384 256 l 1,11,-1
 384 128 l 1,12,-1
 640 128 l 1,13,-1
 640 256 l 1,14,-1
 896 256 l 1,15,-1
 896 128 l 1,16,-1
 768 128 l 1,17,-1
 768 0 l 1,18,-1
 256 0 l 1,19,-1
 256 128 l 1,20,-1
 128 128 l 1,21,-1
 128 512 l 1,22,-1
 256 512 l 1,23,-1
 256 640 l 1,24,-1
 384 640 l 1,25,-1
 384 768 l 1,26,-1
 512 768 l 1,27,-1
 512 640 l 1,28,-1
 768 640 l 1,29,-1
 768 512 l 1,30,-1
 896 512 l 1,31,-1
 896 384 l 1,4,-1
EndSplineSet
EndChar

StartChar: etatonos
Encoding: 942 942 268
Width: 1024
GlyphClass: 1
Flags: W
LayerCount: 2
Fore
SplineSet
512 896 m 1,0,-1
 640 896 l 1,1,-1
 640 768 l 1,2,-1
 512 768 l 1,3,-1
 512 896 l 1,0,-1
768 640 m 1,4,-1
 768 512 l 1,5,-1
 896 512 l 1,6,-1
 896 -128 l 1,7,-1
 640 -128 l 1,8,-1
 640 512 l 1,9,-1
 384 512 l 1,10,-1
 384 768 l 1,11,-1
 512 768 l 1,12,-1
 512 640 l 1,13,-1
 768 640 l 1,4,-1
256 640 m 1,14,-1
 256 512 l 1,15,-1
 384 512 l 1,16,-1
 384 0 l 1,17,-1
 128 0 l 1,18,-1
 128 512 l 1,19,-1
 0 512 l 1,20,-1
 0 640 l 1,21,-1
 256 640 l 1,14,-1
EndSplineSet
EndChar

StartChar: iotatonos
Encoding: 943 943 269
Width: 1024
GlyphClass: 1
Flags: W
LayerCount: 2
Fore
SplineSet
512 896 m 1,0,-1
 640 896 l 1,1,-1
 640 768 l 1,2,-1
 512 768 l 1,3,-1
 512 896 l 1,0,-1
640 128 m 1,4,-1
 768 128 l 1,5,-1
 768 0 l 1,6,-1
 512 0 l 1,7,-1
 512 128 l 1,8,-1
 384 128 l 1,9,-1
 384 768 l 1,10,-1
 512 768 l 1,11,-1
 512 640 l 1,12,-1
 640 640 l 1,13,-1
 640 128 l 1,4,-1
EndSplineSet
EndChar

StartChar: upsilondieresistonos
Encoding: 944 944 270
Width: 1024
GlyphClass: 1
Flags: W
LayerCount: 2
Fore
SplineSet
128 896 m 1,0,-1
 256 896 l 1,1,-1
 256 768 l 1,2,-1
 128 768 l 1,3,-1
 128 896 l 1,0,-1
512 896 m 1,4,-1
 512 640 l 1,5,-1
 384 640 l 1,6,-1
 384 896 l 1,7,-1
 512 896 l 1,4,-1
640 896 m 1,8,-1
 768 896 l 1,9,-1
 768 768 l 1,10,-1
 640 768 l 1,11,-1
 640 896 l 1,8,-1
768 640 m 1,12,-1
 768 512 l 1,13,-1
 896 512 l 1,14,-1
 896 128 l 1,15,-1
 768 128 l 1,16,-1
 768 0 l 1,17,-1
 256 0 l 1,18,-1
 256 128 l 1,19,-1
 128 128 l 1,20,-1
 128 640 l 1,21,-1
 384 640 l 1,22,-1
 384 128 l 1,23,-1
 640 128 l 1,24,-1
 640 512 l 1,25,-1
 512 512 l 1,26,-1
 512 640 l 1,27,-1
 768 640 l 1,12,-1
EndSplineSet
EndChar

StartChar: alpha
Encoding: 945 945 271
Width: 1024
GlyphClass: 1
Flags: W
LayerCount: 2
Fore
SplineSet
896 512 m 1,0,-1
 896 384 l 1,1,-1
 768 384 l 1,2,-1
 768 256 l 1,3,-1
 896 256 l 1,4,-1
 896 128 l 1,5,-1
 1024 128 l 1,6,-1
 1024 0 l 1,7,-1
 768 0 l 1,8,-1
 768 128 l 1,9,-1
 640 128 l 1,10,-1
 640 0 l 1,11,-1
 256 0 l 1,12,-1
 256 128 l 1,13,-1
 128 128 l 1,14,-1
 128 512 l 1,15,-1
 256 512 l 1,16,-1
 256 640 l 1,17,-1
 640 640 l 1,18,-1
 640 512 l 1,19,-1
 768 512 l 1,20,-1
 768 640 l 1,21,-1
 1024 640 l 1,22,-1
 1024 512 l 1,23,-1
 896 512 l 1,0,-1
384 128 m 1,24,-1
 512 128 l 1,25,-1
 512 512 l 1,26,-1
 384 512 l 1,27,-1
 384 128 l 1,24,-1
EndSplineSet
EndChar

StartChar: beta
Encoding: 946 946 272
Width: 1024
GlyphClass: 1
Flags: W
LayerCount: 2
Fore
SplineSet
896 640 m 1,0,-1
 896 512 l 1,1,-1
 768 512 l 1,2,-1
 768 384 l 1,3,-1
 896 384 l 1,4,-1
 896 128 l 1,5,-1
 768 128 l 1,6,-1
 768 0 l 1,7,-1
 512 0 l 1,8,-1
 512 -128 l 1,9,-1
 256 -128 l 1,10,-1
 256 640 l 1,11,-1
 384 640 l 1,12,-1
 384 768 l 1,13,-1
 768 768 l 1,14,-1
 768 640 l 1,15,-1
 896 640 l 1,0,-1
512 640 m 1,16,-1
 512 512 l 1,17,-1
 640 512 l 1,18,-1
 640 640 l 1,19,-1
 512 640 l 1,16,-1
640 128 m 1,20,-1
 640 384 l 1,21,-1
 512 384 l 1,22,-1
 512 128 l 1,23,-1
 640 128 l 1,20,-1
EndSplineSet
EndChar

StartChar: gamma
Encoding: 947 947 273
Width: 1024
GlyphClass: 1
Flags: W
LayerCount: 2
Fore
SplineSet
640 640 m 1,0,-1
 896 640 l 1,1,-1
 896 256 l 1,2,-1
 768 256 l 1,3,-1
 768 128 l 1,4,-1
 640 128 l 1,5,-1
 640 -128 l 1,6,-1
 384 -128 l 1,7,-1
 384 128 l 1,8,-1
 256 128 l 1,9,-1
 256 256 l 1,10,-1
 128 256 l 1,11,-1
 128 640 l 1,12,-1
 384 640 l 1,13,-1
 384 256 l 1,14,-1
 640 256 l 1,15,-1
 640 640 l 1,0,-1
EndSplineSet
EndChar

StartChar: delta
Encoding: 948 948 274
Width: 1024
GlyphClass: 1
Flags: W
LayerCount: 2
Fore
SplineSet
768 512 m 1,0,-1
 768 384 l 1,1,-1
 896 384 l 1,2,-1
 896 128 l 1,3,-1
 768 128 l 1,4,-1
 768 0 l 1,5,-1
 256 0 l 1,6,-1
 256 128 l 1,7,-1
 128 128 l 1,8,-1
 128 384 l 1,9,-1
 256 384 l 1,10,-1
 256 512 l 1,11,-1
 128 512 l 1,12,-1
 128 640 l 1,13,-1
 256 640 l 1,14,-1
 256 768 l 1,15,-1
 768 768 l 1,16,-1
 768 640 l 1,17,-1
 384 640 l 1,18,-1
 384 512 l 1,19,-1
 768 512 l 1,0,-1
384 128 m 1,20,-1
 640 128 l 1,21,-1
 640 384 l 1,22,-1
 384 384 l 1,23,-1
 384 128 l 1,20,-1
EndSplineSet
EndChar

StartChar: epsilon
Encoding: 949 949 275
Width: 1024
GlyphClass: 1
Flags: W
LayerCount: 2
Fore
SplineSet
896 384 m 1,0,-1
 640 384 l 1,1,-1
 640 512 l 1,2,-1
 384 512 l 1,3,-1
 384 384 l 1,4,-1
 512 384 l 1,5,-1
 512 256 l 1,6,-1
 384 256 l 1,7,-1
 384 128 l 1,8,-1
 640 128 l 1,9,-1
 640 256 l 1,10,-1
 896 256 l 1,11,-1
 896 128 l 1,12,-1
 768 128 l 1,13,-1
 768 0 l 1,14,-1
 256 0 l 1,15,-1
 256 128 l 1,16,-1
 128 128 l 1,17,-1
 128 512 l 1,18,-1
 256 512 l 1,19,-1
 256 640 l 1,20,-1
 768 640 l 1,21,-1
 768 512 l 1,22,-1
 896 512 l 1,23,-1
 896 384 l 1,0,-1
EndSplineSet
EndChar

StartChar: zeta
Encoding: 950 950 276
Width: 1024
GlyphClass: 1
Flags: W
LayerCount: 2
Fore
SplineSet
768 128 m 1,0,-1
 768 0 l 1,1,-1
 896 0 l 1,2,-1
 896 -128 l 1,3,-1
 640 -128 l 1,4,-1
 640 0 l 1,5,-1
 384 0 l 1,6,-1
 384 128 l 1,7,-1
 256 128 l 1,8,-1
 256 384 l 1,9,-1
 384 384 l 1,10,-1
 384 512 l 1,11,-1
 512 512 l 1,12,-1
 512 640 l 1,13,-1
 256 640 l 1,14,-1
 256 768 l 1,15,-1
 768 768 l 1,16,-1
 768 512 l 1,17,-1
 640 512 l 1,18,-1
 640 384 l 1,19,-1
 512 384 l 1,20,-1
 512 128 l 1,21,-1
 768 128 l 1,0,-1
EndSplineSet
EndChar

StartChar: eta
Encoding: 951 951 277
Width: 1024
GlyphClass: 1
Flags: W
LayerCount: 2
Fore
SplineSet
256 640 m 1,0,-1
 256 512 l 1,1,-1
 384 512 l 1,2,-1
 384 0 l 1,3,-1
 128 0 l 1,4,-1
 128 512 l 1,5,-1
 0 512 l 1,6,-1
 0 640 l 1,7,-1
 256 640 l 1,0,-1
768 640 m 1,8,-1
 768 512 l 1,9,-1
 896 512 l 1,10,-1
 896 -128 l 1,11,-1
 640 -128 l 1,12,-1
 640 512 l 1,13,-1
 384 512 l 1,14,-1
 384 640 l 1,15,-1
 768 640 l 1,8,-1
EndSplineSet
EndChar

StartChar: theta
Encoding: 952 952 278
Width: 1024
GlyphClass: 1
Flags: W
LayerCount: 2
Fore
SplineSet
768 768 m 1,0,-1
 768 640 l 1,1,-1
 896 640 l 1,2,-1
 896 128 l 1,3,-1
 768 128 l 1,4,-1
 768 0 l 1,5,-1
 256 0 l 1,6,-1
 256 128 l 1,7,-1
 128 128 l 1,8,-1
 128 640 l 1,9,-1
 256 640 l 1,10,-1
 256 768 l 1,11,-1
 768 768 l 1,0,-1
640 640 m 1,12,-1
 384 640 l 1,13,-1
 384 512 l 1,14,-1
 640 512 l 1,15,-1
 640 640 l 1,12,-1
384 128 m 1,16,-1
 640 128 l 1,17,-1
 640 384 l 1,18,-1
 384 384 l 1,19,-1
 384 128 l 1,16,-1
EndSplineSet
EndChar

StartChar: iota
Encoding: 953 953 279
Width: 1024
GlyphClass: 1
Flags: W
LayerCount: 2
Fore
SplineSet
640 128 m 1,0,-1
 768 128 l 1,1,-1
 768 0 l 1,2,-1
 512 0 l 1,3,-1
 512 128 l 1,4,-1
 384 128 l 1,5,-1
 384 640 l 1,6,-1
 640 640 l 1,7,-1
 640 128 l 1,0,-1
EndSplineSet
EndChar

StartChar: kappa
Encoding: 954 954 280
Width: 1024
GlyphClass: 1
Flags: W
LayerCount: 2
Fore
SplineSet
640 640 m 1,0,-1
 896 640 l 1,1,-1
 896 384 l 1,2,-1
 640 384 l 1,3,-1
 640 256 l 1,4,-1
 768 256 l 1,5,-1
 768 128 l 1,6,-1
 896 128 l 1,7,-1
 896 0 l 1,8,-1
 640 0 l 1,9,-1
 640 128 l 1,10,-1
 512 128 l 1,11,-1
 512 256 l 1,12,-1
 384 256 l 1,13,-1
 384 0 l 1,14,-1
 128 0 l 1,15,-1
 128 640 l 1,16,-1
 384 640 l 1,17,-1
 384 384 l 1,18,-1
 512 384 l 1,19,-1
 512 512 l 1,20,-1
 640 512 l 1,21,-1
 640 640 l 1,0,-1
EndSplineSet
EndChar

StartChar: lambda
Encoding: 955 955 281
Width: 1024
GlyphClass: 1
Flags: W
LayerCount: 2
Fore
SplineSet
768 256 m 1,0,-1
 896 256 l 1,1,-1
 896 0 l 1,2,-1
 640 0 l 1,3,-1
 640 256 l 1,4,-1
 512 256 l 1,5,-1
 512 128 l 1,6,-1
 384 128 l 1,7,-1
 384 0 l 1,8,-1
 128 0 l 1,9,-1
 128 128 l 1,10,-1
 256 128 l 1,11,-1
 256 256 l 1,12,-1
 384 256 l 1,13,-1
 384 384 l 1,14,-1
 512 384 l 1,15,-1
 512 512 l 1,16,-1
 384 512 l 1,17,-1
 384 640 l 1,18,-1
 256 640 l 1,19,-1
 256 768 l 1,20,-1
 512 768 l 1,21,-1
 512 640 l 1,22,-1
 640 640 l 1,23,-1
 640 512 l 1,24,-1
 768 512 l 1,25,-1
 768 256 l 1,0,-1
EndSplineSet
EndChar

StartChar: uni03BC
Encoding: 956 956 282
Width: 1024
GlyphClass: 1
Flags: W
LayerCount: 2
Fore
SplineSet
384 128 m 1,0,-1
 640 128 l 1,1,-1
 640 0 l 1,2,-1
 384 0 l 1,3,-1
 384 -128 l 1,4,-1
 128 -128 l 1,5,-1
 128 640 l 1,6,-1
 384 640 l 1,7,-1
 384 128 l 1,0,-1
896 128 m 1,8,-1
 1024 128 l 1,9,-1
 1024 0 l 1,10,-1
 768 0 l 1,11,-1
 768 128 l 1,12,-1
 640 128 l 1,13,-1
 640 640 l 1,14,-1
 896 640 l 1,15,-1
 896 128 l 1,8,-1
EndSplineSet
EndChar

StartChar: nu
Encoding: 957 957 283
Width: 1024
GlyphClass: 1
Flags: W
LayerCount: 2
Fore
SplineSet
640 640 m 1,0,-1
 896 640 l 1,1,-1
 896 256 l 1,2,-1
 768 256 l 1,3,-1
 768 128 l 1,4,-1
 640 128 l 1,5,-1
 640 0 l 1,6,-1
 384 0 l 1,7,-1
 384 128 l 1,8,-1
 256 128 l 1,9,-1
 256 384 l 1,10,-1
 128 384 l 1,11,-1
 128 640 l 1,12,-1
 384 640 l 1,13,-1
 384 384 l 1,14,-1
 512 384 l 1,15,-1
 512 256 l 1,16,-1
 640 256 l 1,17,-1
 640 640 l 1,0,-1
EndSplineSet
EndChar

StartChar: xi
Encoding: 958 958 284
Width: 1024
GlyphClass: 1
Flags: W
LayerCount: 2
Fore
SplineSet
640 512 m 1,0,-1
 384 512 l 1,1,-1
 384 384 l 1,2,-1
 640 384 l 1,3,-1
 640 256 l 1,4,-1
 384 256 l 1,5,-1
 384 128 l 1,6,-1
 640 128 l 1,7,-1
 640 0 l 1,8,-1
 768 0 l 1,9,-1
 768 -128 l 1,10,-1
 512 -128 l 1,11,-1
 512 0 l 1,12,-1
 256 0 l 1,13,-1
 256 128 l 1,14,-1
 128 128 l 1,15,-1
 128 256 l 1,16,-1
 256 256 l 1,17,-1
 256 384 l 1,18,-1
 128 384 l 1,19,-1
 128 512 l 1,20,-1
 256 512 l 1,21,-1
 256 640 l 1,22,-1
 128 640 l 1,23,-1
 128 768 l 1,24,-1
 768 768 l 1,25,-1
 768 640 l 1,26,-1
 640 640 l 1,27,-1
 640 512 l 1,0,-1
EndSplineSet
EndChar

StartChar: omicron
Encoding: 959 959 285
Width: 1024
GlyphClass: 1
Flags: W
LayerCount: 2
Fore
SplineSet
768 640 m 1,0,-1
 768 512 l 1,1,-1
 896 512 l 1,2,-1
 896 128 l 1,3,-1
 768 128 l 1,4,-1
 768 0 l 1,5,-1
 256 0 l 1,6,-1
 256 128 l 1,7,-1
 128 128 l 1,8,-1
 128 512 l 1,9,-1
 256 512 l 1,10,-1
 256 640 l 1,11,-1
 768 640 l 1,0,-1
384 128 m 1,12,-1
 640 128 l 1,13,-1
 640 512 l 1,14,-1
 384 512 l 1,15,-1
 384 128 l 1,12,-1
EndSplineSet
EndChar

StartChar: pi
Encoding: 960 960 286
Width: 1024
GlyphClass: 1
Flags: W
LayerCount: 2
Fore
SplineSet
768 512 m 1,0,-1
 768 128 l 1,1,-1
 896 128 l 1,2,-1
 896 0 l 1,3,-1
 640 0 l 1,4,-1
 640 128 l 1,5,-1
 512 128 l 1,6,-1
 512 512 l 1,7,-1
 384 512 l 1,8,-1
 384 0 l 1,9,-1
 128 0 l 1,10,-1
 128 512 l 1,11,-1
 0 512 l 1,12,-1
 0 640 l 1,13,-1
 896 640 l 1,14,-1
 896 512 l 1,15,-1
 768 512 l 1,0,-1
EndSplineSet
EndChar

StartChar: rho
Encoding: 961 961 287
Width: 1024
GlyphClass: 1
Flags: W
LayerCount: 2
Fore
SplineSet
768 640 m 1,0,-1
 768 512 l 1,1,-1
 896 512 l 1,2,-1
 896 128 l 1,3,-1
 768 128 l 1,4,-1
 768 0 l 1,5,-1
 384 0 l 1,6,-1
 384 -128 l 1,7,-1
 128 -128 l 1,8,-1
 128 512 l 1,9,-1
 256 512 l 1,10,-1
 256 640 l 1,11,-1
 768 640 l 1,0,-1
384 128 m 1,12,-1
 640 128 l 1,13,-1
 640 512 l 1,14,-1
 384 512 l 1,15,-1
 384 128 l 1,12,-1
EndSplineSet
EndChar

StartChar: uni03C2
Encoding: 962 962 288
Width: 1024
GlyphClass: 1
Flags: W
LayerCount: 2
Fore
SplineSet
896 384 m 1,0,-1
 640 384 l 1,1,-1
 640 512 l 1,2,-1
 384 512 l 1,3,-1
 384 128 l 1,4,-1
 896 128 l 1,5,-1
 896 -128 l 1,6,-1
 640 -128 l 1,7,-1
 640 0 l 1,8,-1
 256 0 l 1,9,-1
 256 128 l 1,10,-1
 128 128 l 1,11,-1
 128 512 l 1,12,-1
 256 512 l 1,13,-1
 256 640 l 1,14,-1
 768 640 l 1,15,-1
 768 512 l 1,16,-1
 896 512 l 1,17,-1
 896 384 l 1,0,-1
EndSplineSet
EndChar

StartChar: sigma
Encoding: 963 963 289
Width: 1024
GlyphClass: 1
Flags: W
LayerCount: 2
Fore
SplineSet
1024 640 m 1,0,-1
 1024 512 l 1,1,-1
 896 512 l 1,2,-1
 896 128 l 1,3,-1
 768 128 l 1,4,-1
 768 0 l 1,5,-1
 256 0 l 1,6,-1
 256 128 l 1,7,-1
 128 128 l 1,8,-1
 128 512 l 1,9,-1
 256 512 l 1,10,-1
 256 640 l 1,11,-1
 1024 640 l 1,0,-1
384 128 m 1,12,-1
 640 128 l 1,13,-1
 640 512 l 1,14,-1
 384 512 l 1,15,-1
 384 128 l 1,12,-1
EndSplineSet
EndChar

StartChar: tau
Encoding: 964 964 290
Width: 1024
GlyphClass: 1
Flags: W
LayerCount: 2
Fore
SplineSet
640 512 m 1,0,-1
 640 128 l 1,1,-1
 768 128 l 1,2,-1
 768 0 l 1,3,-1
 512 0 l 1,4,-1
 512 128 l 1,5,-1
 384 128 l 1,6,-1
 384 512 l 1,7,-1
 256 512 l 1,8,-1
 256 640 l 1,9,-1
 768 640 l 1,10,-1
 768 512 l 1,11,-1
 640 512 l 1,0,-1
EndSplineSet
EndChar

StartChar: upsilon
Encoding: 965 965 291
Width: 1024
GlyphClass: 1
Flags: W
LayerCount: 2
Fore
SplineSet
768 640 m 1,0,-1
 768 512 l 1,1,-1
 896 512 l 1,2,-1
 896 128 l 1,3,-1
 768 128 l 1,4,-1
 768 0 l 1,5,-1
 256 0 l 1,6,-1
 256 128 l 1,7,-1
 128 128 l 1,8,-1
 128 640 l 1,9,-1
 384 640 l 1,10,-1
 384 128 l 1,11,-1
 640 128 l 1,12,-1
 640 512 l 1,13,-1
 512 512 l 1,14,-1
 512 640 l 1,15,-1
 768 640 l 1,0,-1
EndSplineSet
EndChar

StartChar: phi
Encoding: 966 966 292
Width: 1024
GlyphClass: 1
Flags: W
LayerCount: 2
Fore
SplineSet
768 640 m 1,0,-1
 768 512 l 1,1,-1
 896 512 l 1,2,-1
 896 128 l 1,3,-1
 768 128 l 1,4,-1
 768 0 l 1,5,-1
 128 0 l 1,6,-1
 128 128 l 1,7,-1
 0 128 l 1,8,-1
 0 512 l 1,9,-1
 128 512 l 1,10,-1
 128 640 l 1,11,-1
 768 640 l 1,0,-1
256 128 m 1,12,-1
 384 128 l 1,13,-1
 384 512 l 1,14,-1
 256 512 l 1,15,-1
 256 128 l 1,12,-1
512 128 m 1,16,-1
 640 128 l 1,17,-1
 640 512 l 1,18,-1
 512 512 l 1,19,-1
 512 128 l 1,16,-1
EndSplineSet
EndChar

StartChar: chi
Encoding: 967 967 293
Width: 1024
GlyphClass: 1
Flags: W
LayerCount: 2
Fore
SplineSet
512 512 m 1,0,-1
 512 384 l 1,1,-1
 640 384 l 1,2,-1
 640 256 l 1,3,-1
 768 256 l 1,4,-1
 768 128 l 1,5,-1
 896 128 l 1,6,-1
 896 0 l 1,7,-1
 640 0 l 1,8,-1
 640 128 l 1,9,-1
 512 128 l 1,10,-1
 512 256 l 1,11,-1
 384 256 l 1,12,-1
 384 384 l 1,13,-1
 256 384 l 1,14,-1
 256 512 l 1,15,-1
 128 512 l 1,16,-1
 128 640 l 1,17,-1
 384 640 l 1,18,-1
 384 512 l 1,19,-1
 512 512 l 1,0,-1
768 640 m 1,20,-1
 896 640 l 1,21,-1
 896 512 l 1,22,-1
 768 512 l 1,23,-1
 768 640 l 1,20,-1
640 512 m 1,24,-1
 768 512 l 1,25,-1
 768 384 l 1,26,-1
 640 384 l 1,27,-1
 640 512 l 1,24,-1
384 128 m 1,28,-1
 256 128 l 1,29,-1
 256 256 l 1,30,-1
 384 256 l 1,31,-1
 384 128 l 1,28,-1
256 0 m 1,32,-1
 128 0 l 1,33,-1
 128 128 l 1,34,-1
 256 128 l 1,35,-1
 256 0 l 1,32,-1
EndSplineSet
EndChar

StartChar: psi
Encoding: 968 968 294
Width: 1024
GlyphClass: 1
Flags: W
LayerCount: 2
Fore
SplineSet
640 512 m 1,0,-1
 896 512 l 1,1,-1
 896 128 l 1,2,-1
 768 128 l 1,3,-1
 768 0 l 1,4,-1
 512 0 l 1,5,-1
 512 -128 l 1,6,-1
 384 -128 l 1,7,-1
 384 0 l 1,8,-1
 128 0 l 1,9,-1
 128 128 l 1,10,-1
 0 128 l 1,11,-1
 0 512 l 1,12,-1
 256 512 l 1,13,-1
 256 128 l 1,14,-1
 384 128 l 1,15,-1
 384 640 l 1,16,-1
 512 640 l 1,17,-1
 512 128 l 1,18,-1
 640 128 l 1,19,-1
 640 512 l 1,0,-1
EndSplineSet
EndChar

StartChar: omega
Encoding: 969 969 295
Width: 1024
GlyphClass: 1
Flags: W
LayerCount: 2
Fore
SplineSet
256 128 m 1,0,-1
 384 128 l 1,1,-1
 384 0 l 1,2,-1
 128 0 l 1,3,-1
 128 128 l 1,4,-1
 0 128 l 1,5,-1
 0 512 l 1,6,-1
 128 512 l 1,7,-1
 128 640 l 1,8,-1
 384 640 l 1,9,-1
 384 512 l 1,10,-1
 256 512 l 1,11,-1
 256 128 l 1,0,-1
768 640 m 1,12,-1
 768 512 l 1,13,-1
 896 512 l 1,14,-1
 896 128 l 1,15,-1
 768 128 l 1,16,-1
 768 0 l 1,17,-1
 512 0 l 1,18,-1
 512 128 l 1,19,-1
 640 128 l 1,20,-1
 640 512 l 1,21,-1
 512 512 l 1,22,-1
 512 640 l 1,23,-1
 768 640 l 1,12,-1
384 384 m 1,24,-1
 512 384 l 1,25,-1
 512 128 l 1,26,-1
 384 128 l 1,27,-1
 384 384 l 1,24,-1
EndSplineSet
EndChar

StartChar: iotadieresis
Encoding: 970 970 296
Width: 1024
GlyphClass: 1
Flags: W
LayerCount: 2
Fore
SplineSet
256 896 m 1,0,-1
 384 896 l 1,1,-1
 384 768 l 1,2,-1
 256 768 l 1,3,-1
 256 896 l 1,0,-1
640 768 m 1,4,-1
 640 896 l 1,5,-1
 768 896 l 1,6,-1
 768 768 l 1,7,-1
 640 768 l 1,4,-1
640 128 m 1,8,-1
 768 128 l 1,9,-1
 768 0 l 1,10,-1
 512 0 l 1,11,-1
 512 128 l 1,12,-1
 384 128 l 1,13,-1
 384 640 l 1,14,-1
 640 640 l 1,15,-1
 640 128 l 1,8,-1
EndSplineSet
EndChar

StartChar: upsilondieresis
Encoding: 971 971 297
Width: 1024
GlyphClass: 1
Flags: W
LayerCount: 2
Fore
SplineSet
256 896 m 1,0,-1
 384 896 l 1,1,-1
 384 768 l 1,2,-1
 256 768 l 1,3,-1
 256 896 l 1,0,-1
640 896 m 1,4,-1
 768 896 l 1,5,-1
 768 768 l 1,6,-1
 640 768 l 1,7,-1
 640 896 l 1,4,-1
768 640 m 1,8,-1
 768 512 l 1,9,-1
 896 512 l 1,10,-1
 896 128 l 1,11,-1
 768 128 l 1,12,-1
 768 0 l 1,13,-1
 256 0 l 1,14,-1
 256 128 l 1,15,-1
 128 128 l 1,16,-1
 128 640 l 1,17,-1
 384 640 l 1,18,-1
 384 128 l 1,19,-1
 640 128 l 1,20,-1
 640 512 l 1,21,-1
 512 512 l 1,22,-1
 512 640 l 1,23,-1
 768 640 l 1,8,-1
EndSplineSet
EndChar

StartChar: omicrontonos
Encoding: 972 972 298
Width: 1024
GlyphClass: 1
Flags: W
LayerCount: 2
Fore
SplineSet
512 896 m 1,0,-1
 640 896 l 1,1,-1
 640 768 l 1,2,-1
 512 768 l 1,3,-1
 512 896 l 1,0,-1
768 640 m 1,4,-1
 768 512 l 1,5,-1
 896 512 l 1,6,-1
 896 128 l 1,7,-1
 768 128 l 1,8,-1
 768 0 l 1,9,-1
 256 0 l 1,10,-1
 256 128 l 1,11,-1
 128 128 l 1,12,-1
 128 512 l 1,13,-1
 256 512 l 1,14,-1
 256 640 l 1,15,-1
 384 640 l 1,16,-1
 384 768 l 1,17,-1
 512 768 l 1,18,-1
 512 640 l 1,19,-1
 768 640 l 1,4,-1
384 128 m 1,20,-1
 640 128 l 1,21,-1
 640 512 l 1,22,-1
 384 512 l 1,23,-1
 384 128 l 1,20,-1
EndSplineSet
EndChar

StartChar: upsilontonos
Encoding: 973 973 299
Width: 1024
GlyphClass: 1
Flags: W
LayerCount: 2
Fore
SplineSet
512 896 m 1,0,-1
 640 896 l 1,1,-1
 640 768 l 1,2,-1
 512 768 l 1,3,-1
 512 896 l 1,0,-1
384 768 m 1,4,-1
 512 768 l 1,5,-1
 512 640 l 1,6,-1
 384 640 l 1,7,-1
 384 768 l 1,4,-1
768 640 m 1,8,-1
 768 512 l 1,9,-1
 896 512 l 1,10,-1
 896 128 l 1,11,-1
 768 128 l 1,12,-1
 768 0 l 1,13,-1
 256 0 l 1,14,-1
 256 128 l 1,15,-1
 128 128 l 1,16,-1
 128 640 l 1,17,-1
 384 640 l 1,18,-1
 384 128 l 1,19,-1
 640 128 l 1,20,-1
 640 512 l 1,21,-1
 512 512 l 1,22,-1
 512 640 l 1,23,-1
 768 640 l 1,8,-1
EndSplineSet
EndChar

StartChar: omegatonos
Encoding: 974 974 300
Width: 1024
GlyphClass: 1
Flags: W
LayerCount: 2
Fore
SplineSet
512 896 m 1,0,-1
 640 896 l 1,1,-1
 640 768 l 1,2,-1
 512 768 l 1,3,-1
 512 896 l 1,0,-1
384 768 m 1,4,-1
 512 768 l 1,5,-1
 512 640 l 1,6,-1
 384 640 l 1,7,-1
 384 768 l 1,4,-1
256 128 m 1,8,-1
 384 128 l 1,9,-1
 384 0 l 1,10,-1
 128 0 l 1,11,-1
 128 128 l 1,12,-1
 0 128 l 1,13,-1
 0 512 l 1,14,-1
 128 512 l 1,15,-1
 128 640 l 1,16,-1
 384 640 l 1,17,-1
 384 512 l 1,18,-1
 256 512 l 1,19,-1
 256 128 l 1,8,-1
768 640 m 1,20,-1
 768 512 l 1,21,-1
 896 512 l 1,22,-1
 896 128 l 1,23,-1
 768 128 l 1,24,-1
 768 0 l 1,25,-1
 512 0 l 1,26,-1
 512 128 l 1,27,-1
 640 128 l 1,28,-1
 640 512 l 1,29,-1
 512 512 l 1,30,-1
 512 640 l 1,31,-1
 768 640 l 1,20,-1
384 384 m 1,32,-1
 512 384 l 1,33,-1
 512 128 l 1,34,-1
 384 128 l 1,35,-1
 384 384 l 1,32,-1
EndSplineSet
EndChar

StartChar: uni0401
Encoding: 1025 1025 301
Width: 1024
GlyphClass: 1
Flags: W
LayerCount: 2
Fore
SplineSet
384 640 m 1,0,-1
 384 512 l 1,1,-1
 640 512 l 1,2,-1
 640 384 l 1,3,-1
 384 384 l 1,4,-1
 384 128 l 1,5,-1
 896 128 l 1,6,-1
 896 0 l 1,7,-1
 128 0 l 1,8,-1
 128 768 l 1,9,-1
 256 768 l 1,10,-1
 256 896 l 1,11,-1
 384 896 l 1,12,-1
 384 768 l 1,13,-1
 640 768 l 1,14,-1
 640 896 l 1,15,-1
 768 896 l 1,16,-1
 768 768 l 1,17,-1
 896 768 l 1,18,-1
 896 640 l 1,19,-1
 384 640 l 1,0,-1
EndSplineSet
EndChar

StartChar: uni0410
Encoding: 1040 1040 302
Width: 1024
GlyphClass: 1
Flags: W
LayerCount: 2
Fore
SplineSet
768 768 m 1,0,-1
 768 640 l 1,1,-1
 896 640 l 1,2,-1
 896 0 l 1,3,-1
 640 0 l 1,4,-1
 640 256 l 1,5,-1
 384 256 l 1,6,-1
 384 0 l 1,7,-1
 128 0 l 1,8,-1
 128 640 l 1,9,-1
 256 640 l 1,10,-1
 256 768 l 1,11,-1
 384 768 l 1,12,-1
 384 896 l 1,13,-1
 640 896 l 1,14,-1
 640 768 l 1,15,-1
 768 768 l 1,0,-1
384 384 m 1,16,-1
 640 384 l 1,17,-1
 640 640 l 1,18,-1
 384 640 l 1,19,-1
 384 384 l 1,16,-1
EndSplineSet
EndChar

StartChar: uni0411
Encoding: 1041 1041 303
Width: 1024
GlyphClass: 1
Flags: W
LayerCount: 2
Fore
SplineSet
768 512 m 1,0,-1
 768 384 l 1,1,-1
 896 384 l 1,2,-1
 896 128 l 1,3,-1
 768 128 l 1,4,-1
 768 0 l 1,5,-1
 128 0 l 1,6,-1
 128 896 l 1,7,-1
 768 896 l 1,8,-1
 768 768 l 1,9,-1
 384 768 l 1,10,-1
 384 512 l 1,11,-1
 768 512 l 1,0,-1
384 128 m 1,12,-1
 640 128 l 1,13,-1
 640 384 l 1,14,-1
 384 384 l 1,15,-1
 384 128 l 1,12,-1
EndSplineSet
EndChar

StartChar: uni0412
Encoding: 1042 1042 304
Width: 1024
GlyphClass: 1
Flags: W
LayerCount: 2
Fore
SplineSet
768 896 m 1,0,-1
 768 768 l 1,1,-1
 896 768 l 1,2,-1
 896 512 l 1,3,-1
 768 512 l 1,4,-1
 768 384 l 1,5,-1
 896 384 l 1,6,-1
 896 128 l 1,7,-1
 768 128 l 1,8,-1
 768 0 l 1,9,-1
 128 0 l 1,10,-1
 128 896 l 1,11,-1
 768 896 l 1,0,-1
384 512 m 1,12,-1
 640 512 l 1,13,-1
 640 768 l 1,14,-1
 384 768 l 1,15,-1
 384 512 l 1,12,-1
640 128 m 1,16,-1
 640 384 l 1,17,-1
 384 384 l 1,18,-1
 384 128 l 1,19,-1
 640 128 l 1,16,-1
EndSplineSet
EndChar

StartChar: uni0413
Encoding: 1043 1043 305
Width: 1024
GlyphClass: 1
Flags: W
LayerCount: 2
Fore
SplineSet
896 896 m 1,0,-1
 896 768 l 1,1,-1
 512 768 l 1,2,-1
 512 0 l 1,3,-1
 256 0 l 1,4,-1
 256 896 l 1,5,-1
 896 896 l 1,0,-1
EndSplineSet
EndChar

StartChar: uni0414
Encoding: 1044 1044 306
Width: 1024
GlyphClass: 1
Flags: W
LayerCount: 2
Fore
SplineSet
896 128 m 1,0,-1
 1024 128 l 1,1,-1
 1024 -128 l 1,2,-1
 768 -128 l 1,3,-1
 768 0 l 1,4,-1
 384 0 l 1,5,-1
 384 -128 l 1,6,-1
 128 -128 l 1,7,-1
 128 128 l 1,8,-1
 256 128 l 1,9,-1
 256 768 l 1,10,-1
 384 768 l 1,11,-1
 384 896 l 1,12,-1
 768 896 l 1,13,-1
 768 768 l 1,14,-1
 896 768 l 1,15,-1
 896 128 l 1,0,-1
512 128 m 1,16,-1
 640 128 l 1,17,-1
 640 768 l 1,18,-1
 512 768 l 1,19,-1
 512 128 l 1,16,-1
EndSplineSet
EndChar

StartChar: uni0415
Encoding: 1045 1045 307
Width: 1024
GlyphClass: 1
Flags: W
LayerCount: 2
Fore
SplineSet
384 768 m 1,0,-1
 384 512 l 1,1,-1
 640 512 l 1,2,-1
 640 384 l 1,3,-1
 384 384 l 1,4,-1
 384 128 l 1,5,-1
 896 128 l 1,6,-1
 896 0 l 1,7,-1
 128 0 l 1,8,-1
 128 896 l 1,9,-1
 896 896 l 1,10,-1
 896 768 l 1,11,-1
 384 768 l 1,0,-1
EndSplineSet
EndChar

StartChar: uni0416
Encoding: 1046 1046 308
Width: 1024
GlyphClass: 1
Flags: W
LayerCount: 2
Fore
SplineSet
640 896 m 1,0,-1
 896 896 l 1,1,-1
 896 512 l 1,2,-1
 768 512 l 1,3,-1
 768 384 l 1,4,-1
 896 384 l 1,5,-1
 896 0 l 1,6,-1
 640 0 l 1,7,-1
 640 384 l 1,8,-1
 512 384 l 1,9,-1
 512 0 l 1,10,-1
 384 0 l 1,11,-1
 384 384 l 1,12,-1
 256 384 l 1,13,-1
 256 0 l 1,14,-1
 0 0 l 1,15,-1
 0 384 l 1,16,-1
 128 384 l 1,17,-1
 128 512 l 1,18,-1
 0 512 l 1,19,-1
 0 896 l 1,20,-1
 256 896 l 1,21,-1
 256 512 l 1,22,-1
 384 512 l 1,23,-1
 384 896 l 1,24,-1
 512 896 l 1,25,-1
 512 512 l 1,26,-1
 640 512 l 1,27,-1
 640 896 l 1,0,-1
EndSplineSet
EndChar

StartChar: uni0417
Encoding: 1047 1047 309
Width: 1024
GlyphClass: 1
Flags: W
LayerCount: 2
Fore
SplineSet
768 896 m 1,0,-1
 768 768 l 1,1,-1
 896 768 l 1,2,-1
 896 512 l 1,3,-1
 768 512 l 1,4,-1
 768 384 l 1,5,-1
 896 384 l 1,6,-1
 896 128 l 1,7,-1
 768 128 l 1,8,-1
 768 0 l 1,9,-1
 256 0 l 1,10,-1
 256 128 l 1,11,-1
 128 128 l 1,12,-1
 128 256 l 1,13,-1
 384 256 l 1,14,-1
 384 128 l 1,15,-1
 640 128 l 1,16,-1
 640 384 l 1,17,-1
 384 384 l 1,18,-1
 384 512 l 1,19,-1
 640 512 l 1,20,-1
 640 768 l 1,21,-1
 384 768 l 1,22,-1
 384 640 l 1,23,-1
 128 640 l 1,24,-1
 128 768 l 1,25,-1
 256 768 l 1,26,-1
 256 896 l 1,27,-1
 768 896 l 1,0,-1
EndSplineSet
EndChar

StartChar: uni0418
Encoding: 1048 1048 310
Width: 1024
GlyphClass: 1
Flags: W
LayerCount: 2
Fore
SplineSet
640 896 m 1,0,-1
 896 896 l 1,1,-1
 896 0 l 1,2,-1
 640 0 l 1,3,-1
 640 384 l 1,4,-1
 512 384 l 1,5,-1
 512 256 l 1,6,-1
 384 256 l 1,7,-1
 384 0 l 1,8,-1
 128 0 l 1,9,-1
 128 896 l 1,10,-1
 384 896 l 1,11,-1
 384 512 l 1,12,-1
 512 512 l 1,13,-1
 512 640 l 1,14,-1
 640 640 l 1,15,-1
 640 896 l 1,0,-1
EndSplineSet
EndChar

StartChar: uni0419
Encoding: 1049 1049 311
Width: 1024
GlyphClass: 1
Flags: W
LayerCount: 2
Fore
SplineSet
640 896 m 1,0,-1
 640 768 l 1,1,-1
 384 768 l 1,2,-1
 384 896 l 1,3,-1
 640 896 l 1,0,-1
640 768 m 1,4,-1
 896 768 l 1,5,-1
 896 0 l 1,6,-1
 640 0 l 1,7,-1
 640 384 l 1,8,-1
 512 384 l 1,9,-1
 512 256 l 1,10,-1
 384 256 l 1,11,-1
 384 0 l 1,12,-1
 128 0 l 1,13,-1
 128 768 l 1,14,-1
 384 768 l 1,15,-1
 384 512 l 1,16,-1
 512 512 l 1,17,-1
 512 640 l 1,18,-1
 640 640 l 1,19,-1
 640 768 l 1,4,-1
EndSplineSet
EndChar

StartChar: uni041A
Encoding: 1050 1050 312
Width: 1024
GlyphClass: 1
Flags: W
LayerCount: 2
Fore
SplineSet
640 896 m 1,0,-1
 896 896 l 1,1,-1
 896 640 l 1,2,-1
 768 640 l 1,3,-1
 768 512 l 1,4,-1
 640 512 l 1,5,-1
 640 384 l 1,6,-1
 768 384 l 1,7,-1
 768 256 l 1,8,-1
 896 256 l 1,9,-1
 896 0 l 1,10,-1
 640 0 l 1,11,-1
 640 256 l 1,12,-1
 512 256 l 1,13,-1
 512 384 l 1,14,-1
 384 384 l 1,15,-1
 384 0 l 1,16,-1
 128 0 l 1,17,-1
 128 896 l 1,18,-1
 384 896 l 1,19,-1
 384 512 l 1,20,-1
 512 512 l 1,21,-1
 512 640 l 1,22,-1
 640 640 l 1,23,-1
 640 896 l 1,0,-1
EndSplineSet
EndChar

StartChar: uni041B
Encoding: 1051 1051 313
Width: 1024
GlyphClass: 1
Flags: W
LayerCount: 2
Fore
SplineSet
896 896 m 1,0,-1
 896 0 l 1,1,-1
 640 0 l 1,2,-1
 640 640 l 1,3,-1
 512 640 l 1,4,-1
 512 128 l 1,5,-1
 384 128 l 1,6,-1
 384 0 l 1,7,-1
 128 0 l 1,8,-1
 128 128 l 1,9,-1
 256 128 l 1,10,-1
 256 640 l 1,11,-1
 384 640 l 1,12,-1
 384 768 l 1,13,-1
 512 768 l 1,14,-1
 512 896 l 1,15,-1
 896 896 l 1,0,-1
EndSplineSet
EndChar

StartChar: uni041C
Encoding: 1052 1052 314
Width: 1024
GlyphClass: 1
Flags: W
LayerCount: 2
Fore
SplineSet
640 896 m 1,0,-1
 896 896 l 1,1,-1
 896 0 l 1,2,-1
 640 0 l 1,3,-1
 640 512 l 1,4,-1
 512 512 l 1,5,-1
 512 384 l 1,6,-1
 384 384 l 1,7,-1
 384 512 l 1,8,-1
 256 512 l 1,9,-1
 256 0 l 1,10,-1
 0 0 l 1,11,-1
 0 896 l 1,12,-1
 256 896 l 1,13,-1
 256 768 l 1,14,-1
 384 768 l 1,15,-1
 384 640 l 1,16,-1
 512 640 l 1,17,-1
 512 768 l 1,18,-1
 640 768 l 1,19,-1
 640 896 l 1,0,-1
EndSplineSet
EndChar

StartChar: uni041D
Encoding: 1053 1053 315
Width: 1024
GlyphClass: 1
Flags: W
LayerCount: 2
Fore
SplineSet
640 896 m 1,0,-1
 896 896 l 1,1,-1
 896 0 l 1,2,-1
 640 0 l 1,3,-1
 640 384 l 1,4,-1
 384 384 l 1,5,-1
 384 0 l 1,6,-1
 128 0 l 1,7,-1
 128 896 l 1,8,-1
 384 896 l 1,9,-1
 384 512 l 1,10,-1
 640 512 l 1,11,-1
 640 896 l 1,0,-1
EndSplineSet
EndChar

StartChar: uni041E
Encoding: 1054 1054 316
Width: 1024
GlyphClass: 1
Flags: W
LayerCount: 2
Fore
SplineSet
768 896 m 1,0,-1
 768 768 l 1,1,-1
 896 768 l 1,2,-1
 896 128 l 1,3,-1
 768 128 l 1,4,-1
 768 0 l 1,5,-1
 256 0 l 1,6,-1
 256 128 l 1,7,-1
 128 128 l 1,8,-1
 128 768 l 1,9,-1
 256 768 l 1,10,-1
 256 896 l 1,11,-1
 768 896 l 1,0,-1
384 128 m 1,12,-1
 640 128 l 1,13,-1
 640 768 l 1,14,-1
 384 768 l 1,15,-1
 384 128 l 1,12,-1
EndSplineSet
EndChar

StartChar: uni041F
Encoding: 1055 1055 317
Width: 1024
GlyphClass: 1
Flags: W
LayerCount: 2
Fore
SplineSet
896 896 m 1,0,-1
 896 0 l 1,1,-1
 640 0 l 1,2,-1
 640 768 l 1,3,-1
 384 768 l 1,4,-1
 384 0 l 1,5,-1
 128 0 l 1,6,-1
 128 896 l 1,7,-1
 896 896 l 1,0,-1
EndSplineSet
EndChar

StartChar: uni0420
Encoding: 1056 1056 318
Width: 1024
GlyphClass: 1
Flags: W
LayerCount: 2
Fore
SplineSet
768 896 m 1,0,-1
 768 768 l 1,1,-1
 896 768 l 1,2,-1
 896 512 l 1,3,-1
 768 512 l 1,4,-1
 768 384 l 1,5,-1
 384 384 l 1,6,-1
 384 0 l 1,7,-1
 128 0 l 1,8,-1
 128 896 l 1,9,-1
 768 896 l 1,0,-1
384 512 m 1,10,-1
 640 512 l 1,11,-1
 640 768 l 1,12,-1
 384 768 l 1,13,-1
 384 512 l 1,10,-1
EndSplineSet
EndChar

StartChar: uni0421
Encoding: 1057 1057 319
Width: 1024
GlyphClass: 1
Flags: W
LayerCount: 2
Fore
SplineSet
896 640 m 1,0,-1
 640 640 l 1,1,-1
 640 768 l 1,2,-1
 384 768 l 1,3,-1
 384 128 l 1,4,-1
 640 128 l 1,5,-1
 640 256 l 1,6,-1
 896 256 l 1,7,-1
 896 128 l 1,8,-1
 768 128 l 1,9,-1
 768 0 l 1,10,-1
 256 0 l 1,11,-1
 256 128 l 1,12,-1
 128 128 l 1,13,-1
 128 768 l 1,14,-1
 256 768 l 1,15,-1
 256 896 l 1,16,-1
 768 896 l 1,17,-1
 768 768 l 1,18,-1
 896 768 l 1,19,-1
 896 640 l 1,0,-1
EndSplineSet
EndChar

StartChar: uni0422
Encoding: 1058 1058 320
Width: 1024
GlyphClass: 1
Flags: W
LayerCount: 2
Fore
SplineSet
896 896 m 1,0,-1
 896 768 l 1,1,-1
 640 768 l 1,2,-1
 640 0 l 1,3,-1
 384 0 l 1,4,-1
 384 768 l 1,5,-1
 128 768 l 1,6,-1
 128 896 l 1,7,-1
 896 896 l 1,0,-1
EndSplineSet
EndChar

StartChar: uni0423
Encoding: 1059 1059 321
Width: 1024
GlyphClass: 1
Flags: W
LayerCount: 2
Fore
SplineSet
640 896 m 1,0,-1
 896 896 l 1,1,-1
 896 256 l 1,2,-1
 768 256 l 1,3,-1
 768 128 l 1,4,-1
 640 128 l 1,5,-1
 640 0 l 1,6,-1
 256 0 l 1,7,-1
 256 128 l 1,8,-1
 512 128 l 1,9,-1
 512 256 l 1,10,-1
 640 256 l 1,11,-1
 640 384 l 1,12,-1
 256 384 l 1,13,-1
 256 512 l 1,14,-1
 128 512 l 1,15,-1
 128 896 l 1,16,-1
 384 896 l 1,17,-1
 384 512 l 1,18,-1
 640 512 l 1,19,-1
 640 896 l 1,0,-1
EndSplineSet
EndChar

StartChar: uni0424
Encoding: 1060 1060 322
Width: 1024
GlyphClass: 1
Flags: W
LayerCount: 2
Fore
SplineSet
896 896 m 1,0,-1
 896 768 l 1,1,-1
 1024 768 l 1,2,-1
 1024 384 l 1,3,-1
 896 384 l 1,4,-1
 896 256 l 1,5,-1
 640 256 l 1,6,-1
 640 0 l 1,7,-1
 384 0 l 1,8,-1
 384 256 l 1,9,-1
 128 256 l 1,10,-1
 128 384 l 1,11,-1
 0 384 l 1,12,-1
 0 768 l 1,13,-1
 128 768 l 1,14,-1
 128 896 l 1,15,-1
 896 896 l 1,0,-1
256 384 m 1,16,-1
 384 384 l 1,17,-1
 384 768 l 1,18,-1
 256 768 l 1,19,-1
 256 384 l 1,16,-1
640 384 m 1,20,-1
 768 384 l 1,21,-1
 768 768 l 1,22,-1
 640 768 l 1,23,-1
 640 384 l 1,20,-1
EndSplineSet
EndChar

StartChar: uni0425
Encoding: 1061 1061 323
Width: 1024
GlyphClass: 1
Flags: W
LayerCount: 2
Fore
SplineSet
640 896 m 1,0,-1
 896 896 l 1,1,-1
 896 640 l 1,2,-1
 768 640 l 1,3,-1
 768 512 l 1,4,-1
 640 512 l 1,5,-1
 640 384 l 1,6,-1
 768 384 l 1,7,-1
 768 256 l 1,8,-1
 896 256 l 1,9,-1
 896 0 l 1,10,-1
 640 0 l 1,11,-1
 640 256 l 1,12,-1
 384 256 l 1,13,-1
 384 0 l 1,14,-1
 128 0 l 1,15,-1
 128 256 l 1,16,-1
 256 256 l 1,17,-1
 256 384 l 1,18,-1
 384 384 l 1,19,-1
 384 512 l 1,20,-1
 256 512 l 1,21,-1
 256 640 l 1,22,-1
 128 640 l 1,23,-1
 128 896 l 1,24,-1
 384 896 l 1,25,-1
 384 640 l 1,26,-1
 640 640 l 1,27,-1
 640 896 l 1,0,-1
EndSplineSet
EndChar

StartChar: uni0426
Encoding: 1062 1062 324
Width: 1024
GlyphClass: 1
Flags: W
LayerCount: 2
Fore
SplineSet
896 128 m 1,0,-1
 1024 128 l 1,1,-1
 1024 -128 l 1,2,-1
 768 -128 l 1,3,-1
 768 0 l 1,4,-1
 128 0 l 1,5,-1
 128 896 l 1,6,-1
 384 896 l 1,7,-1
 384 128 l 1,8,-1
 640 128 l 1,9,-1
 640 896 l 1,10,-1
 896 896 l 1,11,-1
 896 128 l 1,0,-1
EndSplineSet
EndChar

StartChar: uni0427
Encoding: 1063 1063 325
Width: 1024
GlyphClass: 1
Flags: W
LayerCount: 2
Fore
SplineSet
640 896 m 1,0,-1
 896 896 l 1,1,-1
 896 0 l 1,2,-1
 640 0 l 1,3,-1
 640 384 l 1,4,-1
 256 384 l 1,5,-1
 256 512 l 1,6,-1
 128 512 l 1,7,-1
 128 896 l 1,8,-1
 384 896 l 1,9,-1
 384 512 l 1,10,-1
 640 512 l 1,11,-1
 640 896 l 1,0,-1
EndSplineSet
EndChar

StartChar: uni0428
Encoding: 1064 1064 326
Width: 1024
GlyphClass: 1
Flags: W
LayerCount: 2
Fore
SplineSet
640 896 m 1,0,-1
 896 896 l 1,1,-1
 896 0 l 1,2,-1
 0 0 l 1,3,-1
 0 896 l 1,4,-1
 256 896 l 1,5,-1
 256 128 l 1,6,-1
 384 128 l 1,7,-1
 384 896 l 1,8,-1
 512 896 l 1,9,-1
 512 128 l 1,10,-1
 640 128 l 1,11,-1
 640 896 l 1,0,-1
EndSplineSet
EndChar

StartChar: uni0429
Encoding: 1065 1065 327
Width: 1024
GlyphClass: 1
Flags: W
LayerCount: 2
Fore
SplineSet
640 896 m 1,0,-1
 896 896 l 1,1,-1
 896 -128 l 1,2,-1
 640 -128 l 1,3,-1
 640 0 l 1,4,-1
 0 0 l 1,5,-1
 0 896 l 1,6,-1
 256 896 l 1,7,-1
 256 128 l 1,8,-1
 384 128 l 1,9,-1
 384 896 l 1,10,-1
 512 896 l 1,11,-1
 512 128 l 1,12,-1
 640 128 l 1,13,-1
 640 896 l 1,0,-1
EndSplineSet
EndChar

StartChar: uni042A
Encoding: 1066 1066 328
Width: 1024
GlyphClass: 1
Flags: W
LayerCount: 2
Fore
SplineSet
768 512 m 1,0,-1
 768 384 l 1,1,-1
 896 384 l 1,2,-1
 896 128 l 1,3,-1
 768 128 l 1,4,-1
 768 0 l 1,5,-1
 128 0 l 1,6,-1
 128 768 l 1,7,-1
 0 768 l 1,8,-1
 0 896 l 1,9,-1
 384 896 l 1,10,-1
 384 512 l 1,11,-1
 768 512 l 1,0,-1
384 128 m 1,12,-1
 640 128 l 1,13,-1
 640 384 l 1,14,-1
 384 384 l 1,15,-1
 384 128 l 1,12,-1
EndSplineSet
EndChar

StartChar: uni042B
Encoding: 1067 1067 329
Width: 1024
GlyphClass: 1
Flags: W
LayerCount: 2
Fore
SplineSet
512 384 m 1,0,-1
 640 384 l 1,1,-1
 640 128 l 1,2,-1
 512 128 l 1,3,-1
 512 0 l 1,4,-1
 0 0 l 1,5,-1
 0 896 l 1,6,-1
 256 896 l 1,7,-1
 256 512 l 1,8,-1
 512 512 l 1,9,-1
 512 384 l 1,0,-1
640 896 m 1,10,-1
 896 896 l 1,11,-1
 896 0 l 1,12,-1
 640 0 l 1,13,-1
 640 128 l 1,14,-1
 768 128 l 1,15,-1
 768 384 l 1,16,-1
 640 384 l 1,17,-1
 640 896 l 1,10,-1
256 128 m 1,18,-1
 384 128 l 1,19,-1
 384 384 l 1,20,-1
 256 384 l 1,21,-1
 256 128 l 1,18,-1
EndSplineSet
EndChar

StartChar: uni042C
Encoding: 1068 1068 330
Width: 1024
GlyphClass: 1
Flags: W
LayerCount: 2
Fore
SplineSet
768 512 m 1,0,-1
 768 384 l 1,1,-1
 896 384 l 1,2,-1
 896 128 l 1,3,-1
 768 128 l 1,4,-1
 768 0 l 1,5,-1
 128 0 l 1,6,-1
 128 896 l 1,7,-1
 384 896 l 1,8,-1
 384 512 l 1,9,-1
 768 512 l 1,0,-1
384 128 m 1,10,-1
 640 128 l 1,11,-1
 640 384 l 1,12,-1
 384 384 l 1,13,-1
 384 128 l 1,10,-1
EndSplineSet
EndChar

StartChar: uni042D
Encoding: 1069 1069 331
Width: 1024
GlyphClass: 1
Flags: W
LayerCount: 2
Fore
SplineSet
768 896 m 1,0,-1
 768 768 l 1,1,-1
 896 768 l 1,2,-1
 896 128 l 1,3,-1
 768 128 l 1,4,-1
 768 0 l 1,5,-1
 256 0 l 1,6,-1
 256 128 l 1,7,-1
 128 128 l 1,8,-1
 128 256 l 1,9,-1
 384 256 l 1,10,-1
 384 128 l 1,11,-1
 640 128 l 1,12,-1
 640 384 l 1,13,-1
 384 384 l 1,14,-1
 384 512 l 1,15,-1
 640 512 l 1,16,-1
 640 768 l 1,17,-1
 384 768 l 1,18,-1
 384 640 l 1,19,-1
 128 640 l 1,20,-1
 128 768 l 1,21,-1
 256 768 l 1,22,-1
 256 896 l 1,23,-1
 768 896 l 1,0,-1
EndSplineSet
EndChar

StartChar: uni042E
Encoding: 1070 1070 332
Width: 1024
GlyphClass: 1
Flags: W
LayerCount: 2
Fore
SplineSet
512 128 m 1,0,-1
 384 128 l 1,1,-1
 384 384 l 1,2,-1
 256 384 l 1,3,-1
 256 0 l 1,4,-1
 0 0 l 1,5,-1
 0 896 l 1,6,-1
 256 896 l 1,7,-1
 256 512 l 1,8,-1
 384 512 l 1,9,-1
 384 768 l 1,10,-1
 512 768 l 1,11,-1
 512 128 l 1,0,-1
768 896 m 1,12,-1
 768 768 l 1,13,-1
 896 768 l 1,14,-1
 896 128 l 1,15,-1
 768 128 l 1,16,-1
 768 0 l 1,17,-1
 512 0 l 1,18,-1
 512 128 l 1,19,-1
 640 128 l 1,20,-1
 640 768 l 1,21,-1
 512 768 l 1,22,-1
 512 896 l 1,23,-1
 768 896 l 1,12,-1
EndSplineSet
EndChar

StartChar: uni042F
Encoding: 1071 1071 333
Width: 1024
GlyphClass: 1
Flags: W
LayerCount: 2
Fore
SplineSet
896 896 m 1,0,-1
 896 0 l 1,1,-1
 640 0 l 1,2,-1
 640 256 l 1,3,-1
 512 256 l 1,4,-1
 512 128 l 1,5,-1
 384 128 l 1,6,-1
 384 0 l 1,7,-1
 128 0 l 1,8,-1
 128 128 l 1,9,-1
 256 128 l 1,10,-1
 256 256 l 1,11,-1
 384 256 l 1,12,-1
 384 384 l 1,13,-1
 256 384 l 1,14,-1
 256 512 l 1,15,-1
 128 512 l 1,16,-1
 128 768 l 1,17,-1
 256 768 l 1,18,-1
 256 896 l 1,19,-1
 896 896 l 1,0,-1
384 768 m 1,20,-1
 384 512 l 1,21,-1
 640 512 l 1,22,-1
 640 768 l 1,23,-1
 384 768 l 1,20,-1
EndSplineSet
EndChar

StartChar: uni0430
Encoding: 1072 1072 334
Width: 1024
GlyphClass: 1
Flags: W
LayerCount: 2
Fore
SplineSet
768 640 m 1,0,-1
 768 512 l 1,1,-1
 896 512 l 1,2,-1
 896 0 l 1,3,-1
 256 0 l 1,4,-1
 256 128 l 1,5,-1
 128 128 l 1,6,-1
 128 256 l 1,7,-1
 256 256 l 1,8,-1
 256 384 l 1,9,-1
 640 384 l 1,10,-1
 640 512 l 1,11,-1
 256 512 l 1,12,-1
 256 640 l 1,13,-1
 768 640 l 1,0,-1
384 128 m 1,14,-1
 640 128 l 1,15,-1
 640 256 l 1,16,-1
 384 256 l 1,17,-1
 384 128 l 1,14,-1
EndSplineSet
EndChar

StartChar: uni0431
Encoding: 1073 1073 335
Width: 1024
GlyphClass: 1
Flags: W
LayerCount: 2
Fore
SplineSet
768 512 m 1,0,-1
 768 384 l 1,1,-1
 896 384 l 1,2,-1
 896 128 l 1,3,-1
 768 128 l 1,4,-1
 768 0 l 1,5,-1
 256 0 l 1,6,-1
 256 128 l 1,7,-1
 128 128 l 1,8,-1
 128 384 l 1,9,-1
 256 384 l 1,10,-1
 256 512 l 1,11,-1
 128 512 l 1,12,-1
 128 640 l 1,13,-1
 256 640 l 1,14,-1
 256 768 l 1,15,-1
 768 768 l 1,16,-1
 768 640 l 1,17,-1
 384 640 l 1,18,-1
 384 512 l 1,19,-1
 768 512 l 1,0,-1
384 128 m 1,20,-1
 640 128 l 1,21,-1
 640 384 l 1,22,-1
 384 384 l 1,23,-1
 384 128 l 1,20,-1
EndSplineSet
EndChar

StartChar: uni0432
Encoding: 1074 1074 336
Width: 1024
GlyphClass: 1
Flags: W
LayerCount: 2
Fore
SplineSet
896 512 m 1,0,-1
 896 384 l 1,1,-1
 768 384 l 1,2,-1
 768 256 l 1,3,-1
 896 256 l 1,4,-1
 896 128 l 1,5,-1
 768 128 l 1,6,-1
 768 0 l 1,7,-1
 128 0 l 1,8,-1
 128 640 l 1,9,-1
 768 640 l 1,10,-1
 768 512 l 1,11,-1
 896 512 l 1,0,-1
384 384 m 1,12,-1
 640 384 l 1,13,-1
 640 512 l 1,14,-1
 384 512 l 1,15,-1
 384 384 l 1,12,-1
640 128 m 1,16,-1
 640 256 l 1,17,-1
 384 256 l 1,18,-1
 384 128 l 1,19,-1
 640 128 l 1,16,-1
EndSplineSet
EndChar

StartChar: uni0433
Encoding: 1075 1075 337
Width: 1024
GlyphClass: 1
Flags: W
LayerCount: 2
Fore
SplineSet
896 640 m 1,0,-1
 896 512 l 1,1,-1
 512 512 l 1,2,-1
 512 0 l 1,3,-1
 256 0 l 1,4,-1
 256 640 l 1,5,-1
 896 640 l 1,0,-1
EndSplineSet
EndChar

StartChar: uni0434
Encoding: 1076 1076 338
Width: 1024
GlyphClass: 1
Flags: W
LayerCount: 2
Fore
SplineSet
768 128 m 1,0,-1
 896 128 l 1,1,-1
 896 -128 l 1,2,-1
 640 -128 l 1,3,-1
 640 0 l 1,4,-1
 256 0 l 1,5,-1
 256 -128 l 1,6,-1
 0 -128 l 1,7,-1
 0 128 l 1,8,-1
 128 128 l 1,9,-1
 128 512 l 1,10,-1
 256 512 l 1,11,-1
 256 640 l 1,12,-1
 768 640 l 1,13,-1
 768 128 l 1,0,-1
384 128 m 1,14,-1
 512 128 l 1,15,-1
 512 512 l 1,16,-1
 384 512 l 1,17,-1
 384 128 l 1,14,-1
EndSplineSet
EndChar

StartChar: uni0435
Encoding: 1077 1077 339
Width: 1024
GlyphClass: 1
Flags: W
LayerCount: 2
Fore
SplineSet
768 640 m 1,0,-1
 768 512 l 1,1,-1
 896 512 l 1,2,-1
 896 256 l 1,3,-1
 384 256 l 1,4,-1
 384 128 l 1,5,-1
 768 128 l 1,6,-1
 768 0 l 1,7,-1
 256 0 l 1,8,-1
 256 128 l 1,9,-1
 128 128 l 1,10,-1
 128 512 l 1,11,-1
 256 512 l 1,12,-1
 256 640 l 1,13,-1
 768 640 l 1,0,-1
384 384 m 1,14,-1
 640 384 l 1,15,-1
 640 512 l 1,16,-1
 384 512 l 1,17,-1
 384 384 l 1,14,-1
EndSplineSet
EndChar

StartChar: uni0436
Encoding: 1078 1078 340
Width: 1024
GlyphClass: 1
Flags: W
LayerCount: 2
Fore
SplineSet
640 640 m 1,0,-1
 896 640 l 1,1,-1
 896 384 l 1,2,-1
 768 384 l 1,3,-1
 768 256 l 1,4,-1
 896 256 l 1,5,-1
 896 0 l 1,6,-1
 640 0 l 1,7,-1
 640 256 l 1,8,-1
 512 256 l 1,9,-1
 512 0 l 1,10,-1
 384 0 l 1,11,-1
 384 256 l 1,12,-1
 256 256 l 1,13,-1
 256 0 l 1,14,-1
 0 0 l 1,15,-1
 0 256 l 1,16,-1
 128 256 l 1,17,-1
 128 384 l 1,18,-1
 0 384 l 1,19,-1
 0 640 l 1,20,-1
 256 640 l 1,21,-1
 256 384 l 1,22,-1
 384 384 l 1,23,-1
 384 640 l 1,24,-1
 512 640 l 1,25,-1
 512 384 l 1,26,-1
 640 384 l 1,27,-1
 640 640 l 1,0,-1
EndSplineSet
EndChar

StartChar: uni0437
Encoding: 1079 1079 341
Width: 1024
GlyphClass: 1
Flags: W
LayerCount: 2
Fore
SplineSet
896 512 m 1,0,-1
 896 384 l 1,1,-1
 768 384 l 1,2,-1
 768 256 l 1,3,-1
 896 256 l 1,4,-1
 896 128 l 1,5,-1
 768 128 l 1,6,-1
 768 0 l 1,7,-1
 256 0 l 1,8,-1
 256 128 l 1,9,-1
 128 128 l 1,10,-1
 128 256 l 1,11,-1
 384 256 l 1,12,-1
 384 128 l 1,13,-1
 640 128 l 1,14,-1
 640 256 l 1,15,-1
 512 256 l 1,16,-1
 512 384 l 1,17,-1
 640 384 l 1,18,-1
 640 512 l 1,19,-1
 384 512 l 1,20,-1
 384 384 l 1,21,-1
 128 384 l 1,22,-1
 128 512 l 1,23,-1
 256 512 l 1,24,-1
 256 640 l 1,25,-1
 768 640 l 1,26,-1
 768 512 l 1,27,-1
 896 512 l 1,0,-1
EndSplineSet
EndChar

StartChar: uni0438
Encoding: 1080 1080 342
Width: 1024
GlyphClass: 1
Flags: W
LayerCount: 2
Fore
SplineSet
384 640 m 1,0,-1
 384 384 l 1,1,-1
 512 384 l 1,2,-1
 512 256 l 1,3,-1
 384 256 l 1,4,-1
 384 0 l 1,5,-1
 128 0 l 1,6,-1
 128 640 l 1,7,-1
 384 640 l 1,0,-1
640 640 m 1,8,-1
 896 640 l 1,9,-1
 896 0 l 1,10,-1
 640 0 l 1,11,-1
 640 384 l 1,12,-1
 512 384 l 1,13,-1
 512 512 l 1,14,-1
 640 512 l 1,15,-1
 640 640 l 1,8,-1
EndSplineSet
EndChar

StartChar: uni0439
Encoding: 1081 1081 343
Width: 1024
GlyphClass: 1
Flags: W
LayerCount: 2
Fore
SplineSet
256 768 m 1,0,-1
 256 896 l 1,1,-1
 768 896 l 1,2,-1
 768 768 l 1,3,-1
 256 768 l 1,0,-1
384 640 m 1,4,-1
 384 384 l 1,5,-1
 512 384 l 1,6,-1
 512 256 l 1,7,-1
 384 256 l 1,8,-1
 384 0 l 1,9,-1
 128 0 l 1,10,-1
 128 640 l 1,11,-1
 384 640 l 1,4,-1
640 640 m 1,12,-1
 896 640 l 1,13,-1
 896 0 l 1,14,-1
 640 0 l 1,15,-1
 640 384 l 1,16,-1
 512 384 l 1,17,-1
 512 512 l 1,18,-1
 640 512 l 1,19,-1
 640 640 l 1,12,-1
EndSplineSet
EndChar

StartChar: uni043A
Encoding: 1082 1082 344
Width: 1024
GlyphClass: 1
Flags: W
LayerCount: 2
Fore
SplineSet
768 512 m 1,0,-1
 768 384 l 1,1,-1
 640 384 l 1,2,-1
 640 256 l 1,3,-1
 768 256 l 1,4,-1
 768 128 l 1,5,-1
 896 128 l 1,6,-1
 896 0 l 1,7,-1
 640 0 l 1,8,-1
 640 128 l 1,9,-1
 512 128 l 1,10,-1
 512 256 l 1,11,-1
 384 256 l 1,12,-1
 384 0 l 1,13,-1
 128 0 l 1,14,-1
 128 640 l 1,15,-1
 384 640 l 1,16,-1
 384 384 l 1,17,-1
 512 384 l 1,18,-1
 512 512 l 1,19,-1
 640 512 l 1,20,-1
 640 640 l 1,21,-1
 896 640 l 1,22,-1
 896 512 l 1,23,-1
 768 512 l 1,0,-1
EndSplineSet
EndChar

StartChar: uni043B
Encoding: 1083 1083 345
Width: 1024
GlyphClass: 1
Flags: W
LayerCount: 2
Fore
SplineSet
896 640 m 1,0,-1
 896 0 l 1,1,-1
 640 0 l 1,2,-1
 640 512 l 1,3,-1
 512 512 l 1,4,-1
 512 128 l 1,5,-1
 384 128 l 1,6,-1
 384 0 l 1,7,-1
 128 0 l 1,8,-1
 128 128 l 1,9,-1
 256 128 l 1,10,-1
 256 512 l 1,11,-1
 384 512 l 1,12,-1
 384 640 l 1,13,-1
 896 640 l 1,0,-1
EndSplineSet
EndChar

StartChar: uni043C
Encoding: 1084 1084 346
Width: 1024
GlyphClass: 1
Flags: W
LayerCount: 2
Fore
SplineSet
640 640 m 1,0,-1
 896 640 l 1,1,-1
 896 0 l 1,2,-1
 640 0 l 1,3,-1
 640 256 l 1,4,-1
 512 256 l 1,5,-1
 512 128 l 1,6,-1
 384 128 l 1,7,-1
 384 256 l 1,8,-1
 256 256 l 1,9,-1
 256 0 l 1,10,-1
 0 0 l 1,11,-1
 0 640 l 1,12,-1
 256 640 l 1,13,-1
 256 512 l 1,14,-1
 384 512 l 1,15,-1
 384 384 l 1,16,-1
 512 384 l 1,17,-1
 512 512 l 1,18,-1
 640 512 l 1,19,-1
 640 640 l 1,0,-1
EndSplineSet
EndChar

StartChar: uni043D
Encoding: 1085 1085 347
Width: 1024
GlyphClass: 1
Flags: W
LayerCount: 2
Fore
SplineSet
640 640 m 1,0,-1
 896 640 l 1,1,-1
 896 0 l 1,2,-1
 640 0 l 1,3,-1
 640 256 l 1,4,-1
 384 256 l 1,5,-1
 384 0 l 1,6,-1
 128 0 l 1,7,-1
 128 640 l 1,8,-1
 384 640 l 1,9,-1
 384 384 l 1,10,-1
 640 384 l 1,11,-1
 640 640 l 1,0,-1
EndSplineSet
EndChar

StartChar: uni043E
Encoding: 1086 1086 348
Width: 1024
GlyphClass: 1
Flags: W
LayerCount: 2
Fore
SplineSet
768 640 m 1,0,-1
 768 512 l 1,1,-1
 896 512 l 1,2,-1
 896 128 l 1,3,-1
 768 128 l 1,4,-1
 768 0 l 1,5,-1
 256 0 l 1,6,-1
 256 128 l 1,7,-1
 128 128 l 1,8,-1
 128 512 l 1,9,-1
 256 512 l 1,10,-1
 256 640 l 1,11,-1
 768 640 l 1,0,-1
384 128 m 1,12,-1
 640 128 l 1,13,-1
 640 512 l 1,14,-1
 384 512 l 1,15,-1
 384 128 l 1,12,-1
EndSplineSet
EndChar

StartChar: uni043F
Encoding: 1087 1087 349
Width: 1024
GlyphClass: 1
Flags: W
LayerCount: 2
Fore
SplineSet
896 640 m 1,0,-1
 896 0 l 1,1,-1
 640 0 l 1,2,-1
 640 512 l 1,3,-1
 384 512 l 1,4,-1
 384 0 l 1,5,-1
 128 0 l 1,6,-1
 128 640 l 1,7,-1
 896 640 l 1,0,-1
EndSplineSet
EndChar

StartChar: uni0440
Encoding: 1088 1088 350
Width: 1024
GlyphClass: 1
Flags: W
LayerCount: 2
Fore
SplineSet
768 640 m 1,0,-1
 768 512 l 1,1,-1
 896 512 l 1,2,-1
 896 256 l 1,3,-1
 768 256 l 1,4,-1
 768 128 l 1,5,-1
 384 128 l 1,6,-1
 384 -128 l 1,7,-1
 128 -128 l 1,8,-1
 128 640 l 1,9,-1
 768 640 l 1,0,-1
384 256 m 1,10,-1
 640 256 l 1,11,-1
 640 512 l 1,12,-1
 384 512 l 1,13,-1
 384 256 l 1,10,-1
EndSplineSet
EndChar

StartChar: uni0441
Encoding: 1089 1089 351
Width: 1024
GlyphClass: 1
Flags: W
LayerCount: 2
Fore
SplineSet
896 384 m 1,0,-1
 640 384 l 1,1,-1
 640 512 l 1,2,-1
 384 512 l 1,3,-1
 384 128 l 1,4,-1
 640 128 l 1,5,-1
 640 256 l 1,6,-1
 896 256 l 1,7,-1
 896 128 l 1,8,-1
 768 128 l 1,9,-1
 768 0 l 1,10,-1
 256 0 l 1,11,-1
 256 128 l 1,12,-1
 128 128 l 1,13,-1
 128 512 l 1,14,-1
 256 512 l 1,15,-1
 256 640 l 1,16,-1
 768 640 l 1,17,-1
 768 512 l 1,18,-1
 896 512 l 1,19,-1
 896 384 l 1,0,-1
EndSplineSet
EndChar

StartChar: uni0442
Encoding: 1090 1090 352
Width: 1024
GlyphClass: 1
Flags: W
LayerCount: 2
Fore
SplineSet
896 640 m 1,0,-1
 896 512 l 1,1,-1
 640 512 l 1,2,-1
 640 0 l 1,3,-1
 384 0 l 1,4,-1
 384 512 l 1,5,-1
 128 512 l 1,6,-1
 128 640 l 1,7,-1
 896 640 l 1,0,-1
EndSplineSet
EndChar

StartChar: uni0443
Encoding: 1091 1091 353
Width: 1024
GlyphClass: 1
Flags: W
LayerCount: 2
Fore
SplineSet
640 640 m 1,0,-1
 896 640 l 1,1,-1
 896 0 l 1,2,-1
 768 0 l 1,3,-1
 768 -128 l 1,4,-1
 256 -128 l 1,5,-1
 256 0 l 1,6,-1
 640 0 l 1,7,-1
 640 128 l 1,8,-1
 256 128 l 1,9,-1
 256 256 l 1,10,-1
 128 256 l 1,11,-1
 128 640 l 1,12,-1
 384 640 l 1,13,-1
 384 256 l 1,14,-1
 640 256 l 1,15,-1
 640 640 l 1,0,-1
EndSplineSet
EndChar

StartChar: uni0444
Encoding: 1092 1092 354
Width: 1024
GlyphClass: 1
Flags: W
LayerCount: 2
Fore
SplineSet
896 640 m 1,0,-1
 896 512 l 1,1,-1
 1024 512 l 1,2,-1
 1024 256 l 1,3,-1
 896 256 l 1,4,-1
 896 128 l 1,5,-1
 640 128 l 1,6,-1
 640 0 l 1,7,-1
 384 0 l 1,8,-1
 384 128 l 1,9,-1
 128 128 l 1,10,-1
 128 256 l 1,11,-1
 0 256 l 1,12,-1
 0 512 l 1,13,-1
 128 512 l 1,14,-1
 128 640 l 1,15,-1
 896 640 l 1,0,-1
256 256 m 1,16,-1
 384 256 l 1,17,-1
 384 512 l 1,18,-1
 256 512 l 1,19,-1
 256 256 l 1,16,-1
640 256 m 1,20,-1
 768 256 l 1,21,-1
 768 512 l 1,22,-1
 640 512 l 1,23,-1
 640 256 l 1,20,-1
EndSplineSet
EndChar

StartChar: uni0445
Encoding: 1093 1093 355
Width: 1024
GlyphClass: 1
Flags: W
LayerCount: 2
Fore
SplineSet
768 512 m 1,0,-1
 768 384 l 1,1,-1
 640 384 l 1,2,-1
 640 256 l 1,3,-1
 768 256 l 1,4,-1
 768 128 l 1,5,-1
 896 128 l 1,6,-1
 896 0 l 1,7,-1
 640 0 l 1,8,-1
 640 128 l 1,9,-1
 384 128 l 1,10,-1
 384 0 l 1,11,-1
 128 0 l 1,12,-1
 128 128 l 1,13,-1
 256 128 l 1,14,-1
 256 256 l 1,15,-1
 384 256 l 1,16,-1
 384 384 l 1,17,-1
 256 384 l 1,18,-1
 256 512 l 1,19,-1
 128 512 l 1,20,-1
 128 640 l 1,21,-1
 384 640 l 1,22,-1
 384 512 l 1,23,-1
 640 512 l 1,24,-1
 640 640 l 1,25,-1
 896 640 l 1,26,-1
 896 512 l 1,27,-1
 768 512 l 1,0,-1
EndSplineSet
EndChar

StartChar: uni0446
Encoding: 1094 1094 356
Width: 1024
GlyphClass: 1
Flags: W
LayerCount: 2
Fore
SplineSet
896 128 m 1,0,-1
 1024 128 l 1,1,-1
 1024 -128 l 1,2,-1
 768 -128 l 1,3,-1
 768 0 l 1,4,-1
 128 0 l 1,5,-1
 128 640 l 1,6,-1
 384 640 l 1,7,-1
 384 128 l 1,8,-1
 640 128 l 1,9,-1
 640 640 l 1,10,-1
 896 640 l 1,11,-1
 896 128 l 1,0,-1
EndSplineSet
EndChar

StartChar: uni0447
Encoding: 1095 1095 357
Width: 1024
GlyphClass: 1
Flags: W
LayerCount: 2
Fore
SplineSet
640 640 m 1,0,-1
 896 640 l 1,1,-1
 896 0 l 1,2,-1
 640 0 l 1,3,-1
 640 128 l 1,4,-1
 256 128 l 1,5,-1
 256 256 l 1,6,-1
 128 256 l 1,7,-1
 128 640 l 1,8,-1
 384 640 l 1,9,-1
 384 256 l 1,10,-1
 640 256 l 1,11,-1
 640 640 l 1,0,-1
EndSplineSet
EndChar

StartChar: uni0448
Encoding: 1096 1096 358
Width: 1024
GlyphClass: 1
Flags: W
LayerCount: 2
Fore
SplineSet
640 640 m 1,0,-1
 896 640 l 1,1,-1
 896 0 l 1,2,-1
 0 0 l 1,3,-1
 0 640 l 1,4,-1
 256 640 l 1,5,-1
 256 128 l 1,6,-1
 384 128 l 1,7,-1
 384 640 l 1,8,-1
 512 640 l 1,9,-1
 512 128 l 1,10,-1
 640 128 l 1,11,-1
 640 640 l 1,0,-1
EndSplineSet
EndChar

StartChar: uni0449
Encoding: 1097 1097 359
Width: 1024
GlyphClass: 1
Flags: W
LayerCount: 2
Fore
SplineSet
640 640 m 1,0,-1
 896 640 l 1,1,-1
 896 -128 l 1,2,-1
 640 -128 l 1,3,-1
 640 0 l 1,4,-1
 0 0 l 1,5,-1
 0 640 l 1,6,-1
 256 640 l 1,7,-1
 256 128 l 1,8,-1
 384 128 l 1,9,-1
 384 640 l 1,10,-1
 512 640 l 1,11,-1
 512 128 l 1,12,-1
 640 128 l 1,13,-1
 640 640 l 1,0,-1
EndSplineSet
EndChar

StartChar: uni044A
Encoding: 1098 1098 360
Width: 1024
GlyphClass: 1
Flags: W
LayerCount: 2
Fore
SplineSet
768 384 m 1,0,-1
 768 256 l 1,1,-1
 896 256 l 1,2,-1
 896 128 l 1,3,-1
 768 128 l 1,4,-1
 768 0 l 1,5,-1
 128 0 l 1,6,-1
 128 512 l 1,7,-1
 0 512 l 1,8,-1
 0 640 l 1,9,-1
 384 640 l 1,10,-1
 384 384 l 1,11,-1
 768 384 l 1,0,-1
384 128 m 1,12,-1
 640 128 l 1,13,-1
 640 256 l 1,14,-1
 384 256 l 1,15,-1
 384 128 l 1,12,-1
EndSplineSet
EndChar

StartChar: uni044B
Encoding: 1099 1099 361
Width: 1024
GlyphClass: 1
Flags: W
LayerCount: 2
Fore
SplineSet
640 640 m 1,0,-1
 896 640 l 1,1,-1
 896 0 l 1,2,-1
 640 0 l 1,3,-1
 640 128 l 1,4,-1
 512 128 l 1,5,-1
 512 0 l 1,6,-1
 0 0 l 1,7,-1
 0 640 l 1,8,-1
 256 640 l 1,9,-1
 256 384 l 1,10,-1
 512 384 l 1,11,-1
 512 256 l 1,12,-1
 640 256 l 1,13,-1
 640 640 l 1,0,-1
256 256 m 1,14,-1
 256 128 l 1,15,-1
 384 128 l 1,16,-1
 384 256 l 1,17,-1
 256 256 l 1,14,-1
EndSplineSet
EndChar

StartChar: uni044C
Encoding: 1100 1100 362
Width: 1024
GlyphClass: 1
Flags: W
LayerCount: 2
Fore
SplineSet
768 384 m 1,0,-1
 768 256 l 1,1,-1
 896 256 l 1,2,-1
 896 128 l 1,3,-1
 768 128 l 1,4,-1
 768 0 l 1,5,-1
 128 0 l 1,6,-1
 128 640 l 1,7,-1
 384 640 l 1,8,-1
 384 384 l 1,9,-1
 768 384 l 1,0,-1
384 128 m 1,10,-1
 640 128 l 1,11,-1
 640 256 l 1,12,-1
 384 256 l 1,13,-1
 384 128 l 1,10,-1
EndSplineSet
EndChar

StartChar: uni044D
Encoding: 1101 1101 363
Width: 1024
GlyphClass: 1
Flags: W
LayerCount: 2
Fore
SplineSet
768 640 m 1,0,-1
 768 512 l 1,1,-1
 896 512 l 1,2,-1
 896 128 l 1,3,-1
 768 128 l 1,4,-1
 768 0 l 1,5,-1
 256 0 l 1,6,-1
 256 128 l 1,7,-1
 128 128 l 1,8,-1
 128 256 l 1,9,-1
 384 256 l 1,10,-1
 384 128 l 1,11,-1
 640 128 l 1,12,-1
 640 256 l 1,13,-1
 512 256 l 1,14,-1
 512 384 l 1,15,-1
 640 384 l 1,16,-1
 640 512 l 1,17,-1
 384 512 l 1,18,-1
 384 384 l 1,19,-1
 128 384 l 1,20,-1
 128 512 l 1,21,-1
 256 512 l 1,22,-1
 256 640 l 1,23,-1
 768 640 l 1,0,-1
EndSplineSet
EndChar

StartChar: uni044E
Encoding: 1102 1102 364
Width: 1024
GlyphClass: 1
Flags: W
LayerCount: 2
Fore
SplineSet
512 512 m 1,0,-1
 512 128 l 1,1,-1
 384 128 l 1,2,-1
 384 256 l 1,3,-1
 256 256 l 1,4,-1
 256 0 l 1,5,-1
 0 0 l 1,6,-1
 0 640 l 1,7,-1
 256 640 l 1,8,-1
 256 384 l 1,9,-1
 384 384 l 1,10,-1
 384 512 l 1,11,-1
 512 512 l 1,0,-1
768 640 m 1,12,-1
 768 512 l 1,13,-1
 896 512 l 1,14,-1
 896 128 l 1,15,-1
 768 128 l 1,16,-1
 768 0 l 1,17,-1
 512 0 l 1,18,-1
 512 128 l 1,19,-1
 640 128 l 1,20,-1
 640 512 l 1,21,-1
 512 512 l 1,22,-1
 512 640 l 1,23,-1
 768 640 l 1,12,-1
EndSplineSet
EndChar

StartChar: uni044F
Encoding: 1103 1103 365
Width: 1024
GlyphClass: 1
Flags: W
LayerCount: 2
Fore
SplineSet
896 640 m 1,0,-1
 896 0 l 1,1,-1
 640 0 l 1,2,-1
 640 128 l 1,3,-1
 512 128 l 1,4,-1
 512 0 l 1,5,-1
 256 0 l 1,6,-1
 256 128 l 1,7,-1
 384 128 l 1,8,-1
 384 256 l 1,9,-1
 256 256 l 1,10,-1
 256 384 l 1,11,-1
 128 384 l 1,12,-1
 128 512 l 1,13,-1
 256 512 l 1,14,-1
 256 640 l 1,15,-1
 896 640 l 1,0,-1
384 512 m 1,16,-1
 384 384 l 1,17,-1
 640 384 l 1,18,-1
 640 512 l 1,19,-1
 384 512 l 1,16,-1
EndSplineSet
EndChar

StartChar: uni0451
Encoding: 1105 1105 366
Width: 1024
GlyphClass: 1
Flags: W
LayerCount: 2
Fore
SplineSet
256 896 m 1,0,-1
 384 896 l 1,1,-1
 384 768 l 1,2,-1
 256 768 l 1,3,-1
 256 896 l 1,0,-1
640 896 m 1,4,-1
 768 896 l 1,5,-1
 768 768 l 1,6,-1
 640 768 l 1,7,-1
 640 896 l 1,4,-1
768 640 m 1,8,-1
 768 512 l 1,9,-1
 896 512 l 1,10,-1
 896 256 l 1,11,-1
 384 256 l 1,12,-1
 384 128 l 1,13,-1
 768 128 l 1,14,-1
 768 0 l 1,15,-1
 256 0 l 1,16,-1
 256 128 l 1,17,-1
 128 128 l 1,18,-1
 128 512 l 1,19,-1
 256 512 l 1,20,-1
 256 640 l 1,21,-1
 768 640 l 1,8,-1
384 384 m 1,22,-1
 640 384 l 1,23,-1
 640 512 l 1,24,-1
 384 512 l 1,25,-1
 384 384 l 1,22,-1
EndSplineSet
EndChar

StartChar: uni05D0
Encoding: 1488 1488 367
Width: 1024
GlyphClass: 1
Flags: W
LayerCount: 2
Fore
SplineSet
640 640 m 1,0,-1
 896 640 l 1,1,-1
 896 384 l 1,2,-1
 768 384 l 1,3,-1
 768 128 l 1,4,-1
 896 128 l 1,5,-1
 896 0 l 1,6,-1
 640 0 l 1,7,-1
 640 128 l 1,8,-1
 512 128 l 1,9,-1
 512 256 l 1,10,-1
 384 256 l 1,11,-1
 384 0 l 1,12,-1
 128 0 l 1,13,-1
 128 256 l 1,14,-1
 256 256 l 1,15,-1
 256 512 l 1,16,-1
 128 512 l 1,17,-1
 128 640 l 1,18,-1
 384 640 l 1,19,-1
 384 512 l 1,20,-1
 512 512 l 1,21,-1
 512 384 l 1,22,-1
 640 384 l 1,23,-1
 640 640 l 1,0,-1
EndSplineSet
EndChar

StartChar: uni05D1
Encoding: 1489 1489 368
Width: 1024
GlyphClass: 1
Flags: W
LayerCount: 2
Fore
SplineSet
768 128 m 1,0,-1
 896 128 l 1,1,-1
 896 0 l 1,2,-1
 256 0 l 1,3,-1
 256 128 l 1,4,-1
 512 128 l 1,5,-1
 512 512 l 1,6,-1
 256 512 l 1,7,-1
 256 640 l 1,8,-1
 640 640 l 1,9,-1
 640 512 l 1,10,-1
 768 512 l 1,11,-1
 768 128 l 1,0,-1
EndSplineSet
EndChar

StartChar: uni05D2
Encoding: 1490 1490 369
Width: 1024
GlyphClass: 1
Flags: W
LayerCount: 2
Fore
SplineSet
640 256 m 1,0,-1
 768 256 l 1,1,-1
 768 0 l 1,2,-1
 512 0 l 1,3,-1
 512 256 l 1,4,-1
 384 256 l 1,5,-1
 384 128 l 1,6,-1
 256 128 l 1,7,-1
 256 0 l 1,8,-1
 0 0 l 1,9,-1
 0 128 l 1,10,-1
 128 128 l 1,11,-1
 128 256 l 1,12,-1
 256 256 l 1,13,-1
 256 384 l 1,14,-1
 384 384 l 1,15,-1
 384 512 l 1,16,-1
 128 512 l 1,17,-1
 128 640 l 1,18,-1
 512 640 l 1,19,-1
 512 512 l 1,20,-1
 640 512 l 1,21,-1
 640 256 l 1,0,-1
EndSplineSet
EndChar

StartChar: uni05D3
Encoding: 1491 1491 370
Width: 1024
GlyphClass: 1
Flags: W
LayerCount: 2
Fore
SplineSet
896 640 m 1,0,-1
 896 512 l 1,1,-1
 768 512 l 1,2,-1
 768 0 l 1,3,-1
 512 0 l 1,4,-1
 512 512 l 1,5,-1
 256 512 l 1,6,-1
 256 640 l 1,7,-1
 896 640 l 1,0,-1
EndSplineSet
EndChar

StartChar: uni05D4
Encoding: 1492 1492 371
Width: 1024
GlyphClass: 1
Flags: W
LayerCount: 2
Fore
SplineSet
768 640 m 1,0,-1
 768 512 l 1,1,-1
 896 512 l 1,2,-1
 896 0 l 1,3,-1
 640 0 l 1,4,-1
 640 512 l 1,5,-1
 128 512 l 1,6,-1
 128 640 l 1,7,-1
 768 640 l 1,0,-1
128 384 m 1,8,-1
 384 384 l 1,9,-1
 384 0 l 1,10,-1
 128 0 l 1,11,-1
 128 384 l 1,8,-1
EndSplineSet
EndChar

StartChar: uni05D5
Encoding: 1493 1493 372
Width: 1024
GlyphClass: 1
Flags: W
LayerCount: 2
Fore
SplineSet
384 640 m 1,0,-1
 640 640 l 1,1,-1
 640 0 l 1,2,-1
 384 0 l 1,3,-1
 384 640 l 1,0,-1
EndSplineSet
EndChar

StartChar: uni05D6
Encoding: 1494 1494 373
Width: 1024
GlyphClass: 1
Flags: W
LayerCount: 2
Fore
SplineSet
896 640 m 1,0,-1
 896 512 l 1,1,-1
 768 512 l 1,2,-1
 768 384 l 1,3,-1
 640 384 l 1,4,-1
 640 0 l 1,5,-1
 384 0 l 1,6,-1
 384 384 l 1,7,-1
 512 384 l 1,8,-1
 512 512 l 1,9,-1
 256 512 l 1,10,-1
 256 640 l 1,11,-1
 896 640 l 1,0,-1
EndSplineSet
EndChar

StartChar: uni05D7
Encoding: 1495 1495 374
Width: 1024
GlyphClass: 1
Flags: W
LayerCount: 2
Fore
SplineSet
768 640 m 1,0,-1
 768 512 l 1,1,-1
 896 512 l 1,2,-1
 896 0 l 1,3,-1
 640 0 l 1,4,-1
 640 512 l 1,5,-1
 384 512 l 1,6,-1
 384 0 l 1,7,-1
 128 0 l 1,8,-1
 128 640 l 1,9,-1
 768 640 l 1,0,-1
EndSplineSet
EndChar

StartChar: uni05D8
Encoding: 1496 1496 375
Width: 1024
GlyphClass: 1
Flags: W
LayerCount: 2
Fore
SplineSet
768 640 m 1,0,-1
 768 512 l 1,1,-1
 896 512 l 1,2,-1
 896 128 l 1,3,-1
 768 128 l 1,4,-1
 768 0 l 1,5,-1
 256 0 l 1,6,-1
 256 128 l 1,7,-1
 128 128 l 1,8,-1
 128 640 l 1,9,-1
 384 640 l 1,10,-1
 384 128 l 1,11,-1
 640 128 l 1,12,-1
 640 512 l 1,13,-1
 512 512 l 1,14,-1
 512 640 l 1,15,-1
 768 640 l 1,0,-1
EndSplineSet
EndChar

StartChar: uni05D9
Encoding: 1497 1497 376
Width: 1024
GlyphClass: 1
Flags: W
LayerCount: 2
Fore
SplineSet
384 768 m 1,0,-1
 640 768 l 1,1,-1
 640 384 l 1,2,-1
 384 384 l 1,3,-1
 384 768 l 1,0,-1
EndSplineSet
EndChar

StartChar: uni05DA
Encoding: 1498 1498 377
Width: 1024
GlyphClass: 1
Flags: W
LayerCount: 2
Fore
SplineSet
640 640 m 1,0,-1
 640 512 l 1,1,-1
 768 512 l 1,2,-1
 768 -128 l 1,3,-1
 512 -128 l 1,4,-1
 512 512 l 1,5,-1
 256 512 l 1,6,-1
 256 640 l 1,7,-1
 640 640 l 1,0,-1
EndSplineSet
EndChar

StartChar: uni05DB
Encoding: 1499 1499 378
Width: 1024
GlyphClass: 1
Flags: W
LayerCount: 2
Fore
SplineSet
640 640 m 1,0,-1
 640 512 l 1,1,-1
 768 512 l 1,2,-1
 768 128 l 1,3,-1
 640 128 l 1,4,-1
 640 0 l 1,5,-1
 256 0 l 1,6,-1
 256 128 l 1,7,-1
 512 128 l 1,8,-1
 512 512 l 1,9,-1
 256 512 l 1,10,-1
 256 640 l 1,11,-1
 640 640 l 1,0,-1
EndSplineSet
EndChar

StartChar: uni05DC
Encoding: 1500 1500 379
Width: 1024
GlyphClass: 1
Flags: W
LayerCount: 2
Fore
SplineSet
768 640 m 1,0,-1
 768 384 l 1,1,-1
 640 384 l 1,2,-1
 640 128 l 1,3,-1
 512 128 l 1,4,-1
 512 0 l 1,5,-1
 256 0 l 1,6,-1
 256 128 l 1,7,-1
 384 128 l 1,8,-1
 384 384 l 1,9,-1
 512 384 l 1,10,-1
 512 512 l 1,11,-1
 128 512 l 1,12,-1
 128 768 l 1,13,-1
 384 768 l 1,14,-1
 384 640 l 1,15,-1
 768 640 l 1,0,-1
EndSplineSet
EndChar

StartChar: uni05DD
Encoding: 1501 1501 380
Width: 1024
GlyphClass: 1
Flags: W
LayerCount: 2
Fore
SplineSet
768 640 m 1,0,-1
 768 512 l 1,1,-1
 896 512 l 1,2,-1
 896 0 l 1,3,-1
 128 0 l 1,4,-1
 128 640 l 1,5,-1
 768 640 l 1,0,-1
384 128 m 1,6,-1
 640 128 l 1,7,-1
 640 512 l 1,8,-1
 384 512 l 1,9,-1
 384 128 l 1,6,-1
EndSplineSet
EndChar

StartChar: uni05DE
Encoding: 1502 1502 381
Width: 1024
GlyphClass: 1
Flags: W
LayerCount: 2
Fore
SplineSet
768 640 m 1,0,-1
 768 512 l 1,1,-1
 896 512 l 1,2,-1
 896 128 l 1,3,-1
 768 128 l 1,4,-1
 768 0 l 1,5,-1
 512 0 l 1,6,-1
 512 128 l 1,7,-1
 640 128 l 1,8,-1
 640 384 l 1,9,-1
 512 384 l 1,10,-1
 512 256 l 1,11,-1
 384 256 l 1,12,-1
 384 0 l 1,13,-1
 128 0 l 1,14,-1
 128 256 l 1,15,-1
 256 256 l 1,16,-1
 256 384 l 1,17,-1
 128 384 l 1,18,-1
 128 640 l 1,19,-1
 384 640 l 1,20,-1
 384 512 l 1,21,-1
 512 512 l 1,22,-1
 512 640 l 1,23,-1
 768 640 l 1,0,-1
EndSplineSet
EndChar

StartChar: uni05DF
Encoding: 1503 1503 382
Width: 1024
GlyphClass: 1
Flags: W
LayerCount: 2
Fore
SplineSet
384 640 m 1,0,-1
 640 640 l 1,1,-1
 640 -128 l 1,2,-1
 384 -128 l 1,3,-1
 384 640 l 1,0,-1
EndSplineSet
EndChar

StartChar: uni05E0
Encoding: 1504 1504 383
Width: 1024
GlyphClass: 1
Flags: W
LayerCount: 2
Fore
SplineSet
640 640 m 1,0,-1
 640 512 l 1,1,-1
 768 512 l 1,2,-1
 768 0 l 1,3,-1
 384 0 l 1,4,-1
 384 128 l 1,5,-1
 512 128 l 1,6,-1
 512 512 l 1,7,-1
 384 512 l 1,8,-1
 384 640 l 1,9,-1
 640 640 l 1,0,-1
EndSplineSet
EndChar

StartChar: uni05E1
Encoding: 1505 1505 384
Width: 1024
GlyphClass: 1
Flags: W
LayerCount: 2
Fore
SplineSet
768 640 m 1,0,-1
 768 512 l 1,1,-1
 896 512 l 1,2,-1
 896 128 l 1,3,-1
 768 128 l 1,4,-1
 768 0 l 1,5,-1
 256 0 l 1,6,-1
 256 128 l 1,7,-1
 128 128 l 1,8,-1
 128 640 l 1,9,-1
 768 640 l 1,0,-1
384 128 m 1,10,-1
 640 128 l 1,11,-1
 640 512 l 1,12,-1
 384 512 l 1,13,-1
 384 128 l 1,10,-1
EndSplineSet
EndChar

StartChar: uni05E2
Encoding: 1506 1506 385
Width: 1024
GlyphClass: 1
Flags: W
LayerCount: 2
Fore
SplineSet
640 640 m 1,0,-1
 896 640 l 1,1,-1
 896 128 l 1,2,-1
 768 128 l 1,3,-1
 768 0 l 1,4,-1
 256 0 l 1,5,-1
 256 128 l 1,6,-1
 384 128 l 1,7,-1
 384 256 l 1,8,-1
 256 256 l 1,9,-1
 256 384 l 1,10,-1
 128 384 l 1,11,-1
 128 640 l 1,12,-1
 384 640 l 1,13,-1
 384 384 l 1,14,-1
 512 384 l 1,15,-1
 512 256 l 1,16,-1
 640 256 l 1,17,-1
 640 640 l 1,0,-1
EndSplineSet
EndChar

StartChar: uni05E3
Encoding: 1507 1507 386
Width: 1024
GlyphClass: 1
Flags: W
LayerCount: 2
Fore
SplineSet
768 640 m 1,0,-1
 768 512 l 1,1,-1
 896 512 l 1,2,-1
 896 -128 l 1,3,-1
 640 -128 l 1,4,-1
 640 512 l 1,5,-1
 384 512 l 1,6,-1
 384 256 l 1,7,-1
 512 256 l 1,8,-1
 512 128 l 1,9,-1
 256 128 l 1,10,-1
 256 256 l 1,11,-1
 128 256 l 1,12,-1
 128 640 l 1,13,-1
 768 640 l 1,0,-1
EndSplineSet
EndChar

StartChar: uni05E4
Encoding: 1508 1508 387
Width: 1024
GlyphClass: 1
Flags: W
LayerCount: 2
Fore
SplineSet
768 640 m 1,0,-1
 768 512 l 1,1,-1
 896 512 l 1,2,-1
 896 128 l 1,3,-1
 768 128 l 1,4,-1
 768 0 l 1,5,-1
 256 0 l 1,6,-1
 256 128 l 1,7,-1
 640 128 l 1,8,-1
 640 512 l 1,9,-1
 384 512 l 1,10,-1
 384 384 l 1,11,-1
 512 384 l 1,12,-1
 512 256 l 1,13,-1
 256 256 l 1,14,-1
 256 384 l 1,15,-1
 128 384 l 1,16,-1
 128 640 l 1,17,-1
 768 640 l 1,0,-1
EndSplineSet
EndChar

StartChar: uni05E5
Encoding: 1509 1509 388
Width: 1024
GlyphClass: 1
Flags: W
LayerCount: 2
Fore
SplineSet
640 640 m 1,0,-1
 896 640 l 1,1,-1
 896 384 l 1,2,-1
 768 384 l 1,3,-1
 768 256 l 1,4,-1
 640 256 l 1,5,-1
 640 -128 l 1,6,-1
 384 -128 l 1,7,-1
 384 384 l 1,8,-1
 256 384 l 1,9,-1
 256 512 l 1,10,-1
 128 512 l 1,11,-1
 128 640 l 1,12,-1
 384 640 l 1,13,-1
 384 512 l 1,14,-1
 512 512 l 1,15,-1
 512 384 l 1,16,-1
 640 384 l 1,17,-1
 640 640 l 1,0,-1
EndSplineSet
EndChar

StartChar: uni05E6
Encoding: 1510 1510 389
Width: 1024
GlyphClass: 1
Flags: W
LayerCount: 2
Fore
SplineSet
640 640 m 1,0,-1
 896 640 l 1,1,-1
 896 384 l 1,2,-1
 768 384 l 1,3,-1
 768 0 l 1,4,-1
 256 0 l 1,5,-1
 256 128 l 1,6,-1
 512 128 l 1,7,-1
 512 256 l 1,8,-1
 384 256 l 1,9,-1
 384 384 l 1,10,-1
 256 384 l 1,11,-1
 256 512 l 1,12,-1
 128 512 l 1,13,-1
 128 640 l 1,14,-1
 384 640 l 1,15,-1
 384 512 l 1,16,-1
 512 512 l 1,17,-1
 512 384 l 1,18,-1
 640 384 l 1,19,-1
 640 640 l 1,0,-1
EndSplineSet
EndChar

StartChar: uni05E7
Encoding: 1511 1511 390
Width: 1024
GlyphClass: 1
Flags: W
LayerCount: 2
Fore
SplineSet
896 640 m 1,0,-1
 896 256 l 1,1,-1
 768 256 l 1,2,-1
 768 0 l 1,3,-1
 512 0 l 1,4,-1
 512 256 l 1,5,-1
 640 256 l 1,6,-1
 640 512 l 1,7,-1
 256 512 l 1,8,-1
 256 640 l 1,9,-1
 896 640 l 1,0,-1
128 384 m 1,10,-1
 384 384 l 1,11,-1
 384 -128 l 1,12,-1
 128 -128 l 1,13,-1
 128 384 l 1,10,-1
EndSplineSet
EndChar

StartChar: uni05E8
Encoding: 1512 1512 391
Width: 1024
GlyphClass: 1
Flags: W
LayerCount: 2
Fore
SplineSet
640 640 m 1,0,-1
 640 512 l 1,1,-1
 768 512 l 1,2,-1
 768 0 l 1,3,-1
 512 0 l 1,4,-1
 512 512 l 1,5,-1
 256 512 l 1,6,-1
 256 640 l 1,7,-1
 640 640 l 1,0,-1
EndSplineSet
EndChar

StartChar: uni05E9
Encoding: 1513 1513 392
Width: 1024
GlyphClass: 1
Flags: W
LayerCount: 2
Fore
SplineSet
640 640 m 1,0,-1
 896 640 l 1,1,-1
 896 128 l 1,2,-1
 768 128 l 1,3,-1
 768 0 l 1,4,-1
 128 0 l 1,5,-1
 128 128 l 1,6,-1
 0 128 l 1,7,-1
 0 640 l 1,8,-1
 256 640 l 1,9,-1
 256 384 l 1,10,-1
 384 384 l 1,11,-1
 384 256 l 1,12,-1
 256 256 l 1,13,-1
 256 128 l 1,14,-1
 640 128 l 1,15,-1
 640 640 l 1,0,-1
512 640 m 1,16,-1
 512 384 l 1,17,-1
 384 384 l 1,18,-1
 384 640 l 1,19,-1
 512 640 l 1,16,-1
EndSplineSet
EndChar

StartChar: uni05EA
Encoding: 1514 1514 393
Width: 1024
GlyphClass: 1
Flags: W
LayerCount: 2
Fore
SplineSet
768 640 m 1,0,-1
 768 512 l 1,1,-1
 896 512 l 1,2,-1
 896 0 l 1,3,-1
 640 0 l 1,4,-1
 640 512 l 1,5,-1
 512 512 l 1,6,-1
 512 128 l 1,7,-1
 384 128 l 1,8,-1
 384 0 l 1,9,-1
 128 0 l 1,10,-1
 128 128 l 1,11,-1
 256 128 l 1,12,-1
 256 512 l 1,13,-1
 128 512 l 1,14,-1
 128 640 l 1,15,-1
 768 640 l 1,0,-1
EndSplineSet
EndChar

StartChar: Wgrave
Encoding: 7808 7808 394
Width: 1024
GlyphClass: 1
Flags: W
LayerCount: 2
Fore
SplineSet
256 896 m 1,0,-1
 384 896 l 1,1,-1
 384 768 l 1,2,-1
 256 768 l 1,3,-1
 256 896 l 1,0,-1
512 768 m 1,4,-1
 512 640 l 1,5,-1
 384 640 l 1,6,-1
 384 768 l 1,7,-1
 512 768 l 1,4,-1
640 640 m 1,8,-1
 896 640 l 1,9,-1
 896 256 l 1,10,-1
 768 256 l 1,11,-1
 768 0 l 1,12,-1
 512 0 l 1,13,-1
 512 128 l 1,14,-1
 384 128 l 1,15,-1
 384 0 l 1,16,-1
 128 0 l 1,17,-1
 128 256 l 1,18,-1
 0 256 l 1,19,-1
 0 640 l 1,20,-1
 256 640 l 1,21,-1
 256 256 l 1,22,-1
 384 256 l 1,23,-1
 384 384 l 1,24,-1
 512 384 l 1,25,-1
 512 256 l 1,26,-1
 640 256 l 1,27,-1
 640 640 l 1,8,-1
EndSplineSet
EndChar

StartChar: wgrave
Encoding: 7809 7809 395
Width: 1024
GlyphClass: 1
Flags: W
LayerCount: 2
Fore
SplineSet
384 768 m 1,0,-1
 384 896 l 1,1,-1
 512 896 l 1,2,-1
 512 768 l 1,3,-1
 384 768 l 1,0,-1
512 640 m 1,4,-1
 512 768 l 1,5,-1
 640 768 l 1,6,-1
 640 640 l 1,7,-1
 512 640 l 1,4,-1
256 128 m 1,8,-1
 384 128 l 1,9,-1
 384 0 l 1,10,-1
 128 0 l 1,11,-1
 128 128 l 1,12,-1
 0 128 l 1,13,-1
 0 640 l 1,14,-1
 256 640 l 1,15,-1
 256 128 l 1,8,-1
640 640 m 1,16,-1
 896 640 l 1,17,-1
 896 128 l 1,18,-1
 768 128 l 1,19,-1
 768 0 l 1,20,-1
 512 0 l 1,21,-1
 512 128 l 1,22,-1
 640 128 l 1,23,-1
 640 640 l 1,16,-1
384 384 m 1,24,-1
 512 384 l 1,25,-1
 512 128 l 1,26,-1
 384 128 l 1,27,-1
 384 384 l 1,24,-1
EndSplineSet
EndChar

StartChar: Wacute
Encoding: 7810 7810 396
Width: 1024
GlyphClass: 1
Flags: W
LayerCount: 2
Fore
SplineSet
512 896 m 1,0,-1
 640 896 l 1,1,-1
 640 768 l 1,2,-1
 512 768 l 1,3,-1
 512 896 l 1,0,-1
384 768 m 1,4,-1
 512 768 l 1,5,-1
 512 640 l 1,6,-1
 384 640 l 1,7,-1
 384 768 l 1,4,-1
640 640 m 1,8,-1
 896 640 l 1,9,-1
 896 256 l 1,10,-1
 768 256 l 1,11,-1
 768 0 l 1,12,-1
 512 0 l 1,13,-1
 512 128 l 1,14,-1
 384 128 l 1,15,-1
 384 0 l 1,16,-1
 128 0 l 1,17,-1
 128 256 l 1,18,-1
 0 256 l 1,19,-1
 0 640 l 1,20,-1
 256 640 l 1,21,-1
 256 256 l 1,22,-1
 384 256 l 1,23,-1
 384 384 l 1,24,-1
 512 384 l 1,25,-1
 512 256 l 1,26,-1
 640 256 l 1,27,-1
 640 640 l 1,8,-1
EndSplineSet
EndChar

StartChar: wacute
Encoding: 7811 7811 397
Width: 1024
GlyphClass: 1
Flags: W
LayerCount: 2
Fore
SplineSet
512 896 m 1,0,-1
 640 896 l 1,1,-1
 640 768 l 1,2,-1
 512 768 l 1,3,-1
 512 896 l 1,0,-1
384 768 m 1,4,-1
 512 768 l 1,5,-1
 512 640 l 1,6,-1
 384 640 l 1,7,-1
 384 768 l 1,4,-1
256 128 m 1,8,-1
 384 128 l 1,9,-1
 384 0 l 1,10,-1
 128 0 l 1,11,-1
 128 128 l 1,12,-1
 0 128 l 1,13,-1
 0 640 l 1,14,-1
 256 640 l 1,15,-1
 256 128 l 1,8,-1
640 640 m 1,16,-1
 896 640 l 1,17,-1
 896 128 l 1,18,-1
 768 128 l 1,19,-1
 768 0 l 1,20,-1
 512 0 l 1,21,-1
 512 128 l 1,22,-1
 640 128 l 1,23,-1
 640 640 l 1,16,-1
384 384 m 1,24,-1
 512 384 l 1,25,-1
 512 128 l 1,26,-1
 384 128 l 1,27,-1
 384 384 l 1,24,-1
EndSplineSet
EndChar

StartChar: Wdieresis
Encoding: 7812 7812 398
Width: 1024
GlyphClass: 1
Flags: W
LayerCount: 2
Fore
SplineSet
256 896 m 1,0,-1
 384 896 l 1,1,-1
 384 768 l 1,2,-1
 256 768 l 1,3,-1
 256 896 l 1,0,-1
512 896 m 1,4,-1
 640 896 l 1,5,-1
 640 768 l 1,6,-1
 512 768 l 1,7,-1
 512 896 l 1,4,-1
640 640 m 1,8,-1
 896 640 l 1,9,-1
 896 256 l 1,10,-1
 768 256 l 1,11,-1
 768 0 l 1,12,-1
 512 0 l 1,13,-1
 512 128 l 1,14,-1
 384 128 l 1,15,-1
 384 0 l 1,16,-1
 128 0 l 1,17,-1
 128 256 l 1,18,-1
 0 256 l 1,19,-1
 0 640 l 1,20,-1
 256 640 l 1,21,-1
 256 256 l 1,22,-1
 384 256 l 1,23,-1
 384 384 l 1,24,-1
 512 384 l 1,25,-1
 512 256 l 1,26,-1
 640 256 l 1,27,-1
 640 640 l 1,8,-1
EndSplineSet
EndChar

StartChar: wdieresis
Encoding: 7813 7813 399
Width: 1024
GlyphClass: 1
Flags: W
LayerCount: 2
Fore
SplineSet
256 896 m 1,0,-1
 384 896 l 1,1,-1
 384 768 l 1,2,-1
 256 768 l 1,3,-1
 256 896 l 1,0,-1
512 896 m 1,4,-1
 640 896 l 1,5,-1
 640 768 l 1,6,-1
 512 768 l 1,7,-1
 512 896 l 1,4,-1
256 128 m 1,8,-1
 384 128 l 1,9,-1
 384 0 l 1,10,-1
 128 0 l 1,11,-1
 128 128 l 1,12,-1
 0 128 l 1,13,-1
 0 640 l 1,14,-1
 256 640 l 1,15,-1
 256 128 l 1,8,-1
640 640 m 1,16,-1
 896 640 l 1,17,-1
 896 128 l 1,18,-1
 768 128 l 1,19,-1
 768 0 l 1,20,-1
 512 0 l 1,21,-1
 512 128 l 1,22,-1
 640 128 l 1,23,-1
 640 640 l 1,16,-1
384 384 m 1,24,-1
 512 384 l 1,25,-1
 512 128 l 1,26,-1
 384 128 l 1,27,-1
 384 384 l 1,24,-1
EndSplineSet
EndChar

StartChar: uni1E9E
Encoding: 7838 7838 400
Width: 1024
GlyphClass: 1
Flags: W
LayerCount: 2
Fore
SplineSet
768 896 m 1,0,-1
 768 768 l 1,1,-1
 896 768 l 1,2,-1
 896 512 l 1,3,-1
 768 512 l 1,4,-1
 768 384 l 1,5,-1
 896 384 l 1,6,-1
 896 128 l 1,7,-1
 768 128 l 1,8,-1
 768 0 l 1,9,-1
 512 0 l 1,10,-1
 512 128 l 1,11,-1
 640 128 l 1,12,-1
 640 384 l 1,13,-1
 512 384 l 1,14,-1
 512 512 l 1,15,-1
 640 512 l 1,16,-1
 640 768 l 1,17,-1
 384 768 l 1,18,-1
 384 -128 l 1,19,-1
 128 -128 l 1,20,-1
 128 896 l 1,21,-1
 768 896 l 1,0,-1
EndSplineSet
EndChar

StartChar: Ygrave
Encoding: 7922 7922 401
Width: 1024
GlyphClass: 1
Flags: W
LayerCount: 2
Fore
SplineSet
384 768 m 1,0,-1
 384 896 l 1,1,-1
 512 896 l 1,2,-1
 512 768 l 1,3,-1
 384 768 l 1,0,-1
512 640 m 1,4,-1
 512 768 l 1,5,-1
 640 768 l 1,6,-1
 640 640 l 1,7,-1
 512 640 l 1,4,-1
640 640 m 1,8,-1
 896 640 l 1,9,-1
 896 384 l 1,10,-1
 768 384 l 1,11,-1
 768 256 l 1,12,-1
 640 256 l 1,13,-1
 640 0 l 1,14,-1
 384 0 l 1,15,-1
 384 256 l 1,16,-1
 256 256 l 1,17,-1
 256 384 l 1,18,-1
 128 384 l 1,19,-1
 128 640 l 1,20,-1
 384 640 l 1,21,-1
 384 384 l 1,22,-1
 640 384 l 1,23,-1
 640 640 l 1,8,-1
EndSplineSet
EndChar

StartChar: ygrave
Encoding: 7923 7923 402
Width: 1024
GlyphClass: 1
Flags: W
LayerCount: 2
Fore
SplineSet
384 768 m 1,0,-1
 384 896 l 1,1,-1
 512 896 l 1,2,-1
 512 768 l 1,3,-1
 384 768 l 1,0,-1
512 640 m 1,4,-1
 512 768 l 1,5,-1
 640 768 l 1,6,-1
 640 640 l 1,7,-1
 512 640 l 1,4,-1
640 640 m 1,8,-1
 896 640 l 1,9,-1
 896 0 l 1,10,-1
 768 0 l 1,11,-1
 768 -128 l 1,12,-1
 256 -128 l 1,13,-1
 256 0 l 1,14,-1
 640 0 l 1,15,-1
 640 128 l 1,16,-1
 256 128 l 1,17,-1
 256 256 l 1,18,-1
 128 256 l 1,19,-1
 128 640 l 1,20,-1
 384 640 l 1,21,-1
 384 256 l 1,22,-1
 640 256 l 1,23,-1
 640 640 l 1,8,-1
EndSplineSet
EndChar

StartChar: endash
Encoding: 8211 8211 403
Width: 1024
GlyphClass: 1
Flags: W
LayerCount: 2
Fore
SplineSet
896 512 m 1,0,-1
 896 384 l 1,1,-1
 128 384 l 1,2,-1
 128 512 l 1,3,-1
 896 512 l 1,0,-1
EndSplineSet
EndChar

StartChar: emdash
Encoding: 8212 8212 404
Width: 1024
GlyphClass: 1
Flags: W
LayerCount: 2
Fore
SplineSet
1024 512 m 1,0,-1
 1024 384 l 1,1,-1
 0 384 l 1,2,-1
 0 512 l 1,3,-1
 1024 512 l 1,0,-1
EndSplineSet
EndChar

StartChar: quoteleft
Encoding: 8216 8216 405
Width: 1024
GlyphClass: 1
Flags: W
LayerCount: 2
Fore
SplineSet
512 640 m 1,0,-1
 640 640 l 1,1,-1
 640 512 l 1,2,-1
 384 512 l 1,3,-1
 384 640 l 1,4,-1
 256 640 l 1,5,-1
 256 896 l 1,6,-1
 512 896 l 1,7,-1
 512 640 l 1,0,-1
EndSplineSet
EndChar

StartChar: quoteright
Encoding: 8217 8217 406
Width: 1024
GlyphClass: 1
Flags: W
LayerCount: 2
Fore
SplineSet
512 896 m 1,0,-1
 768 896 l 1,1,-1
 768 640 l 1,2,-1
 640 640 l 1,3,-1
 640 512 l 1,4,-1
 384 512 l 1,5,-1
 384 640 l 1,6,-1
 512 640 l 1,7,-1
 512 896 l 1,0,-1
EndSplineSet
EndChar

